<?xml version="1.0" encoding="utf-8"?>
<!-- Generator: Adobe Illustrator 24.0.1, SVG Export Plug-In . SVG Version: 6.00 Build 0)  -->
<svg version="1.1" id="Layer_1" xmlns="http://www.w3.org/2000/svg" xmlns:xlink="http://www.w3.org/1999/xlink" x="0px" y="0px"
	 viewBox="0 0 612 792" style="enable-background:new 0 0 612 792;" xml:space="preserve">
<style type="text/css">
	.st0{fill:url(#SVGID_1_);}
	.st1{fill:url(#SVGID_2_);}
	.st2{fill:url(#SVGID_3_);}
	.st3{fill:url(#SVGID_4_);}
	.st4{fill:url(#SVGID_5_);}
	.st5{fill:url(#SVGID_6_);}
	.st6{fill:url(#SVGID_7_);}
	.st7{fill:url(#SVGID_8_);}
	.st8{fill:url(#SVGID_9_);}
</style>
<linearGradient id="SVGID_1_" gradientUnits="userSpaceOnUse" x1="303.0551" y1="627.24" x2="303.0551" y2="-16.97">
	<stop  offset="0" style="stop-color:#FFFFFF"/>
	<stop  offset="0.1007" style="stop-color:#FEFDFD"/>
	<stop  offset="0.137" style="stop-color:#FBF7F6"/>
	<stop  offset="0.1628" style="stop-color:#F7ECEA"/>
	<stop  offset="0.1837" style="stop-color:#F0DCDA"/>
	<stop  offset="0.2017" style="stop-color:#E7C8C4"/>
	<stop  offset="0.2175" style="stop-color:#DCAEA8"/>
	<stop  offset="0.2319" style="stop-color:#CF9088"/>
	<stop  offset="0.2451" style="stop-color:#BF6D62"/>
	<stop  offset="0.2568" style="stop-color:#AF4739"/>
	<stop  offset="0.264" style="stop-color:#A32C1C"/>
</linearGradient>
<polygon class="st0" points="1120.06,311.96 1076.11,350.61 1081.41,352.88 1128.4,346.06 1171.6,330.15 1190.55,314.99 
	1211.77,293.77 1225.41,298.32 1232.23,310.44 1207.98,342.27 1154.17,377.14 1091.26,408.21 1060.19,416.55 1010.17,433.98 
	978.34,448.38 955.6,454.44 929.07,460.51 866.17,483.24 788.86,491.58 684.27,509.01 575.89,521.14 465.24,526.44 375.05,527.2 
	312.15,583.28 279.56,602.99 272.74,606.02 255.31,590.11 185.58,622.69 173.45,627.24 162.84,627.24 174.97,543.87 187.09,531.75 
	213.62,524.93 209.07,523.41 138.59,516.59 121.16,518.11 82.51,522.65 45.37,512.8 -5.41,536.29 -14.51,537.81 -117.58,581.01 
	-133.49,584.8 -167.6,551.45 -233.54,442.32 -188.06,434.74 -179.73,428.67 -188.06,422.61 -206.25,417.31 -248.69,408.97 
	-287.35,407.45 -316.91,411.24 -379.81,435.49 -476.06,487.03 -529.87,510.53 -557.92,519.62 -602.63,532.51 -629.92,532.51 
	-634.46,527.2 -615.52,504.46 -594.29,455.96 -560.95,399.87 -538.97,358.19 -530.63,331.66 -526.84,314.45 -551.09,243.75 
	-583.94,155.33 -600.61,106.32 -591.01,106.32 -572.69,108.46 -511.31,132.34 -411.26,197.14 -377.16,227.83 -353.28,241.47 
	-327.26,254.36 -307.05,258.4 -279.26,257.89 -261.07,253.85 -234.29,248.8 -190.84,236.17 -172.65,231.12 -171.14,225.05 
	-179.22,222.02 -191.35,222.53 -197.92,221.52 -201.96,214.95 -201.45,206.86 -195.89,200.8 -186.8,192.21 -174.17,186.15 
	-156.99,183.62 -143.35,185.14 -117.07,194.23 -96.86,201.31 -77.66,199.28 -65.54,197.26 6.21,182.11 154.25,160.88 157.28,156.84 
	120.91,143.71 160.32,83.07 185.58,52.76 226,-16.97 252.27,-7.37 285.12,13.35 326.04,47.71 351.31,72.46 367.98,83.07 
	413.96,83.07 425.58,85.6 458.93,85.6 485.2,90.65 521.58,90.65 574.63,92.67 612,96.72 663.05,106.32 713.07,120.97 754.76,139.16 
	805.54,166.44 871.47,188.42 882.84,191.45 974.55,205.09 1035.18,215.71 1091.26,223.28 1139.77,222.53 1171.6,218.74 
	1191.31,218.74 1214.8,221.01 1232.99,235.41 1240.57,247.54 1232.23,261.18 1226.17,262.69 1214.8,259.66 1207.98,258.91 
	1164.78,277.09 1140.53,291.49 "/>
<linearGradient id="SVGID_2_" gradientUnits="userSpaceOnUse" x1="740.1412" y1="481.2041" x2="738.3488" y2="279.6121">
	<stop  offset="0" style="stop-color:#FFFFFF"/>
	<stop  offset="0" style="stop-color:#FEFEFD"/>
	<stop  offset="0" style="stop-color:#F9F8F6"/>
	<stop  offset="0" style="stop-color:#F1EFEB"/>
	<stop  offset="0" style="stop-color:#E6E3DA"/>
	<stop  offset="0" style="stop-color:#D7D2C4"/>
	<stop  offset="0" style="stop-color:#C4BDA8"/>
	<stop  offset="0" style="stop-color:#AFA488"/>
	<stop  offset="0" style="stop-color:#958862"/>
	<stop  offset="0" style="stop-color:#796839"/>
	<stop  offset="0" style="stop-color:#5A460B"/>
	<stop  offset="0" style="stop-color:#584308"/>
</linearGradient>
<polygon class="st1" points="840.4,420.34 824.48,409.73 803.26,403.66 776.74,399.87 746.42,396 700.95,396 663.81,401.39 
	644.11,408.17 638.8,420.34 651.68,432.46 702.46,469.6 716.11,474.91 727.47,474.91 742.63,474.91 815.39,463.54 827.52,435.45 "/>
<linearGradient id="SVGID_3_" gradientUnits="userSpaceOnUse" x1="246.0358" y1="673.7745" x2="289.5678" y2="466.0775">
	<stop  offset="0" style="stop-color:#933C1D"/>
	<stop  offset="0.275" style="stop-color:#943E1F"/>
	<stop  offset="0.374" style="stop-color:#974326"/>
	<stop  offset="0.4447" style="stop-color:#9D4E31"/>
	<stop  offset="0.5018" style="stop-color:#A45C42"/>
	<stop  offset="0.5507" style="stop-color:#AF6F58"/>
	<stop  offset="0.594" style="stop-color:#BB8674"/>
	<stop  offset="0.6332" style="stop-color:#CAA294"/>
	<stop  offset="0.6692" style="stop-color:#DCC3BA"/>
	<stop  offset="0.7012" style="stop-color:#EFE6E3"/>
	<stop  offset="0.7164" style="stop-color:#F9F9F9"/>
</linearGradient>
<polygon class="st2" points="290.17,513.56 274.25,513.56 223.47,523.41 187.09,531.75 174.97,543.87 162.84,627.24 173.45,627.24 
	185.58,622.69 255.31,590.11 272.74,606.02 279.56,602.99 312.15,583.28 375.05,527.2 344.74,537.81 322,537.05 303.06,530.23 "/>
<linearGradient id="SVGID_4_" gradientUnits="userSpaceOnUse" x1="120.91" y1="70.5676" x2="351.31" y2="70.5676">
	<stop  offset="0" style="stop-color:#FFFFFF"/>
	<stop  offset="0" style="stop-color:#FEFEFD"/>
	<stop  offset="0" style="stop-color:#FDFAF6"/>
	<stop  offset="0" style="stop-color:#FAF3EB"/>
	<stop  offset="0" style="stop-color:#F5EADA"/>
	<stop  offset="0" style="stop-color:#EFDDC4"/>
	<stop  offset="0" style="stop-color:#E8CEA8"/>
	<stop  offset="0" style="stop-color:#DFBC88"/>
	<stop  offset="0" style="stop-color:#D5A662"/>
	<stop  offset="0" style="stop-color:#CA8F39"/>
	<stop  offset="0" style="stop-color:#C17B16"/>
</linearGradient>
<polygon class="st3" points="351.31,72.46 342.46,88.38 329.58,88.38 310.63,98.99 284.11,117.18 249.24,133.09 222.72,142.95 
	195.43,152.04 182.55,158.11 157.28,156.84 120.91,143.71 160.32,83.07 185.58,52.76 226,-16.97 252.27,-7.37 285.12,13.35 
	326.04,47.71 "/>
<linearGradient id="SVGID_5_" gradientUnits="userSpaceOnUse" x1="-386.6347" y1="506.735" x2="-107.7247" y2="506.735">
	<stop  offset="0" style="stop-color:#FFFFFF"/>
	<stop  offset="0.1012" style="stop-color:#FEFDFD"/>
	<stop  offset="0.1377" style="stop-color:#FAF7F6"/>
	<stop  offset="0.1637" style="stop-color:#F2EDEA"/>
	<stop  offset="0.1847" style="stop-color:#E8DEDA"/>
	<stop  offset="0.2027" style="stop-color:#DACAC4"/>
	<stop  offset="0.2187" style="stop-color:#C9B2A8"/>
	<stop  offset="0.2331" style="stop-color:#B59588"/>
	<stop  offset="0.2464" style="stop-color:#9D7462"/>
	<stop  offset="0.2581" style="stop-color:#835039"/>
	<stop  offset="0.264" style="stop-color:#753B22"/>
</linearGradient>
<polygon class="st4" points="-152.44,448.38 -165.33,440.8 -179.73,428.67 -188.06,434.74 -233.54,442.32 -167.6,551.45 
	-133.49,584.8 -5.41,536.29 45.37,512.8 6.72,510.53 -35.73,499.16 -83.47,486.27 -116.06,468.84 "/>
<linearGradient id="SVGID_6_" gradientUnits="userSpaceOnUse" x1="1100.1013" y1="462.5256" x2="974.3201" y2="225.6438">
	<stop  offset="0.0473" style="stop-color:#FFFFFF"/>
	<stop  offset="0.1637" style="stop-color:#FDFEFD"/>
	<stop  offset="0.2056" style="stop-color:#F8F9F6"/>
	<stop  offset="0.2355" style="stop-color:#EEF1EB"/>
	<stop  offset="0.2597" style="stop-color:#DFE5DA"/>
	<stop  offset="0.2804" style="stop-color:#CDD6C4"/>
	<stop  offset="0.2987" style="stop-color:#B6C3A8"/>
	<stop  offset="0.3153" style="stop-color:#9BAD88"/>
	<stop  offset="0.33" style="stop-color:#7C9364"/>
	<stop  offset="0.3424" style="stop-color:#5D7A3F"/>
</linearGradient>
<polygon class="st5" points="929.07,460.51 900.65,435.45 851.77,401.77 801.75,380.17 801.75,354.02 806.29,312.72 826.76,286.95 
	846.08,255.12 869.96,225.56 882.84,191.45 1035.18,215.71 1091.26,223.28 1139.77,222.53 1171.6,218.74 1191.31,218.74 
	1214.8,221.01 1232.99,235.41 1240.57,247.54 1226.17,262.69 1207.98,258.91 1164.78,277.09 1140.53,291.49 1110.42,320.43 
	1076.11,350.61 1081.41,352.88 1128.4,346.06 1171.6,330.15 1190.55,314.99 1211.77,293.77 1225.41,298.32 1232.23,310.44 
	1207.98,342.27 1154.17,377.14 1091.26,408.21 1010.17,433.98 978.34,448.38 "/>
<linearGradient id="SVGID_7_" gradientUnits="userSpaceOnUse" x1="-511.9557" y1="68.8238" x2="-484.0751" y2="555.2099">
	<stop  offset="0" style="stop-color:#FFFFFF"/>
	<stop  offset="0.0281" style="stop-color:#FEFEFD"/>
	<stop  offset="0.0382" style="stop-color:#F9FAF6"/>
	<stop  offset="0.0454" style="stop-color:#F0F3EA"/>
	<stop  offset="0.0512" style="stop-color:#E3E8DA"/>
	<stop  offset="0.0562" style="stop-color:#D3DBC4"/>
	<stop  offset="0.0606" style="stop-color:#BFCBA8"/>
	<stop  offset="0.0646" style="stop-color:#A7B788"/>
	<stop  offset="0.0683" style="stop-color:#8BA062"/>
	<stop  offset="0.0716" style="stop-color:#6C8739"/>
	<stop  offset="0.0731" style="stop-color:#5C7A23"/>
</linearGradient>
<polygon class="st6" points="-415.43,326.36 -394.21,289.22 -376.02,258.15 -353.28,241.47 -377.16,227.83 -411.26,197.14 
	-511.31,132.34 -572.69,108.46 -591.01,106.32 -600.61,106.32 -583.94,155.33 -551.09,243.75 -526.84,314.45 -538.97,358.19 
	-560.95,399.87 -594.29,455.96 -615.52,504.46 -634.46,527.2 -629.92,532.51 -602.63,532.51 -557.92,519.62 -476.06,487.03 
	-379.81,435.49 -401.03,396 -401.03,388.51 "/>
<radialGradient id="SVGID_8_" cx="1017.4631" cy="293.9579" r="16.6737" fx="1008.0035" fy="292.6796" gradientUnits="userSpaceOnUse">
	<stop  offset="0.6507" style="stop-color:#000000"/>
	<stop  offset="0.6531" style="stop-color:#121212"/>
	<stop  offset="0.6602" style="stop-color:#444444"/>
	<stop  offset="0.6679" style="stop-color:#707070"/>
	<stop  offset="0.676" style="stop-color:#979797"/>
	<stop  offset="0.6846" style="stop-color:#B7B7B7"/>
	<stop  offset="0.6938" style="stop-color:#D1D1D1"/>
	<stop  offset="0.7039" style="stop-color:#E6E6E6"/>
	<stop  offset="0.7153" style="stop-color:#F4F4F4"/>
	<stop  offset="0.7291" style="stop-color:#FCFCFC"/>
	<stop  offset="0.7521" style="stop-color:#FFFFFF"/>
</radialGradient>
<polygon class="st7" points="1024.57,280.88 1013.96,277.09 1004.86,277.09 994.25,280.88 990.46,292.25 993.49,305.14 
	998.8,309.68 1007.52,312.72 1016.99,308.93 1027.6,305.14 1027.6,291.49 "/>
<linearGradient id="SVGID_9_" gradientUnits="userSpaceOnUse" x1="-160.1984" y1="346.0605" x2="729.8852" y2="226.293">
	<stop  offset="1" style="stop-color:#000000"/>
	<stop  offset="1" style="stop-color:#000000"/>
	<stop  offset="1" style="stop-color:#000000"/>
</linearGradient>
<line class="st8" x1="732.4" y1="267.62" x2="-165.71" y2="305.14"/>
</svg>
