<?xml version="1.0" encoding="UTF-8"?>
<svg viewBox="0 0 1024 768" xmlns="http://www.w3.org/2000/svg">
 <defs>
  <filter id="a" x="-.065483" y="-.13182" width="1.131" height="1.2636">
   <feGaussianBlur stdDeviation="8.688477"/>
  </filter>
 </defs>
 <g stroke-linecap="round" stroke-linejoin="bevel" stroke-width="3">
  <path d="m695.23 133.89c-90.898 0-168.96 41.133-202.84 99.801-24.909-10.103-53.492-15.905-83.808-15.905-97.11 0-175.92 58.962-175.92 131.52 0 6.294 0.60132 12.468 1.7478 18.527-119.94 3.4747-215.42 62.25-215.42 134.23 0 74.216 101.54 134.5 226.69 134.5 25.952 0 50.879-2.6602 74.108-7.4283 47.21 31.472 115.96 51.299 192.52 51.299 110.01 0 204-40.909 240.94-98.49 25.704 11.342 55.66 17.915 87.653 17.915 95.358 0 172.77-57.825 172.77-129.08 0-54.354-45.11-100.88-108.8-119.9 7.2534-16.337 11.273-33.762 11.273-51.91 0-91.099-99.005-165.08-220.92-165.08z" fill="#f0f4f8"/>
  <path d="m704.65 179.53c-75.193 0-135.92 35.96-157.74 73.758-12.998 22.499-40.594 31.971-64.67 22.197-18.488-7.4986-40.559-12.06-64.233-12.06-38.019 0-71.479 11.927-93.159 28.14s-30.674 33.866-30.674 51.299c0 2.9776 0.22275 5.8484 0.78653 8.8265 2.8242 14.969-1.0482 30.423-10.597 42.292-9.5483 11.868-23.815 18.96-39.041 19.407-51.876 1.5029-97.643 15.596-126.72 33.646-29.075 18.05-38.103 35.617-38.103 48.59 0 13.364 9.8554 31.916 40.899 50.337s79.493 32.073 133.71 32.073c22.395 0 43.842-2.3196 63.621-6.3796 13.61-2.7854 27.768-0.016541 39.326 7.6904 36.197 24.13 96.109 42.56 163.68 42.56 97.103 0 175.83-41.311 197.16-74.545 13.856-21.538 41.316-29.802 64.757-19.488 18.833 8.31 41.818 13.458 66.68 13.458 37.156 0 69.865-11.671 90.974-27.441s29.713-32.78 29.713-49.551c0-25.548-23.729-55.714-71.573-70-14.346-4.2817-26.155-14.531-32.411-28.132-6.2568-13.601-6.3563-29.237-0.27307-42.917 4.5776-10.31 6.7291-20.301 6.7291-30.762 0-26.69-13.952-52.691-43.783-74.982s-74.628-38.015-125.06-38.015z" fill="#fff" filter="url(#a)" stroke="#fff"/>
 </g>
 <g stroke-linejoin="round" stroke-width=".5">
  <g fill="#e4eaed">
   <path d="m328.59 626.98s105.31-55.161 116.65-58.996c-24.718 23.729-87.458 74.985-87.458 74.985l-29.194-15.989z"/>
   <path d="m760.65 572.45s45.183-59.356 56.527-63.191c-24.718 23.729-27.333 79.18-27.333 79.18l-29.194-15.989z"/>
   <path d="m931.83 365.85s-45.183 59.356-56.527 63.191c24.718-23.729 27.333-79.18 27.333-79.18l29.194 15.989z"/>
   <path d="m391.77 449.72s245.03-159.35 316.22-16.978c-84.351-119.41-312.26 16.978-316.22 16.978z"/>
  </g>
  <path d="m702.62 418.05s-98.066-71.147-99.277-93.684c-44.744 18.177 102.07 95.082 99.277 93.684z" fill="#eeeeec"/>
 </g>
</svg>
