<?xml version="1.0" encoding="utf-8"?>

<!DOCTYPE svg PUBLIC "-//W3C//DTD SVG 1.1//EN" "http://www.w3.org/Graphics/SVG/1.1/DTD/svg11.dtd">
<svg version="1.1" id="Layer_1" xmlns="http://www.w3.org/2000/svg" xmlns:xlink="http://www.w3.org/1999/xlink" x="0px" y="0px"
	 viewBox="-60 -36 1357 1992" enable-background="new -60 -36 1357 1992" xml:space="preserve">
<path d="M284.98,0h4.11c6.17,6.37,6.35,15.79,7.22,24.07c2.82,32.11,4.69,64.32,9.6,96.2c4.73,28.95,9.7,57.85,14.96,86.71
	c1.54,9.21,4.35,18.12,6.68,27.14c0.52,2.15,1.52,4.12,2.54,6.06c1.46-2.12,1.12-4.75,1.15-7.18c-0.1-25.11,0.06-50.22,0.31-75.32
	c0.21-15.94-0.03-31.9,1.4-47.79C336.47,73.65,348.41,38.3,367.3,7.2c1.56-2.24,4.45-6.57,7.41-4.01
	c3.11,5.38,3.76,11.84,4.19,17.95c0.84,5.49,0.36,11.08,0.98,16.59c0.97,7,0.24,14.13,1.24,21.13c1.12,24.07,2.79,48.11,4.47,72.16
	c1.72,22.73,1.94,45.64,6.3,68.09c3.04,17.19,6.91,34.22,10.26,51.35c1.93-4.24,1.14-8.94,1.77-13.41c1.27-8.28,0.19-16.71,1.3-25
	c0.64-43,5.17-85.99,14.43-128.04c2.96-12.39,6.43-24.8,12.01-36.29c2.12-3.95,4.91-8.82,9.72-9.61c1.69,6.97,3.43,14.02,3.26,21.24
	c0.95,6.6,0.67,13.27,1.11,19.91c1,7.47,0.39,15.05,1.3,22.54c1.13,26.09,3,52.14,4.66,78.21c1.64,19.44,2.76,39.03,7.06,58.11
	l0.41,0.64c2.39,10.64,6.26,20.88,9.14,31.39c3.05,11.26,6.52,22.42,10.95,33.22c0.41-4.47,1.28-8.9,1.25-13.4
	c-0.04-11.35,0.12-22.71,0.37-34.05c0.98-7.58,0.34-15.27,1.02-22.87c0.96-6.88,0.24-13.88,1.34-20.75
	c0.44-8.4,0.97-16.81,1.89-25.16c1.17-21.53,4.55-42.86,7.58-64.19c0.62-5.61,2.19-11.21,5.29-15.97c0.93-1.54,2.8-1.45,4.36-1.64
	c3.07,3.28,5.01,7.42,6.56,11.59c2.37,7.45,0.96,15.39,2.1,23.03c2.22,46.86,4.47,93.75,6.04,140.66
	c1.25,41.58,3.48,83.1,6.75,124.54c3.13,36.17,9.98,72.19,22.04,106.5c7.45,22.5,17.77,43.93,28.81,64.86
	c18.08,34.43,35.9,69,52.46,104.19c14.14,29.58,27.03,59.79,38.04,90.69c9.79,26.42,19.1,53.01,28.91,79.42
	c5.18,13.24,10.81,26.31,16.76,39.23c4.34,9.13,10.95,16.92,18.05,24.02c8.38,8.78,18.07,16.22,28.21,22.85
	c4.42,2.68,8.42,6.12,13.24,8.09c-3.02-7.57-6.57-14.92-9.82-22.39c-10.96-24.89-20.98-50.18-30.36-75.7
	c-3.32-8.73-5.8-17.79-9.53-26.35c-5.48-8.42-5.73-18.72-7.55-28.28c-0.53-2.35-0.57-4.76-0.46-7.14c1.99-2.51,5.48-2.38,8.09-0.92
	c12.02,6.02,22.07,15.1,31.37,24.66c17.57,17.02,32.76,36.56,44.63,57.96c8.09,14.65,17.52,28.52,27.79,41.73
	c3.14,4.16,6.71,8.02,9.26,12.61c1.34,2.69,4.29,3.76,6.97,4.64c0.55-1.29,1.1-2.59,1.69-3.85c-1.56-21.59-10.01-41.85-18.71-61.4
	c-10.14-23.7-13.63-50.41-8.53-75.77c2.17-12.71,8.02-24.67,16.03-34.71c0.75-1.43,2.84-1.15,3.47,0.27
	c4.98,6.62,11.21,12.18,15.93,19.01c12.16,16.8,19.57,36.32,27.63,55.26c4.52,11.24,8.82,22.57,13.33,33.82
	c4.07,10.06,7.33,20.55,13.16,29.79c0.78,1.13,1.83,2.08,2.84,3.04c0.03-14.05,0.65-28.17-0.92-42.16
	c-0.81-13.76-2.16-27.48-3.38-41.21c-0.94-10.36-2.8-20.63-3.44-31.02c-0.35-13.66,6.04-26.01,10.94-38.37
	c6.47-14.64,13.86-29.1,24.22-41.4c3.56-3.26,7.56-7.7,12.92-6.73c2.74,0.31,4.19,3.12,5.03,5.45c4.34,12.57,3.55,26.06,3.62,39.15
	c-0.01,6.37,0.29,12.74,0.21,19.12c0.3,0.69,0.89,2.07,1.19,2.76c1.49-0.27,2.81-1.04,3.32-2.55c8.15-20.12,17.03-40.3,30.55-57.47
	c3.07-3.63,6.52-7.74,11.45-8.61c2.64,5.87,2.86,12.45,4.05,18.7c2.57,21.7,4.36,43.46,6.47,65.2c1.44,12.65,2.59,25.35,4.39,37.97
	c1.94,12.83,5.14,25.41,7.81,38.09c3.87-25.75,8.9-51.31,13.15-77c0.39-4.43,2.76-8.27,5.84-11.35c1.72,2.03,3.57,4.12,4.17,6.81
	c4.37,18.61,10.09,36.87,14.87,55.38c5.66,21.24,12.5,42.17,17.17,63.67c3.02,13.87,4,28.09,4.58,42.25
	c0.86,9.97,0.78,19.99,1.01,29.99c1.02,10.99,0.53,22.06,1,33.09c1.01,9.28,0.46,18.66,1.09,27.97c1.08,5.18,0.1,10.57,1.31,15.75
	c0.2,3.01,0.28,6.05,0.91,9.03c2.68,23.75,6.95,47.34,8.51,71.21c1.64,21.37,1.91,43.84-6.99,63.83
	c-5.81,14.6-16.23,26.63-26.6,38.19c-12.94,14.73-26.4,29.01-38.73,44.27c-23.81,29.32-44.69,61.2-60.44,95.59
	c-2.09,4.98-4.08,10.08-5.09,15.41c-0.01,5.68,5.89,8.27,9.64,11.47c25.36,16.45,53.15,29.46,82.57,36.7
	c9.62,2.22,19.38,3.69,29.11,5.36c17.7,3.18,35.24,7.87,51.78,15.01c11.97,5.18,22.73,12.62,33.49,19.91
	c7.44,4.62,14.5,10.28,23.13,12.53c13.95,3.76,26.45,12.69,34.26,24.88c5.68,8.69,8.79,18.78,10.95,28.86
	c-0.04,7.25,0.97,14.78-1.63,21.75c-2.63,9.4-8,18.2-15.97,23.98c-2.51,1.88-7.08,1.74-8.03-1.77c-1.54-5.88-0.18-12.01-0.65-17.98
	c-0.18-5.47-2.2-11.4-7.24-14.2c-6.45-3.54-13.8-5.61-21.17-5.59c-13.46-0.4-26.92-0.81-40.37-0.77
	c11.91,5.57,24.23,10.23,36.27,15.53c5.04,2.28,11.19,3.68,14.26,8.75c2.53,4.42,4.15,10.18,2.12,15.1
	c-5.49,1.3-9.02-3.89-13.51-5.9c-21.02-11.26-45.45-12.63-68.68-15.06c-11.38-0.54-22.67-2.61-34.08-2.26
	c-20.45,0.88-40.85,2.61-61.15,5.2c-22.06,3.33-44.18,7.48-65.2,15.12c-12.59,4.87-24.58,11.11-36.85,16.72
	c-37.38,16.92-76.66,29.69-116.95,37.56c-11.79,2.17-23.44,5.02-35.15,7.55l-0.68,0.39c-16.31,3.52-32.74,7.51-47.61,15.32
	c-9.57,5.05-18.61,11.12-26.79,18.2c-12.92,11.29-28.43,19.05-44.22,25.48c-21.36,8.24-43.59,14.34-66.24,17.78
	c-20.37,3.45-41.17,3.83-61.36,8.42c-5.23,1.16-10.49,2.26-15.61,3.86c-11.21,2.82-21.57,8.11-31.68,13.58
	c-7.72,4.16-15.15,9.16-20.73,16.02c-2.69,3.45-6.44,6.23-8.26,10.28c-0.91,12.51-3.88,24.77-5.66,37.19
	c-1.07,8.83-3.91,17.88-1.17,26.71c5.18,20.51-1.3,42.92-15.29,58.53c-2.56,2.51-5.87,3.98-9.07,5.51
	c-6.18,3.17-8.72,10.09-13.52,14.75c-10.71,11.64-26.85,16.03-42.13,17.23h-2.36c-5-0.53-10.35-2.82-13.08-7.15
	c4.22-2.86,9.3-4.29,13.85-6.59c8.5-4.21,18.52-6.71,24.53-14.6c6.26-7.77,6.87-18.16,7.26-27.69c-5.13,1.58-10.03,3.8-15.05,5.67
	c-4.56,1.94-9.9,0.96-14.1-1.41c-2.94-1.73-5.63-4.89-4.71-8.53c4.04-1.64,8.55-1.48,12.56-3.21c6.68-2.51,11.99-8.07,14.7-14.6
	c1.34-7.87,4.51-16.06,1.74-23.97c-3.95-13.22-5.07-27.25-3.14-40.91c0.83-6.95,4-13.37,8.03-19c2.86-4.24,6.93-7.92,8-13.12
	c0.81-2.77,0.24-5.63-0.39-8.34c-7.39-2.54-15.09-3.99-22.49-6.48c1.55-1.56,3.3-2.87,4.91-4.34c0.08-1.65-1.72-2.15-2.76-2.96
	c-2.9-2.02-6.3-3.59-8.37-6.54c-2.12-3.38,0.66-7.27-0.18-10.74c-7.23-4.72-14.53-9.43-21.01-15.17c-2.35-2.25-3.31-5.42-4.26-8.41
	c-3.48-1.01-6.71-2.82-9.04-5.63c-0.39-3.72,0.44-7.36,2.42-10.51c-12.18-1.59-24.5-2.16-36.72-0.57
	c-27.99,0.9-56.01-0.06-84.01,0.15c-23.48-0.81-47.24-1.22-70.22-6.7c-13.29-2.88-25.51-9.02-37.52-15.17
	c-2-1.04-2.78-3.34-3.98-5.06c3.58-3.97,8.98-2.9,13.71-3.64c-13.45-3.53-26.84-7.47-40.06-11.77c-3.28-1.28-2.92-5.33-3.57-8.13
	c-1.25-2.62-4.08-3.84-6.67-4.68c-11.22-3.71-21.98-8.73-32.14-14.74c-6.16-3.99-13.61-6.9-17.65-13.35
	c-2.77-4.49-0.57-9.68,0.95-14.16c-3.88-2.7-9.88-3.44-11.87-8.13V1558c1.1-3.54,3.5-6.43,5.72-9.31c2.68-3.22,5.21-6.72,8.86-8.9
	c-5.04-4.94-10.82-10.39-11.25-17.91c-0.99-8.59,4.27-17.58,12.5-20.48c7.07-2.72,14.74-1.6,22.12-1.7
	c4.45,0.54,8.98,0.88,13.3-0.62c0.07-0.29,0.19-0.87,0.25-1.16c-3.54-2.9-7.79-5.15-10.28-9.13c-4.01-6.19-1.54-15.25,4.66-19.01
	c4.11-2.31,8.81-3.2,13.26-4.6c8.43-2.62,17.22-4.31,26.04-4.29c10.37,0.71,20.99,1.9,30.43,6.56c4.52,1.83,8.08,6.21,13.4,5.44
	c-0.42-2.34-0.26-5.03-1.99-6.86c-2.68-3.02-6.11-5.21-9.2-7.75c11.46,0.78,22.91,2.02,34.21,4.14c24.38,4.21,48.56,9.53,73.02,13.3
	c24.45,4.05,49.18,6.13,73.92,7.22c5.99,0.8,11.93-0.75,17.57-2.59c9.02-3.13,18.56-4.31,27.98-5.59
	c17.53-0.79,35.29-1.08,52.41-5.41c6.11-1.43,11.86-4.2,18.13-4.97c4.43-0.58,8.52-2.46,12.43-4.54
	c-6.08-1.55-11.68-4.43-17.65-6.27c-5.42-1.87-11.28-0.42-16.76-2.01c-7.07-1.82-14.63-3.37-20.37-8.19
	c-5.66-4.46-8.8-11.33-10.31-18.22c-1.66-7.48-6.17-13.94-11.34-19.43c-8.19-9.13-16.97-17.82-23.91-27.99
	c-5.22-7.92-10.87-15.55-16.81-22.94c-4.97-5.56-9.01-11.9-11.48-18.96c-3.24-9.54-8.11-18.49-14.39-26.38
	c-5.97-7.33-10.15-16.12-11.82-25.44c-1.43-7.28-0.64-14.73-1.62-22.05c-1.21-11.45-4.66-22.54-9.4-32.99
	c-3.82-11.03-5.68-22.87-11.69-33.05c-3.13-5.03-5.88-10.36-7.39-16.11c-1.24-4.16-1.26-8.52-1.83-12.79
	c-0.6-8.58-3.24-17.27-8.9-23.9c-4.2-4.73-5.96-11.06-6.6-17.22c-0.91-7.11-2.22-14.32-5.57-20.73c-2.21-4.29-5.95-7.9-6.61-12.86
	c-1.21-5.03,1.51-9.7,3.24-14.22c1.13-3.33-2.53-5.08-4.7-6.67c-12.17-7.61-18.06-23.94-13.13-37.49
	c2.67-6.79-0.36-14.21-5.07-19.26c-6.79-7.29-11.55-17.87-8.71-27.85c0.76-3.17,3.54-5.05,5.5-7.4c0.81-2.22,0.69-4.9-0.78-6.81
	c-3.35-4.69-7.46-8.94-9.62-14.38c-1.8-3.84-2.49-8.05-2.9-12.23c0.28-4.89,1.99-9.85,5.86-13.05c3.25-3.17,8.08-3.78,11.31-6.96
	c-0.73-1.56-1.26-3.29-2.54-4.48c-7.93-7.08-17.28-12.68-23.98-21.03c-6.12-7.77-7.62-19.11-3.05-27.98
	c3.66-6.83,10.81-11.24,18.34-12.48c6.35-1.42,13.12,0.43,19.29-1.7c-7.76-6.88-16.52-12.53-24.47-19.18
	c-1.87-1.59-3.69-3.52-4.14-6.02c-1.59-6.38-3.31-12.73-4.45-19.21c-1.24-6.63-0.84-13.55-3.06-19.99
	c-1.14-3.85-3.4-7.22-4.85-10.94c-3.33-8.53-4.83-17.99-2.91-27.03c1.79-9.52,7.02-18.09,13.68-24.99c3.54-3.59,7.1-7.45,11.91-9.33
	c9.29-3.92,18.93-6.95,28.39-10.45c-3.45-2.33-6.84-4.76-10.28-7.1c-13.62-9.34-28.6-16.41-42.44-25.38
	c-8.1-5.34-14.4-13.83-15.54-23.64c-1.23-9.03,1.72-18.12-0.2-27.13c-1.2-9.34-8.6-15.98-12.19-24.33
	c-8.36-17.24-6.28-39.79,7.02-54c3-3.17,5.63-7.08,5.88-11.56c0.31-4.12-1.39-7.97-2.79-11.73c-4.71-12.35-8.99-25.07-9.96-38.33
	c-0.8-13.53,2.7-27.6,11.14-38.36c2.14-2.61,4.07-5.37,5.54-8.41c1.55-7.46-3.26-13.8-6.49-20.02c-7.54-14.01-15.12-28.37-18.3-44.1
	c-3.82-21.24-5-42.86-8.59-64.14c-1.16-6.08-3.18-11.95-5.53-17.66c-3.98-9.99-10.61-18.59-15.25-28.25
	c-6.41-12.11-11.56-25.01-14.01-38.53c-0.67-4.13-2.13-8.05-3.65-11.92c-2.29-5.91-1.33-12.75,1.97-18.08
	c2.36-3.67,4.91-8.13,9.65-8.84c9.16-1.47,17.79,3.89,23.88,10.26c14.51,15.21,28.1,31.28,41.89,47.13
	c32.05,36.93,63.97,73.97,96,110.91c2.05,2.3,4.45,4.27,7.04,5.93c16.27,10.53,32.45,21.19,48.73,31.7c1.34,0.92,2.88,1.5,4.43,2.02
	c-4.89-18.89-10.34-37.65-17.45-55.83c-13.84-36.19-24.87-73.52-31.86-111.66c-3.27-17.65-6.27-35.41-7.7-53.32
	c-0.77-3.37-0.58-6.83-0.93-10.24c-1.19-7.63-0.41-15.39-1.5-23.04c-0.03-12.16-0.54-24.36,0.41-36.49
	c1.27-27.75,5.54-55.97,17.72-81.22C273.5,16.81,277.53,7.16,284.98,0z"/>
</svg>
