<?xml version="1.0" encoding="UTF-8"?>
<!DOCTYPE svg  PUBLIC '-//W3C//DTD SVG 1.1//EN'  'http://www.w3.org/Graphics/SVG/1.1/DTD/svg11.dtd'>
<svg enable-background="new 0 0 126.8 75.3" version="1.1" viewBox="0 0 126.8 75.3" xml:space="preserve" xmlns="http://www.w3.org/2000/svg">
<radialGradient id="c" cx="59.6" cy="43.875" r="45.901" gradientTransform="matrix(1 0 0 -.6439 0 72.126)" gradientUnits="userSpaceOnUse">
	<stop stop-opacity=".2314" offset="0"/>
	<stop stop-opacity="0" offset="1"/>
</radialGradient>
<path d="m105.35 43.9c0 9.3-4.767 16.699-14.3 22.199-8.567 4.967-19.05 7.451-31.45 7.451s-22.883-2.483-31.45-7.45c-9.533-5.5-14.3-12.9-14.3-22.2 0-9.367 4.767-16.784 14.3-22.25 8.567-4.967 19.05-7.45 31.45-7.45s22.883 2.483 31.45 7.45c9.53 5.467 14.3 12.883 14.3 22.25z" clip-rule="evenodd" fill="url(#c)" fill-rule="evenodd"/>
		<radialGradient id="d" cx="706.12" cy="828.35" r="19.602" gradientTransform="matrix(1 0 0 -.3238 -648.7 337.18)" gradientUnits="userSpaceOnUse">
		<stop stop-opacity=".7647" offset=".251"/>
		<stop stop-opacity="0" offset="1"/>
	</radialGradient>
	<path d="m77.05 68.921c0 1.761-1.917 3.26-5.75 4.498-3.833 1.239-8.467 1.857-13.9 1.857s-10.05-0.618-13.85-1.857c-3.833-1.238-5.75-2.737-5.75-4.498 0-1.76 1.917-3.259 5.75-4.497 3.8-1.238 8.417-1.858 13.85-1.858 5.434 0 10.067 0.62 13.9 1.858s5.75 2.737 5.75 4.497z" clip-rule="evenodd" fill="url(#d)" fill-rule="evenodd"/>
	<path d="m58.8 62.321c-0.434 0.294-0.667 0.636-0.7 1.027-0.033 0.293 0.084 0.7 0.351 1.223 0.3 0.586 0.466 0.993 0.5 1.222 0.166 1.173-0.134 2.281-0.9 3.324-1.333 1.923-4.316 2.884-8.95 2.884-1.633 0.065-2.934 0.065-3.899 0-1.767-0.097-2.917-0.473-3.45-1.124 2.6 0 5.05-1.011 7.35-3.031 0.367-0.293 0.884-0.88 1.55-1.76 0.567-0.749 1.134-1.287 1.7-1.613 0.967-0.554 2.05-0.88 3.25-0.978l-3-0.294c-1.333-0.521-1.833-1.254-1.5-2.199 0.3-0.881 1.084-1.467 2.351-1.76 0.6-0.164 1.899-0.31 3.899-0.44 1.601-0.098 2.851-0.375 3.75-0.831 0.101 0.521 0.033 1.124-0.2 1.809-0.199 0.62-0.483 1.157-0.85 1.614-0.169 0.227-0.585 0.537-1.252 0.927z" clip-rule="evenodd" fill="#2C4203" fill-rule="evenodd"/>
		<path d="m56.1 60.072c0.066 0.424 0.017 1.061-0.149 1.907-0.167 0.88-0.217 1.548-0.15 2.004 0.134 0.782 0.533 1.287 1.2 1.516 0.399 0.163 1.05 0.277 1.95 0.343 0.1 1.238-0.2 2.33-0.9 3.275-1.333 1.923-4.316 2.884-8.95 2.884-1.633 0.065-2.934 0.065-3.899 0-1.767-0.097-2.917-0.473-3.45-1.124l1.35-0.098c0.934 0.131 1.601 0.195 2 0.195 1.334 0 2.667-0.049 4-0.146 0.4 0 1.601-0.033 3.601-0.098 1.8-0.195 2.6-0.701 2.399-1.516-0.267 0.033-0.533-0.033-0.8-0.195-0.267-0.131-0.5-0.196-0.7-0.196-0.233 0.033-0.566 0.147-1 0.342-0.5 0.295-0.833 0.457-1 0.489-0.566 0.229-1.2 0.375-1.899 0.44-0.801 0.064-1.434 0-1.9-0.196 0.866-0.325 2.184-0.814 3.95-1.466-0.967-0.098-2.05-0.114-3.25-0.049l0.6-0.538c0.367-0.293 0.884-0.88 1.55-1.76 0.567-0.749 1.134-1.287 1.7-1.613 0.967-0.554 2.05-0.88 3.25-0.978l-3-0.294c-1.066-0.391-1.6-0.978-1.6-1.76 0.633 0.163 1.3 0.57 2 1.223 0.166-0.099 0.316-0.229 0.45-0.392 0.166-0.229 0.316-0.406 0.449-0.537 0.464-0.456 1.198-1.009 2.198-1.662z" clip-rule="evenodd" fill="#233602" fill-rule="evenodd"/>
	<path d="m56.7 62.175c0.533-0.358 0.983-0.57 1.35-0.636 0.7-0.13 1.684-0.162 2.95-0.098 0.133 0 1.116 0.082 2.95 0.245 1.166 0.13 2.55 0.488 4.149 1.075 0.767 0.293 2.084 0.864 3.95 1.711 1.4 0.619 2.816 1.531 4.25 2.737 0.366 0.326 1.566 1.467 3.6 3.422-2.267-0.781-5.233-1.156-8.899-1.124-4.101 0.13-7.134 0.146-9.101 0.049-1.5-0.097-2.5-0.179-3-0.244-1.3-0.195-2.233-0.537-2.8-1.026-0.533-0.456-0.85-1.093-0.95-1.907-0.025-0.129-0.043-0.601-0.05-1.418-0.095 0.723-0.494 1.341-1.2 1.858-0.566 0.391-1.533 0.814-2.899 1.271-1.167 0.391-2.483 0.636-3.95 0.732-0.634 0.033-2 0.049-4.1 0.049-3.134 0-5.483-0.261-7.051-0.781-1.267-0.457-2.3-0.994-3.1-1.614-1.167-0.912-1.667-1.89-1.5-2.934 1.233 0.945 3.233 1.418 6 1.418 1.033 0.033 2.033-0.081 3-0.342 0.333-0.098 1.283-0.407 2.85-0.929 2.733-0.913 5.767-1.206 9.101-0.88 0.434 0.065 0.967 0.163 1.6 0.294 0.533 0.097 1.033 0.049 1.5-0.147 0.266-0.097 0.716-0.357 1.35-0.781z" clip-rule="evenodd" fill="#334B04" fill-rule="evenodd"/>
		<path d="m55.35 62.957c0.267-0.098 0.717-0.358 1.351-0.782 0.533-0.358 0.983-0.57 1.35-0.636 0.7-0.13 1.684-0.162 2.95-0.098 0.133 0 1.116 0.082 2.95 0.245l0.699 0.097c0.034 0.359-0.399 0.701-1.3 1.027-1.033 0.391-1.616 0.685-1.75 0.88 0.2 0.065 0.517 0.113 0.95 0.147 0.366 0.064 0.667 0.178 0.9 0.342-0.934 0.097-1.601 0.244-2 0.439-0.034 0.13-0.034 0.245 0 0.342 1.533 0.555 3.583 1.157 6.149 1.81 0.467 0.13 1.684 0.521 3.65 1.173 1.533 0.489 2.767 0.815 3.7 0.978-1.233 0.163-2.733 0.082-4.5-0.244-0.101-0.032-1.617-0.391-4.551-1.075 0.434 0.325 1.051 0.668 1.851 1.026 1.066 0.456 1.733 0.75 2 0.88l-6.4 0.098c-2.467-0.521-4.133-0.814-5-0.879l-2-0.245-0.25-0.195c-0.733-0.62-1.066-1.695-1-3.227-0.133 0.782-0.649 1.434-1.55 1.956-0.467 0.293-1.316 0.65-2.55 1.075-1.167 0.391-2.483 0.636-3.95 0.732-0.634 0.033-2 0.049-4.1 0.049-3.134 0-5.483-0.261-7.051-0.781-1.133-0.392-2.116-0.897-2.949-1.516-1.101-0.848-1.667-1.744-1.7-2.689 0.2 0.587 0.467 1.027 0.8 1.32 0.566 0.521 1.5 1.157 2.8 1.906 1.134 0.945 2.717 1.369 4.75 1.271 2.967-0.163 4.967-0.31 6-0.44 3.066-0.358 4.55-0.912 4.45-1.661l-2.95-0.05v-0.439h-6.149c-1.134 0.032-2.017 0.049-2.65 0.049-1.167-0.032-2-0.212-2.5-0.538 0.267-0.033 1.616-0.049 4.05-0.049 1.667-0.033 3.017-0.179 4.05-0.439-1.5 0-2.683-0.066-3.55-0.196l2.8-0.929c2.733-0.913 5.767-1.206 9.101-0.88 0.434 0.065 0.967 0.163 1.6 0.294 0.532 0.096 1.032 0.048 1.499-0.148z" clip-rule="evenodd" fill="#283C03" fill-rule="evenodd"/>
	<path d="m79.149 3.9c0.567 0.978 0.867 2.005 0.9 3.081 0.533-0.913 0.816-1.891 0.85-2.934-0.1-1.238-0.183-2.232-0.25-2.982 0.134 0.163 0.317 0.863 0.551 2.102 0.133 0.783 0.366 0.815 0.699 0.099 0.101-1.239 0.535-2.331 1.301-3.277-0.101 0.489-0.067 1.093 0.1 1.81 0.033 0.586-0.434 1.108-1.4 1.564-0.166 0.652-0.233 0.994-0.199 1.026 0.866-0.847 1.8-1.466 2.8-1.857-0.134 0.13-0.467 0.635-1 1.515-0.334 0.521-0.884 0.814-1.65 0.88v0.098l-0.8 1.515c0.667-0.489 1.333-0.863 2-1.124-0.167 0.13-0.517 0.651-1.05 1.564-0.3 0.521-0.851 0.814-1.65 0.88l-1 1.564c0.8-0.685 1.7-1.222 2.7-1.614-0.034 0.035-0.451 0.67-1.251 1.908-0.434 0.62-1.184 0.945-2.25 0.978l-1.35 1.955c1.333-0.814 2.683-1.368 4.05-1.662-0.033 0.033-0.667 0.604-1.9 1.711-0.633 0.587-1.5 0.799-2.6 0.636l-1.2 1.662 4.55-2.054c-0.666 0.457-1.483 1.092-2.45 1.907-0.8 0.62-1.716 0.961-2.75 1.026l-0.949 1.321 4.3-1.907c-0.667 0.457-1.467 1.092-2.4 1.907-0.8 0.619-1.684 0.961-2.649 1.026l-0.95 1.222 4.1-1.809c-0.633 0.456-1.416 1.075-2.35 1.857-0.8 0.62-1.65 0.978-2.55 1.076l-1.5 2.053 4.649-2.297c-0.733 0.554-1.616 1.303-2.649 2.249-0.9 0.75-1.884 1.206-2.95 1.368l-0.65 0.88 1.8-0.88 0.601-0.439-0.2 0.244 2.15-1.076c-0.434 0.327-1.15 0.945-2.15 1.858-0.733 0.651-1.366 1.107-1.9 1.368-0.899 0.945-1.683 1.581-2.35 1.907l-0.8 1.222c2.3-1.662 4.233-2.901 5.8-3.715-0.866 0.75-1.983 1.825-3.35 3.227-1.2 1.141-2.434 1.972-3.7 2.493l-1.8 3.129c3.433-2.053 5.316-3.178 5.649-3.374 2.066-1.172 3.95-2.102 5.65-2.786-2.834 4.074-6.8 6.519-11.9 7.333-0.666 1.206-1.383 2.689-2.149 4.449 3.5-2.118 6.1-3.667 7.8-4.645 2.899-1.662 5.45-2.9 7.649-3.715-3.866 4.791-9.166 7.936-15.899 9.436l-1.15 3.128c4.167-2.379 7.233-4.09 9.2-5.133 3.366-1.76 6.333-2.934 8.9-3.52-2.034 3.259-4.7 5.704-8 7.333-3.134 1.563-6.601 2.281-10.4 2.151-0.467 1.467-0.917 3.096-1.35 4.889 4.5-2.412 7.8-4.14 9.899-5.182 3.634-1.794 6.8-2.918 9.5-3.374-2.3 3.552-5.2 6.127-8.7 7.724-3.433 1.598-7.05 2.119-10.85 1.565-0.4 1.955-0.7 3.976-0.9 6.062 4.534-2.999 7.851-5.149 9.95-6.453 3.634-2.281 6.851-3.813 9.65-4.596-2.101 3.846-4.9 6.796-8.4 8.85-3.467 2.021-7.233 2.981-11.3 2.884-0.134 1.825-0.184 3.716-0.15 5.671 4.931-3.42 8.548-5.898 10.848-7.429 3.934-2.607 7.383-4.417 10.35-5.427-2.233 4.14-5.25 7.382-9.05 9.729-3.6 2.249-7.634 3.504-12.1 3.765l0.1 2.737c-0.767-0.717-0.7-0.229 0.2 1.467-6.733-10.396-9.601-20.858-8.601-31.386 1.367 3.03 2.65 7.186 3.851 12.466 2 8.637 3.066 13.184 3.2 13.641 0-3.814-0.967-9.127-2.9-15.938-1.767-6.127-2.417-11.114-1.95-14.96 0.967 2.25 1.934 5.248 2.9 8.996 1.566 6.29 2.366 9.501 2.399 9.632 0.733-3.194 0.267-7.089-1.399-11.685-1.7-4.759-2.3-8.572-1.8-11.44 0.966 2.021 1.899 4.791 2.8 8.311 1.233 4.889 2.017 7.838 2.35 8.849 1.066-2.705 0.884-5.916-0.55-9.631-1.566-3.976-2.05-7.171-1.45-9.582 0.767 1.629 1.483 3.96 2.15 6.991 0.866 3.749 1.483 6.209 1.85 7.381 1-2.346 0.884-5.067-0.35-8.164-1.367-3.357-1.8-6.079-1.3-8.164 0.566 1.369 1.166 3.34 1.8 5.916 0.733 2.966 1.3 5.035 1.7 6.208 0.966-2.085 0.983-4.432 0.05-7.04-1-2.705-1.134-5.051-0.4-7.039 0.3 2.249 1.084 5.556 2.351 9.923 1.3-2.64 1.416-6.16 0.35-10.56 0.5 1.76 1.083 4.074 1.75 6.942 0.6-0.879 0.884-2.134 0.85-3.764-0.133-1.858-0.216-3.162-0.25-3.911 0.334 1.01 0.767 2.722 1.301 5.133 0.566-0.75 0.866-1.858 0.899-3.325-0.1-1.695-0.166-2.884-0.2-3.568 0.301 0.651 0.7 2.151 1.2 4.498 0.867-1.075 1.351-2.33 1.45-3.764 0-0.327-0.083-1.662-0.25-4.009 0.333 0.945 0.767 2.526 1.3 4.743 0.566-0.685 0.834-1.646 0.8-2.885-0.133-1.434-0.233-2.493-0.3-3.177 0.267 0.685 0.65 2.053 1.15 4.106 0.7-0.815 1.05-1.826 1.05-3.032-0.167-1.433-0.283-2.542-0.35-3.324 0.199 0.586 0.6 1.956 1.199 4.107 0.934-1.076 1.467-2.151 1.601-3.228 0-0.162-0.033-1.303-0.101-3.422 0.567 1.043 0.884 2.216 0.95 3.521 0.601-0.782 0.917-1.711 0.95-2.787 0.033-0.163 0-1.156-0.1-2.982 0.6 1.01 0.916 2.103 0.949 3.276 0.634-0.88 0.967-1.81 1-2.787-0.099-1.175-0.182-2.136-0.25-2.886z" clip-rule="evenodd" fill="#293F03" fill-rule="evenodd"/>
		<g clip-rule="evenodd" fill="#213202" fill-rule="evenodd">
			<path d="m67 45.309c0.333-0.131 0.916-0.392 1.75-0.781 0.733-0.295 1.283-0.408 1.649-0.343-0.066 0.195-0.566 0.57-1.5 1.124-1.533 0.945-2.8 1.629-3.8 2.053-1.3 0.588-2.283 1.011-2.95 1.271-1.133 0.456-2.133 0.749-3 0.88-1.033 0.131-1.933 0.44-2.699 0.93h-0.15v0.097l-0.35 0.294c0.033-0.229 0.083-0.391 0.149-0.489 0.066-0.162 0.267-0.407 0.601-0.733l2.949-1.516c0.667-0.228 1.65-0.537 2.95-0.929l4.401-1.858z"/>
			<path d="m62.3 52.936c1.866-0.913 3.25-1.63 4.15-2.151 0.3-0.162 0.933-0.424 1.899-0.782 0.512-0.206 1.203-0.613 2.075-1.223-0.464 0.358-1.089 0.961-1.875 1.809-1.267 1.174-2.866 2.348-4.8 3.521-1.8 1.075-3.517 1.809-5.15 2.2l-1.45 0.44 0.101 0.391-1.95 0.049c-0.134 1.825-0.184 3.716-0.15 5.671l0.25-0.146 5.4-3.716c1.134-0.619 1.917-1.01 2.35-1.173 0.9-0.326 2.233-0.848 4-1.564 1.867-0.587 3.184-1.271 3.95-2.054-1.8 2.021-4.616 4.106-8.45 6.258-1.133 0.651-2.616 1.336-4.449 2.053l-0.851 0.294-0.1 0.488-2.05 0.196 0.1 2.737-0.2-0.195c-0.066-0.326-0.283-1.06-0.649-2.199-0.301-0.881-0.483-1.614-0.551-2.2v-0.881c0-0.488 0.117-1.418 0.351-2.786 0.066-0.358 0.25-0.945 0.55-1.761 0.3-0.781 0.467-1.368 0.5-1.76 0-0.195-0.05-0.586-0.15-1.173-0.066-0.489-0.066-0.863 0-1.124 0.101-0.489 0.367-0.93 0.801-1.32 0 0.098 0.033 0.424 0.1 0.978-0.333 1.858-0.533 3.324-0.6 4.399l-0.051 0.294 2.9-1.809 0.05-0.049c1.798-0.719 3.116-1.289 3.949-1.712z"/>
			<path d="m65.649 40.616c0.567-0.327 1.384-0.881 2.45-1.663 0.233-0.163 0.55-0.343 0.95-0.537 0.434-0.229 0.75-0.408 0.95-0.539-1.267 1.304-2.4 2.25-3.4 2.835-1.066 0.587-2.316 1.19-3.75 1.809-0.3 0.131-1.017 0.505-2.149 1.125-0.867 0.489-1.584 0.798-2.15 0.929l-0.1 0.245h-0.65c-0.434 1.368-0.833 2.818-1.2 4.351l-0.45 0.782 0.2-0.392-0.75 0.685c0.267-0.554 0.467-1.303 0.601-2.248 0.166-1.043 0.333-1.776 0.5-2.2 0.199-0.587 0.366-0.962 0.5-1.125 0.233-0.293 0.466-0.456 0.699-0.488 0.134-0.033 0.384-0.065 0.75-0.098 1.034-0.196 2.233-0.669 3.601-1.418 0.599-0.326 1.732-1.011 3.398-2.053z"/>
			<path d="m57.45 44.038c0.166-0.261 0.3-0.62 0.399-1.076 0.167-0.554 0.283-0.913 0.351-1.075l0.6-1.174 0.45 0.196-1.101 2.885c-0.333 0.194-0.566 0.276-0.699 0.244z"/>
			<path d="m70.3 34.798c0.536-0.204 0.952-0.44 1.25-0.709-1.266 1.205-2.499 2.093-3.7 2.665-1.033 0.554-1.95 0.945-2.75 1.174-0.333 0.129-0.8 0.277-1.399 0.439-0.601 0.326-1.084 0.555-1.45 0.685-0.733 0.293-1.283 0.375-1.65 0.244l0.15-0.097c0.1-0.099 0.6-0.457 1.5-1.076 0.566-0.261 0.967-0.456 1.2-0.586l1.449-0.636c0.467-0.162 1.15-0.39 2.051-0.684 0.399-0.196 1-0.505 1.8-0.929 0.332-0.1 0.849-0.262 1.549-0.49z"/>
			<path d="m66.35 32.109c0.4-0.293 0.967-0.62 1.7-0.978 1.233-0.554 1.967-0.832 2.2-0.832-0.767 0.75-1.834 1.5-3.2 2.25-0.967 0.586-1.983 1.108-3.05 1.564l-1.15 0.44 0.7-0.44c0.5-0.196 0.866-0.375 1.1-0.538 0.733-0.684 1.3-1.173 1.7-1.466z"/>
			<path d="m60.7 36.802c0.733-1.108 1.267-1.76 1.6-1.956l0.55-0.342c-0.333 0.228-0.6 0.489-0.8 0.782h-0.2c-0.934 1.857-1.517 3.079-1.75 3.666v0.049c0.033 0.098-0.066 0.31-0.3 0.636-0.467 0.391-0.783 0.587-0.95 0.587 0-0.424 0.217-0.994 0.65-1.711 0.1-0.196 0.5-0.765 1.2-1.711z"/>
			<path d="m62.2 32.451c0.6-0.978 1.199-1.646 1.8-2.004l0.25 0.489c-0.033 0.358-0.117 0.62-0.25 0.782-0.066 0.065-0.184 0.18-0.351 0.343l-0.399 0.489-0.5 1.124-0.101 0.147-1.25 0.929c-0.033-0.555 0.234-1.321 0.801-2.299z"/>
			<path d="m68 27.807c-0.334 0.392-0.783 0.815-1.351 1.271-0.767 0.587-1.333 0.88-1.699 0.88 0.666-0.554 1.149-0.945 1.449-1.173 0.535-0.425 1.068-0.75 1.601-0.978z"/>
			<path d="m64.1 29.566c0.134-0.195 0.5-0.603 1.101-1.222 0.5-0.521 0.8-0.961 0.899-1.319h0.1c0.1 0.325 0.133 0.521 0.1 0.586-0.066 0.327-0.25 0.636-0.55 0.929l-0.25 0.489c-0.467 0.261-0.934 0.44-1.4 0.537z"/>
			<path d="m66.149 26.829c0.067-0.293 0.483-0.668 1.25-1.124 0.767-0.457 1.284-0.668 1.551-0.636-0.2 0.261-0.634 0.554-1.301 0.88-0.666 0.651-1.149 1.01-1.449 1.075l-0.051-0.195z"/>
			<path d="m69.25 23.261c0.434-0.457 1.184-0.848 2.25-1.173-0.934 0.913-1.584 1.271-1.95 1.075l-0.3 0.098z"/>
			<path d="m67.7 24.776c0.399-0.456 0.666-0.798 0.8-1.026l0.399 0.293-0.3 0.44c-0.366 0.293-0.665 0.391-0.899 0.293z"/>
			<path d="m70 22.527c-0.3 0.293-0.601 0.456-0.9 0.489 0.134-0.294 0.5-0.717 1.101-1.271 0.5-0.521 0.8-0.961 0.899-1.32l0.101 0.489-1.201 1.613z"/>
			<path d="m73.8 19.251c-0.1 0.065-0.35 0.228-0.75 0.489-0.366 0.228-0.65 0.293-0.85 0.196 0.966-0.424 1.5-0.652 1.6-0.685z"/>
			<path d="m72.05 19.789c0.434-0.944 0.833-1.532 1.2-1.76l0.2-0.146c-0.087 0.096-0.17 0.243-0.25 0.439l0.05 0.099c-0.101 0.13-0.267 0.309-0.5 0.538-0.167 0.228-0.267 0.505-0.3 0.831-0.067 0.032-0.2 0.032-0.4-1e-3z"/>
			<path d="m73.649 17.688l0.2-0.049c0.2-0.066 0.601-0.278 1.2-0.636 0.467-0.261 0.85-0.424 1.15-0.489-0.867 0.586-1.551 0.945-2.051 1.075l-0.499 0.099z"/>
			<path d="m75.55 15.145c0.4-0.097 0.65-0.178 0.75-0.244l0.65-0.439c0.267-0.196 0.5-0.294 0.699-0.294-0.433 0.457-1.133 0.896-2.1 1.32-0.3 0.098-0.5 0.229-0.6 0.391h-0.051l-0.85 1.173-0.448 0.048c0.467-0.391 0.783-0.717 0.95-0.978 0.1-0.326 0.2-0.554 0.3-0.684 0.1-0.098 0.334-0.195 0.7-0.293z"/>
			<path d="m76.7 13.385l-1.1 1.515-0.25 0.098c-0.066-0.196 0.066-0.473 0.4-0.832 0.399-0.423 0.649-0.7 0.75-0.831l0.2 0.05z"/>
			<path d="m77.3 13.043l0.45-0.196c0.666-0.424 1.116-0.62 1.35-0.586-0.233 0.26-0.517 0.439-0.85 0.538-0.367 0.097-0.684 0.179-0.95 0.244z"/>
			<path d="m77.05 12.7c0.033-0.162 0.167-0.423 0.4-0.782 0.233-0.391 0.383-0.651 0.449-0.782l0.601-0.733 0.2 0.293h-0.15l-1.35 1.955-0.15 0.049z"/>
			<path d="m79.05 9.963l0.65-0.293c0.566-0.489 1.083-0.814 1.55-0.978-0.134 0.293-0.434 0.603-0.9 0.929-0.534 0.358-0.967 0.473-1.3 0.342z"/>
			<path d="m79.75 8.741l-0.101 0.098 0.051 0.049-0.15 0.244-0.7 0.342c-0.033-0.13 0.334-0.685 1.101-1.663 0.8-0.879 1.449-1.417 1.949-1.613 0.1 0.163-0.017 0.375-0.35 0.636-0.2 0.163-0.467 0.343-0.8 0.538l-0.351 0.439-0.05 0.05-0.599 0.88z"/>
			<path d="m81.649 5.123c0.134-0.293 0.334-0.586 0.601-0.879 0.333-0.392 0.616-0.571 0.85-0.538-0.166 0.423-0.399 0.733-0.7 0.928-0.133 0.033-0.25 0.131-0.35 0.294h-0.2v0.098l-0.65 1.222-0.4 0.342c0.033-0.195 0.316-0.684 0.849-1.467z"/>
			<path d="m82.649 1.652c0.301 0.065 0.384 0.293 0.25 0.685-0.133 0.358-0.316 0.636-0.55 0.831l-0.1 0.099c-0.232-0.295-0.1-0.833 0.4-1.615z"/>
			<path d="m48 43.598l0.3 0.489c0.366 0.685 0.65 1.434 0.85 2.248 0.067 0.261 0.134 0.831 0.2 1.712 0.066 0.749 0.15 1.319 0.25 1.711 0.134 0.488 0.5 1.434 1.101 2.836 0.267 0.521 0.399 1.368 0.399 2.541-0.033 1.304 0.05 2.2 0.25 2.689 0.134 0.392 0.584 1.042 1.351 1.955 0.466 0.554 0.683 0.962 0.649 1.223-1.233-0.945-2.166-2.298-2.8-4.059-0.366-1.075-0.733-2.802-1.1-5.182-0.034-0.162-0.084-1.107-0.15-2.835-0.033-1.108-0.2-1.989-0.5-2.64-0.267-0.619-0.533-1.515-0.8-2.688z"/>
			<path d="m51.7 39.883l0.85 2.981c0.167 0.848 0.233 1.613 0.2 2.298-0.066 1.076 0.116 2.526 0.55 4.351 0.066 0.261 0.2 0.685 0.4 1.271 0.1 0.554 0.033 1.042-0.2 1.467-0.434-0.782-0.8-1.891-1.101-3.324-0.267-1.63-0.483-2.819-0.649-3.569-0.3-1.303-0.5-2.297-0.601-2.981-0.233-1.142-0.399-1.842-0.5-2.103-0.767-1.924-1.1-3.422-1-4.498l0.25 0.635c-0.1 0.196-0.066 0.408 0.101 0.636 0.1 0.131 0.267 0.293 0.5 0.489 0.3 0.488 0.7 1.271 1.2 2.347z"/>
			<path d="m51.8 31.473l0.05-0.733c0.767 0.717 1.351 1.743 1.75 3.08l1.351 5.329 0.049 0.342c0.1 0.554 0.149 1.418 0.149 2.591 0 1.141 0.034 1.988 0.101 2.542-1.033-2.868-1.8-5.002-2.3-6.404-0.134-0.391-0.45-1.564-0.95-3.52-0.334-1.401-0.4-2.477-0.2-3.227z"/>
			<path d="m55.45 31.473c-0.334-1.042-0.483-1.939-0.45-2.688l0.1 0.293c0.434 0.522 0.816 1.092 1.15 1.711l1.149 5.036c0.067 0.325 0.084 0.603 0.051 0.831 0 0.131-0.067 0.62-0.2 1.467-0.101 0.619-0.117 1.108-0.05 1.467l-0.1-0.392c-0.066-0.782-0.283-1.76-0.649-2.934l-0.301-2.151c-0.067-0.424-0.3-1.303-0.7-2.64z"/>
			<path d="m57.75 30.643c-0.233-1.467-0.517-2.656-0.851-3.569l0.15-0.195c0.1 0.783 0.684 1.858 1.75 3.227l0.95 3.471c0 1.075-0.217 1.988-0.65 2.738 0.066-0.945-0.05-1.923-0.35-2.934-0.166-0.587-0.499-1.5-0.999-2.738z"/>
			<path d="m59.75 25.362c-0.167-0.521-0.167-0.879 0-1.075l-0.05-0.244c0.1 0.325 0.433 0.814 1 1.466l0.05 0.098 0.25 1.124v1.32c0 0.327 0.05 0.636 0.149 0.929 0.034 0.13 0.167 0.358 0.4 0.685 0.2 0.293 0.316 0.521 0.35 0.685 0 0.293-0.133 0.635-0.399 1.026l-0.45 0.782c0.033-0.814-0.05-1.613-0.25-2.396 0-0.847-0.033-1.467-0.1-1.857-0.267-0.652-0.434-1.141-0.5-1.467-0.2-0.423-0.35-0.783-0.45-1.076z"/>
			<path d="m63.1 28.638c0.267-1.369 0.467-2.216 0.601-2.542 0.5 0.521 0.416 1.108-0.25 1.76l-0.351 0.782z"/>
			<path d="m65.149 22.918c0.733 0.587 0.801 1.304 0.2 2.151l-0.2-0.342c0.068-0.587 0.068-1.189 0-1.809z"/>
			<path d="m67.399 22.918c-0.133-0.13-0.233-0.375-0.3-0.733-0.033-0.358 0-0.668 0.101-0.929 0.366 0.424 0.416 0.832 0.149 1.223l0.05 0.439z"/>
			<path d="m69.35 19.839c0.388-0.568 0.513-0.985 0.375-1.247 0.147 0.26 0.172 0.644 0.075 1.148-0.066 0.554-0.3 0.88-0.7 0.978l0.25-0.879z"/>
			<path d="m71.6 16.417c0.3 0.228 0.45 0.489 0.45 0.782 0.033 0.325-0.134 0.602-0.5 0.831l-0.25-0.196 0.05-0.097 0.101 0.097c-0.035-0.326 0.016-0.799 0.149-1.417z"/>
			<path d="m73.3 14.706c0.1 0.228 0.15 0.473 0.15 0.733-0.034 0.325-0.15 0.554-0.351 0.684l-0.05-0.098c0.1-0.293 0.184-0.733 0.251-1.319z"/>
			<path d="m77.6 8.789l0.25-0.293c0.3 0.228 0.434 0.571 0.4 1.026-0.033 0.457-0.2 0.815-0.5 1.076-0.2-0.196-0.267-0.538-0.2-1.026v-0.635l0.05-0.148z"/>
			<path d="m79.6 6.736c0.066 0.424-0.017 0.75-0.25 0.978l-0.05-0.097c0.066-0.522 0.083-0.913 0.05-1.173l0.101-0.196-0.101-0.293v-0.049c0.167 0.489 0.25 0.765 0.25 0.83z"/>
		</g>
	<path d="m0.149 6.834c1.167 0.749 2.017 1.727 2.551 2.933l0.05 0.05c-1.101-0.131-1.75-0.505-1.95-1.125-0.1-0.782-0.317-1.402-0.651-1.858zm11.5 11.488c-0.965 0.555-1.849 0.653-2.649 0.294-1.634-0.75-2.467-1.125-2.5-1.125 1.434-0.196 2.916-0.081 4.45 0.342l-2.051-1.563c-1 0.358-1.816 0.277-2.449-0.245-1.233-0.945-1.9-1.434-2-1.466 1.199 0.065 2.25 0.293 3.149 0.685l-1.55-1.321c-0.733 0.229-1.366 0.131-1.9-0.293-0.899-0.75-1.433-1.157-1.6-1.222 0.767 0.032 1.533 0.179 2.3 0.44l-1.399-1.271v-0.099c-0.733 0.196-1.35 0.082-1.85-0.342-0.9-0.749-1.434-1.157-1.6-1.222 1.2 0.097 2.333 0.408 3.399 0.929 0-0.033-0.216-0.375-0.649-1.026 0.595 0.563 0.794 0.432 0.6-0.392-0.3-1.369-0.416-2.167-0.35-2.396 0.267 0.782 0.6 1.826 1 3.129 0.434 1.075 1.083 2.004 1.95 2.786-0.367-1.206-0.5-2.378-0.4-3.52 0.267 0.782 0.6 1.809 1 3.08 0.434 1.01 1.116 1.857 2.05 2.542-0.434-1.206-0.6-2.444-0.5-3.715 0.667 1.891 1.05 2.917 1.15 3.079 0.5 1.109 1.184 1.956 2.05 2.543-0.5-1.304-0.7-2.624-0.6-3.96 0.833 2.249 1.283 3.438 1.35 3.568 0.566 1.076 1.517 2.021 2.85 2.836-0.366-2.542-0.566-4.107-0.6-4.693 0.267 0.814 0.616 1.988 1.05 3.52 0.5 1.271 1.233 2.2 2.2 2.786-0.167-1.043-0.3-1.825-0.4-2.346-0.133-0.88-0.199-1.646-0.199-2.298 0.233 0.717 0.583 1.842 1.05 3.374 0.467 1.304 1.116 2.216 1.95 2.738-0.434-2.346-0.7-4.156-0.801-5.427 0.767 2.444 1.25 3.862 1.45 4.254 0.667 1.467 1.634 2.607 2.9 3.422-0.467-2.444-0.717-4.139-0.75-5.084 0.267 0.717 0.7 1.956 1.3 3.715 0.634 1.531 1.384 2.591 2.25 3.177-0.434-2.02-0.75-3.959-0.95-5.817 0.267 0.815 0.717 2.216 1.351 4.204 0.666 1.695 1.466 2.884 2.399 3.569-0.6-3.259-1.017-5.866-1.25-7.822 0.867 5.02 2.417 8.62 4.65 10.804-0.5-4.66-1.134-8.343-1.9-11.048 1.5 1.792 2.367 4.269 2.601 7.431 0.199 3.032 1.166 5.46 2.899 7.284-0.1-1.335-0.434-3.683-1-7.04-0.467-2.9-0.717-5.182-0.75-6.845 1.367 1.989 2.101 4.987 2.2 8.996 0.1 3.65 1.1 6.502 3 8.556-0.134-1.369-0.583-4.139-1.35-8.311-0.634-3.39-0.917-6.063-0.851-8.018 1.566 2.314 2.45 5.801 2.65 10.462 0.2 4.367 1.35 7.773 3.45 10.217-0.101-1.042-0.584-4.399-1.45-10.07-0.634-3.976-0.917-7.187-0.851-9.631 1.667 2.803 2.684 6.975 3.051 12.516 0.366 5.344 1.533 9.549 3.5 12.612-0.034-0.293-0.601-3.911-1.7-10.853-0.667-4.204-1.017-7.643-1.05-10.315 2.033 3.845 3.5 9.255 4.399 16.23 1.033 7.757 2.334 13.607 3.9 17.551-0.033-0.359-0.934-5.46-2.7-15.302-1.031-5.899-1.548-10.657-1.548-14.274 5.267 10.461 6.916 22.341 4.95 35.639 0.166-2.087 0.017-2.624-0.45-1.614l-0.95-2.884c-4.267 1.304-8.566 1.434-12.9 0.392-4.533-1.076-8.683-3.374-12.449-6.894 3.166-0.033 7.133 0.619 11.899 1.956 2.767 0.749 7.15 2.036 13.15 3.861-0.834-2.249-1.65-4.188-2.45-5.817-3.767 1.531-7.667 1.857-11.7 0.978-4.133-0.88-7.983-2.949-11.55-6.209 1.985-0.111 4.319 0.067 7 0.538-3.259-0.696-6.425-2.244-9.5-4.645 2.7-0.521 6.116-0.473 10.25 0.146 2.4 0.326 6.184 0.945 11.35 1.858-0.933-1.5-2.033-3.048-3.3-4.645-3.467 1.499-7 1.988-10.6 1.467-3.767-0.522-7.267-2.103-10.5-4.742 2.666-0.326 5.934-0.163 9.8 0.488 2.267 0.359 5.833 1.026 10.7 2.004l-2.4-2.786c-6.866 0.814-13.1-0.569-18.7-4.155 2.4 0.065 5.284 0.44 8.65 1.125 2 0.423 5.083 1.124 9.25 2.102-1.434-1.531-2.733-2.835-3.9-3.911-5.066 0.945-9.767-0.162-14.1-3.324 1.833 0.098 3.967 0.391 6.4 0.879 1.466 0.293 3.699 0.782 6.699 1.467l-3-2.59c-1.399-0.099-2.899-0.522-4.5-1.272-1.833-0.978-3.316-1.711-4.449-2.2 1.933 0.359 4.25 0.962 6.949 1.81l-1.25-0.978c-0.966-0.131-1.949-0.521-2.949-1.174-0.634-0.065-1.434-0.309-2.4-0.733-1.333-0.586-2.25-0.961-2.75-1.125l2.5 0.343-0.35-0.147 0.75 0.196 2.05 0.293-0.95-0.733c-1.033 0.229-2.134 0.115-3.3-0.342-1.367-0.652-2.517-1.125-3.45-1.418l5.3 0.733-2.25-1.614c-0.866 0.229-1.8 0.18-2.8-0.146-1.2-0.521-2.2-0.896-3-1.125l4.6 0.44-1.4-0.977c-0.934 0.293-1.9 0.261-2.9-0.097-1.2-0.522-2.2-0.896-3-1.125l4.8 0.44-1.449-0.978c-0.967 0.293-1.967 0.261-3-0.098-1.2-0.521-2.217-0.896-3.051-1.124l5.101 0.489-1.852-1.321zm34.401 31.24c-3.3 1.923-6.866 2.689-10.7 2.299-0.263-0.032-0.529-0.064-0.8-0.099 0.948 0.175 1.932 0.387 2.95 0.636 2.5 0.619 6.483 1.679 11.95 3.178-1-1.989-2.134-3.994-3.4-6.014z" clip-rule="evenodd" fill="#354E05" fill-rule="evenodd"/>
		<g clip-rule="evenodd" fill="#293F03" fill-rule="evenodd">
			<path d="m39.899 49.807c-0.166 0-1.25-0.098-3.25-0.294-1.267-0.097-2.75-0.342-4.449-0.733-0.4-0.097-0.733-0.179-1-0.244-0.434-0.163-0.717-0.31-0.851-0.44 0.3-0.195 0.867-0.261 1.7-0.195 0.467 0.033 1.116 0.099 1.95 0.195l4.899 0.343c0.367 0.033 1.384 0 3.051-0.098l3.399 0.537c0.369 0.162 0.652 0.342 0.852 0.538 0.066 0.064 0.183 0.211 0.35 0.438l-0.4-0.146-0.1-0.147-0.15 0.099c-0.966-0.229-1.916-0.229-2.85 0-0.866 0.162-1.917 0.211-3.151 0.147z"/>
			<path d="m47.85 50.931c0.167 0.261 0.316 0.669 0.45 1.223 0.167 0.618 0.3 1.043 0.4 1.271 0.199 0.392 0.583 0.93 1.149 1.614 0.634 0.717 1.05 1.254 1.25 1.612 0.767 1.369 1.267 2.314 1.5 2.836l0.351 0.879c0.199 0.652 0.35 1.483 0.449 2.494 0.101 1.304 0.184 2.135 0.25 2.493l-0.149 0.293-0.95-2.884-2.05 0.488-0.3-0.439-0.9-0.049c-1.733-0.065-3.4-0.229-5-0.489-4.333-0.847-7.816-2.021-10.45-3.52 1.066 0.554 2.584 0.798 4.55 0.733 0.934 0 2.4 0.064 4.4 0.195 0.733 0.033 1.6 0.163 2.6 0.391l6.6 1.907 0.25 0.098c-0.834-2.249-1.65-4.188-2.45-5.817l-1.85 0.635-0.051-0.488-1.55 0.098c-1.6 0.163-3.5 0-5.7-0.488-2.233-0.522-4.216-1.142-5.949-1.858-1.301-0.782-2.233-1.238-2.801-1.369 0.167 0.033 0.634 0.163 1.4 0.392 0.566 0.131 1.017 0.212 1.35 0.244 0.9 0 1.601 0.049 2.101 0.147 1.066 0.228 2.649 0.473 4.75 0.733 0.967 0.162 2.434 0.293 4.399 0.391h0.101l3.45 0.88-2.551-4.645h-0.05c-0.066-0.488-0.166-0.848-0.3-1.076 0.534 0.259 0.968 0.619 1.301 1.075z"/>
			<path d="m41.55 44.331c-0.566 0.065-1.366-0.017-2.4-0.244-1.267-0.229-2.083-0.359-2.449-0.392-1.4-0.098-2.817-0.277-4.25-0.538-1.067-0.228-2.517-0.798-4.351-1.711 0.533 0.131 1.283 0.261 2.25 0.392 1.233 0.456 2.217 0.75 2.95 0.88 2.134 0.521 3.467 0.831 4 0.929 1.6 0.293 2.917 0.358 3.95 0.195 0.233-0.032 0.483-0.082 0.75-0.146 0.233-0.032 0.517 0.049 0.85 0.244l0.95 0.93c0.333 0.391 0.783 1.108 1.35 2.15 0.567 0.945 1.067 1.663 1.5 2.151l-1-0.488 0.35 0.341-0.7-0.636c-0.833-1.239-1.816-2.607-2.95-4.106l-0.6 0.245-0.2-0.196z"/>
			<path d="m42.35 43.354c-0.1 0.064-0.35 0.064-0.75 0-0.467-0.62-1.2-1.483-2.2-2.592l0.3-0.342 1.05 0.978c0.2 0.196 0.467 0.521 0.8 0.979 0.3 0.455 0.566 0.78 0.8 0.977z"/>
			<path d="m32.7 39.784c-0.967 0-1.983-0.081-3.051-0.244-1.533-0.229-3.083-0.75-4.649-1.564 0.399 0.196 0.934 0.31 1.6 0.342h1.601c0.433 0 1.116 0.099 2.05 0.293h2.25c0.533 0 1.05 0.05 1.55 0.147 0.3 0.064 0.767 0.113 1.4 0.147 0.366 0.13 0.983 0.325 1.85 0.586l0.15 0.098c-0.301 0.261-0.834 0.358-1.601 0.294-0.833-0.099-1.383-0.163-1.649-0.196-0.101 0-0.601 0.033-1.501 0.097z"/>
			<path d="m32.149 35.384c-1.066-0.097-2.233-0.277-3.5-0.538-1.633-0.293-2.933-0.701-3.899-1.222 0.233-0.065 0.616-0.081 1.149-0.049 0.301 0.033 0.717 0.082 1.25 0.146 0.934 0.13 1.584 0.26 1.95 0.391 0.233 0.065 0.617 0.229 1.15 0.489 0.467 0.26 0.833 0.424 1.1 0.489s0.684 0.113 1.25 0.147l0.8 0.195-1.25-0.048z"/>
			<path d="m36.35 36.998c1.8 1.271 2.851 2.249 3.15 2.934-0.134 0.032-0.434-0.065-0.9-0.294-0.2-0.26-0.3-0.439-0.3-0.538v-0.049l-0.3-0.049c-0.867-0.912-1.95-1.955-3.25-3.129l-0.25 0.049c-0.267-0.228-0.634-0.391-1.101-0.489 0.301 0 0.517 0.033 0.65 0.098 0.3 0.065 0.7 0.277 1.2 0.635 0.268 0.196 0.634 0.473 1.101 0.832z"/>
			<path d="m33.149 33.038c0.967 0.814 1.517 1.516 1.65 2.102l-1.55-0.537-0.101-0.147-0.948-0.929-0.551-0.392c-0.233-0.098-0.399-0.18-0.5-0.245-0.199-0.097-0.383-0.326-0.55-0.685 0.033-0.261 0.05-0.473 0.05-0.635 0.701 0.164 1.535 0.653 2.5 1.468z"/>
			<path d="m25.8 30.251c0.6 0.065 1.233 0.212 1.9 0.44 0.399 0.163 1.017 0.408 1.85 0.733-0.333 0.131-0.983 0.016-1.95-0.342-0.701-0.26-1.3-0.538-1.8-0.831z"/>
			<path d="m30.149 30.691c-0.5 0.097-1 0.081-1.5-0.049l-0.449-0.44c-0.367-0.131-0.667-0.375-0.9-0.733-0.066-0.131-0.1-0.358-0.1-0.685h0.05c0.267 0.359 0.733 0.701 1.399 1.026 0.801 0.425 1.301 0.718 1.5 0.881z"/>
			<path d="m27.1 28.589l0.101 0.196c-0.233 0.032-0.551-0.017-0.95-0.146-0.4-0.195-0.7-0.326-0.9-0.391-0.733-0.131-1.25-0.293-1.55-0.489 0.233-0.13 0.8-0.097 1.7 0.098 0.898 0.226 1.433 0.471 1.599 0.732z"/>
			<path d="m22.8 25.998h-0.35c-0.301 0.358-1.051 0.212-2.25-0.44 0.3-0.032 0.733 0 1.3 0.097 0.633 0.066 1.066 0.18 1.3 0.343z"/>
			<path d="m24.85 27.025c-0.166 0.131-0.5 0.131-1 0l-0.45-0.342 0.25-0.44c0.233 0.195 0.633 0.456 1.2 0.782z"/>
			<path d="m21.75 25.461l-1.75-1.223-0.15-0.489c0.233 0.326 0.7 0.651 1.4 0.978 0.8 0.391 1.316 0.717 1.55 0.978-0.333 0.033-0.684-0.05-1.05-0.244z"/>
			<path d="m16.899 23.456c0.367-0.033 0.95 0.016 1.75 0.147-0.133 0.164-0.416 0.196-0.85 0.098-0.466-0.131-0.766-0.212-0.9-0.245z"/>
			<path d="m17.05 22.283c-0.199-0.22-0.383-0.358-0.55-0.417l0.399 0.074c0.434 0.13 1.051 0.62 1.851 1.466-0.141 0.083-0.258 0.132-0.351 0.147-0.166-0.326-0.383-0.587-0.649-0.782-0.3-0.131-0.533-0.261-0.7-0.392v-0.096z"/>
			<path d="m16.399 21.794l-0.55 0.049c-0.333 0.033-0.717 0-1.149-0.098-0.534-0.13-0.934-0.229-1.2-0.293 0.333-0.065 0.783-0.032 1.35 0.099 0.7 0.162 1.134 0.244 1.3 0.244h0.249z"/>
			<path d="m14.3 19.887c0.167 0.098 0.366 0.293 0.6 0.586 0.233 0.196 0.65 0.424 1.25 0.685l-0.399 0.097-1.3-0.879c-0.267-0.13-0.517-0.195-0.75-0.195-1.101-0.098-1.95-0.31-2.551-0.636 0.233-0.065 0.5-0.049 0.801 0.05 0.199 0.065 0.466 0.146 0.8 0.245 0.066 0 0.333-0.017 0.8-0.05 0.365-1e-3 0.615 0.032 0.749 0.097z"/>
			<path d="m11.75 18.372l0.149-0.099c0.167 0.131 0.517 0.327 1.051 0.587 0.466 0.261 0.699 0.505 0.699 0.733h-0.25l-1.649-1.221z"/>
			<path d="m11.05 18.225c-0.467 0.065-0.8 0.097-1 0.097-0.333 0-0.667-0.081-1-0.244 0.333-0.13 0.833-0.082 1.5 0.147h0.5z"/>
			<path d="m11.1 17.833h-0.15l-2.051-1.563h-0.099c-0.033-0.098-0.033-0.212 0-0.342l0.9 0.586c0.033 0.033 0.283 0.245 0.75 0.636 0.333 0.293 0.55 0.521 0.65 0.683z"/>
			<path d="m8.149 15.683c-0.267 0.261-0.716 0.293-1.35 0.098-0.6-0.164-1.017-0.375-1.25-0.636 0.4 0 1.017 0.147 1.85 0.44l0.75 0.098z"/>
			<path d="m4.55 13.336c-0.467-0.164-0.684-0.342-0.65-0.538 0.634 0 1.467 0.325 2.5 0.978 1.101 0.717 1.667 1.173 1.7 1.368l-0.75-0.146-0.25-0.195v-0.049l-0.1-0.048-0.95-0.783h-0.05c-0.267-0.195-0.434-0.293-0.5-0.293-0.4-0.13-0.717-0.229-0.95-0.294z"/>
			<path d="m3.75 11.577c0.7 0.554 1.149 0.961 1.35 1.222l-0.5-0.196-1.15-1.026v-0.099h-0.2l-0.45-0.146c-0.333-0.098-0.684-0.327-1.05-0.685 0.267-0.163 0.934 0.147 2 0.93z"/>
			<path d="m1.35 8.3c0.133 0.131 0.383 0.359 0.75 0.685 0.267 0.327 0.351 0.62 0.25 0.88l-0.1-0.048c-0.3-0.131-0.584-0.359-0.851-0.685-0.299-0.359-0.316-0.636-0.049-0.832z"/>
			<path d="m51.35 42.62c0 0.749 0.217 1.728 0.65 2.934 0.6 1.629 0.934 2.623 1 2.981 0.633 2.673 1 4.596 1.1 5.77 0.167 2.021-0.133 3.747-0.899 5.182-0.2-0.293-0.167-0.782 0.1-1.467 0.333-1.043 0.483-1.891 0.45-2.543-0.033-0.618-0.316-1.58-0.851-2.883-0.5-1.239-0.75-2.168-0.75-2.787 0.067-1.304 0.034-2.412-0.1-3.324-0.066-0.424-0.233-1.027-0.5-1.81-0.267-0.879-0.434-1.499-0.5-1.857-0.167-0.749-0.217-1.63-0.15-2.64l0.051-0.636c0.266 1.369 0.399 2.396 0.399 3.08z"/>
			<path d="m46.2 32.011c0.6 1.206 0.899 2.869 0.899 4.987 0.033 0.554 0.184 1.352 0.45 2.396l0.65 3.324c0.166 0.815 0.466 2.103 0.899 3.862 0.334 1.597 0.434 2.884 0.3 3.862-0.399-0.359-0.649-0.832-0.75-1.418-0.033-0.685-0.083-1.174-0.149-1.467-0.267-1.858-0.7-3.422-1.3-4.693-0.334-0.815-0.584-1.646-0.75-2.493l-0.449-3.373c-0.066-0.978-0.017-1.923 0.149-2.836 0.134-0.293 0.217-0.521 0.25-0.685 0.067-0.293 0.017-0.538-0.149-0.733l-0.05-0.733z"/>
			<path d="m43.55 31.718c0.333 1.727 0.533 3.064 0.6 4.009 0.233 3.911 0.417 6.404 0.551 7.479-0.167-0.651-0.483-1.563-0.95-2.737-0.5-1.238-0.834-2.135-1-2.689l-0.101-0.391-0.899-6.013c-0.167-1.532-0.05-2.803 0.35-3.813l0.3 0.733c0.498 0.749 0.882 1.89 1.149 3.422z"/>
			<path d="m39.45 32.598l0.649 2.346c0.134 1.271 0.334 2.363 0.601 3.275l0.05 0.44c-0.066-0.392-0.283-0.896-0.65-1.516-0.467-0.782-0.733-1.271-0.8-1.467l-0.3-0.829-1.05-5.671c0.1-0.815 0.25-1.531 0.449-2.151l-0.1-0.342c0.333 0.782 0.583 1.776 0.75 2.982 0.168 1.531 0.301 2.509 0.401 2.933z"/>
			<path d="m36.7 32.744c0.166 1.173 0.466 2.233 0.899 3.178-0.767-0.717-1.333-1.58-1.7-2.59l-0.55-3.911c0-0.196 0.101-0.864 0.3-2.004 0.134-0.848 0.134-1.516 0-2.005l0.25 0.147c0.034 1.108 0.233 2.444 0.601 4.008 0.033 1.433 0.1 2.494 0.2 3.177z"/>
			<path d="m32.55 26.047c0.033 0.392 0.066 0.961 0.1 1.711 0.134 0.586 0.367 1.255 0.7 2.004 0.101 0.815 0.351 1.663 0.75 2.543l-0.75-0.636c-0.434-0.358-0.7-0.668-0.8-0.929-0.033-0.163-0.017-0.44 0.05-0.831 0.066-0.392 0.084-0.685 0.05-0.88 0-0.391-0.066-0.733-0.199-1.026l-0.601-1.319-0.2-1.272 0.051-0.146c0.233-0.848 0.333-1.467 0.3-1.858l0.05 0.293c0.233 0.13 0.366 0.505 0.4 1.125 0.032 0.324 0.066 0.732 0.099 1.221z"/>
			<path d="m30.7 29.42l-0.65-0.733c-0.833-0.424-1.15-0.994-0.95-1.711 0.433 0.457 0.966 1.271 1.6 2.444z"/>
			<path d="m26.45 24.189c0.199 0.685 0.449 1.304 0.75 1.858v0.44c-0.933-0.652-1.183-1.418-0.75-2.298z"/>
			<path d="m24.35 24.972l-0.15-0.489c-0.267-0.196-0.417-0.408-0.45-0.636-0.033-0.131 0-0.358 0.1-0.685 0.2 0.228 0.351 0.538 0.45 0.929 0.099 0.392 0.116 0.685 0.05 0.881z"/>
			<path d="m21.25 22.478c0.1 0.228 0.3 0.505 0.6 0.832-0.399 0-0.767-0.261-1.1-0.782-0.259-0.474-0.375-0.89-0.351-1.247-0.013 0.356 0.27 0.756 0.851 1.197z"/>
			<path d="m17.75 19.74c0.366 0.587 0.616 1.06 0.75 1.418l0.05-0.196 0.05 0.099-0.149 0.342c-0.434-0.098-0.7-0.326-0.801-0.685-0.1-0.325-0.067-0.651 0.1-0.978z"/>
			<path d="m15.45 18.518c0.333 0.652 0.6 1.092 0.8 1.321l-0.05 0.097c-0.5-0.131-0.75-0.603-0.75-1.418z"/>
			<path d="m9.399 14.754c0.2 0.554 0.267 0.929 0.2 1.124-0.399-0.162-0.7-0.473-0.899-0.928-0.2-0.456-0.217-0.864-0.051-1.222l0.4 0.245 0.35 0.781z"/>
			<path d="m6.25 12.554c-0.032-0.095-0.049-0.405-0.05-0.929l0.05 0.342 0.149 0.196c0.2 0.521 0.384 0.913 0.551 1.174l-0.051 0.097c-0.199-0.098-0.416-0.391-0.649-0.88z"/>
		</g>
	<path d="m122.85 28.687c-0.033 0.358-0.633 1.402-1.8 3.129-0.767 1.14-0.566 1.434 0.6 0.879 1.434-1.401 3.15-2.346 5.15-2.834-0.7 0.521-1.35 1.319-1.95 2.395-0.633 0.75-1.733 0.929-3.3 0.539-0.9 0.619-1.366 0.978-1.4 1.075 1.767-0.196 3.434-0.017 5 0.538-0.267 0-1.199 0.261-2.8 0.782-0.934 0.327-1.816 0.147-2.649-0.538l-0.101 0.147-2.45 1.027c1.067 0.065 2.134 0.26 3.2 0.586-0.267 0-1.184 0.278-2.75 0.832-0.866 0.293-1.717 0.081-2.55-0.636l-2.6 0.929c1.5 0 2.933 0.261 4.3 0.782-0.167 0-1.25 0.293-3.25 0.881-1.066 0.325-2.101-0.017-3.101-1.026l-3.149 0.978c1.967 0.293 3.75 0.944 5.35 1.955-0.1-0.033-1.267 0-3.5 0.098-1.1 0.032-2.066-0.554-2.899-1.76l-2.65 0.685 6 2.102c-1.9-0.098-3.25-0.18-4.05-0.244-1.3-0.098-2.417-0.587-3.351-1.467l-2 0.489 5.45 1.955c-1.8-0.064-3.083-0.13-3.85-0.195-1.233-0.13-2.283-0.587-3.15-1.369l-1.8 0.44 5 1.857c-1.733-0.098-2.95-0.162-3.65-0.196-1.167-0.1-2.15-0.523-2.95-1.273l-2.95 0.782 5.649 1.858c-1.933-0.033-3.3-0.065-4.1-0.098-1.333-0.099-2.45-0.539-3.35-1.32l-1.2 0.343 2.1 0.733 0.8 0.097-0.399 0.049 2.6 0.881c-0.533-0.065-1.583-0.099-3.149-0.099-1.101-0.032-1.95-0.162-2.551-0.391-1.233 0.229-2.3 0.18-3.199-0.147l-1.5 0.489c2.666 0.326 5.033 0.798 7.1 1.418-2.3 0.131-3.95 0.212-4.95 0.244-1.7 0.033-3.184-0.244-4.45-0.83-0.233 0.064-1.399 0.505-3.5 1.319 4.034 1.108 6.15 1.694 6.351 1.76 2.366 0.717 4.434 1.499 6.2 2.347-5.167 1.238-9.733 0.049-13.7-3.569-1.867 0.849-3.316 1.582-4.351 2.2 1.867 0.554 4.65 1.369 8.351 2.444 3.1 1.011 5.767 2.135 8 3.374-6.3 0.814-12.066-0.945-17.3-5.28l-2.702 1.662c2.066 0.815 5.133 1.939 9.2 3.373 3.466 1.369 6.3 2.95 8.5 4.742-3.733 0.978-7.233 0.733-10.5-0.733-3.034-1.368-5.65-3.667-7.851-6.894-1.233 0.881-2.467 1.843-3.7 2.885 2.067 0.978 5.117 2.298 9.15 3.96 3.434 1.598 6.2 3.406 8.3 5.427-3.934 0.815-7.483 0.391-10.649-1.271-3.034-1.597-5.467-4.155-7.301-7.675-1.333 1.238-2.633 2.558-3.899 3.96 2.133 0.782 5.283 1.824 9.45 3.129 3.566 1.303 6.483 2.851 8.75 4.645-3.801 1.14-7.351 1.026-10.65-0.343-3.2-1.304-5.866-3.634-8-6.99-1 1.238-2.017 2.574-3.05 4.008 2.267 0.815 5.616 1.923 10.05 3.325 3.8 1.368 6.934 2.981 9.4 4.84-3.934 1.075-7.667 0.896-11.2-0.539-3.3-1.368-6.167-3.747-8.601-7.137l-1.35 2.004c0-1.01-0.217-0.619-0.65 1.174 2.101-12.712 6.384-23.076 12.851-31.094-1.066 3.65-2.75 8.066-5.05 13.248-1.301 2.869-3.25 7.188-5.851 12.956 2.033-2.803 4.467-7.676 7.3-14.618 2.634-6.452 5.284-11.228 7.95-14.323-0.866 2.77-2.166 6.144-3.899 10.119-2.767 6.258-4.233 9.565-4.4 9.925 2.3-2.054 4.4-5.704 6.3-10.951 1.967-5.509 4.066-9.419 6.3-11.733-0.767 2.64-2.017 5.899-3.75 9.778-2.433 5.41-3.85 8.62-4.25 9.63 2.367-1.467 4.317-4.433 5.851-8.896 1.7-4.857 3.583-8.214 5.649-10.071-0.666 2.184-1.816 4.954-3.449 8.312-2 4.04-3.267 6.745-3.801 8.114 2.167-1.238 3.917-3.779 5.25-7.626 1.434-4.27 3.084-7.236 4.95-8.898-0.633 1.858-1.649 4.27-3.05 7.236-1.634 3.454-2.717 5.834-3.25 7.138 2.1-1.108 3.767-3.275 5-6.502 1.333-3.456 3-5.867 5-7.236-1.634 2.673-3.55 6.519-5.75 11.538 1.667-0.814 3.267-2.232 4.8-4.253 1.033-1.401 2.184-3.309 3.45-5.721l-4.15 8.312c1.101-0.326 2.284-1.32 3.551-2.982 1.399-1.956 2.383-3.34 2.949-4.155-0.633 1.434-1.699 3.536-3.199 6.307 1.033-0.261 2.166-1.125 3.399-2.592 1.3-1.824 2.233-3.095 2.8-3.813-0.433 1.105-1.4 2.995-2.9 5.668 1.6-0.325 3.05-1.206 4.35-2.64 0.334-0.358 1.434-1.841 3.3-4.449-0.366 0.847-1.433 2.917-3.199 6.209 1.066-0.195 2.149-0.979 3.25-2.347 1.166-1.695 2.033-2.917 2.6-3.667-0.3 0.814-0.733 1.728-1.3 2.738-0.3 0.586-0.783 1.482-1.45 2.688 1.333-0.261 2.55-1.043 3.65-2.347 1.199-1.728 2.133-3.047 2.8-3.96-0.5 1.141-1.45 3.032-2.851 5.671 1.867-0.325 3.367-1.043 4.5-2.15 0.134-0.131 1.233-1.45 3.301-3.96-0.534 1.761-1.417 3.39-2.65 4.889 1.3-0.326 2.533-1.091 3.7-2.297 0.033-0.032 1.017-1.206 2.95-3.52-0.5 1.76-1.351 3.324-2.551 4.693 1.5-0.424 2.784-1.189 3.851-2.298 1.2-1.499 2.166-2.721 2.899-3.667-0.466 1.598-1.283 3.113-2.449 4.547 1.533-0.554 2.883-1.466 4.05-2.737 1.3-1.63 2.33-2.933 3.1-3.911z" clip-rule="evenodd" fill="#354E05" fill-rule="evenodd"/>
		<g clip-rule="evenodd" fill="#293F03" fill-rule="evenodd">
			<path d="m64.85 55.966l2.55 1.125c1.167 0.913 1.917 1.467 2.25 1.662 0.867 0.521 2.15 1.255 3.851 2.2 0.3 0.195 0.833 0.473 1.6 0.83 0.7 0.392 1.134 0.767 1.3 1.125-0.233 0.098-0.8-0.016-1.699-0.343-1.334-0.423-2.567-0.944-3.7-1.563-1.101-0.587-1.934-1.06-2.5-1.418-0.934-0.587-1.684-1.174-2.25-1.76-0.733-0.718-1.4-1.174-2-1.369l-0.101-0.146-0.1 0.098-0.3-0.049 0.35-0.293c0.132-0.066 0.382-0.099 0.749-0.099z"/>
			<path d="m62.55 56.749c0.333-0.327 0.733-0.457 1.2-0.392-0.101 0.098-0.267 0.375-0.5 0.831h-0.05c-1.034 1.011-1.95 1.972-2.75 2.884l-0.2 0.196 2.55 0.88 0.05 0.049c0.733 0.358 1.783 0.978 3.15 1.857 0.833 0.392 2.066 0.994 3.7 1.81 0.066 0.032 0.6 0.357 1.6 0.978 0.489 0.286 1.247 0.588 2.275 0.904-0.293-0.084-0.701-0.142-1.226-0.171-0.7-0.032-1.133-0.065-1.3-0.099-1.667-0.229-3.316-0.684-4.95-1.368-1.633-0.652-2.983-1.467-4.05-2.444l-1.049-0.881-0.15 0.44-1.05-1.515c-1 1.238-2.017 2.574-3.05 4.008l0.2 0.049 4.75 1.613c0.699 0.326 1.333 0.669 1.899 1.026 0.7 0.489 1.733 1.206 3.101 2.151 1.466 1.142 2.649 1.744 3.55 1.809-2.267 0-5.066-0.814-8.4-2.444-1.133-0.554-2.267-1.255-3.399-2.102l-0.601-0.392-0.3 0.245-1.15-1.467-1.35 2.004v-0.293c0.167-0.358 0.434-1.043 0.8-2.053 0.334-0.849 0.634-1.499 0.9-1.956l0.45-0.636c0.3-0.424 0.85-1.026 1.649-1.809 0.233-0.228 0.65-0.521 1.25-0.88 0.566-0.326 0.967-0.635 1.2-0.93 0.134-0.162 0.333-0.505 0.6-1.026 0.234-0.421 0.451-0.714 0.651-0.876z"/>
			<path d="m64.7 55.673c-0.367 0-0.65-0.017-0.851-0.049 0.467-0.261 1.033-0.701 1.7-1.319 0.733-0.718 1.267-1.19 1.6-1.418 0.367-0.261 0.684-0.424 0.95-0.489 0.3-0.064 0.533-0.016 0.7 0.146 0.1 0.065 0.267 0.244 0.5 0.538 0.733 0.651 1.767 1.238 3.1 1.76 0.567 0.229 1.7 0.587 3.4 1.075 0.8 0.261 1.7 0.473 2.7 0.636 0.267 0.065 0.616 0.196 1.05 0.391 0.4 0.196 0.717 0.311 0.95 0.343-1.7 0.065-3.084-0.114-4.15-0.537-0.899-0.294-2.083-0.815-3.55-1.565-0.3-0.162-0.967-0.44-2-0.83-0.866-0.327-1.5-0.652-1.9-0.979l-0.199 0.097-0.351-0.489c-0.934 0.652-2.033 1.5-3.3 2.543l-0.349 0.146z"/>
			<path d="m68.649 52.055c0.4-0.194 1-0.603 1.801-1.222l1.05-0.489 0.149 0.489-2.449 1.564c-0.266-0.064-0.45-0.179-0.551-0.342z"/>
			<path d="m81.55 53.962c0.3 0.163 0.767 0.439 1.4 0.831 0.6 0.326 1.116 0.506 1.55 0.538-1.733 0-3.267-0.261-4.601-0.782-1-0.392-1.866-0.832-2.6-1.32-0.667-0.424-1.066-0.669-1.2-0.733-0.6-0.196-1.066-0.374-1.399-0.538-0.634-0.261-1.017-0.586-1.15-0.978h0.15c0.733 0 1.283 0.032 1.649 0.098l1.15 0.343c0.5 0.162 0.95 0.374 1.35 0.635l1.851 1.124c0.4 0.195 1.017 0.456 1.85 0.782z"/>
			<path d="m82.3 48.976c0.6 0.098 1.217 0.293 1.85 0.586 1.2 0.424 1.934 0.799 2.2 1.125-1.066 0.032-2.383-0.195-3.95-0.685-1.5-0.489-2.55-0.881-3.149-1.174l-1.05-0.586 0.699 0.195c0.267 0.065 0.634 0.211 1.101 0.439 0.466 0.1 1.232 0.132 2.299 0.1z"/>
			<path d="m75.25 48.486c0.233-0.032 0.633-0.146 1.2-0.343 0.5-0.13 0.883-0.179 1.149-0.146l0.601 0.244c-0.367-0.099-0.717-0.099-1.051 0l-0.149-0.146c-1.3 0.588-2.483 1.174-3.55 1.76h-0.1v0.05l-0.6 0.293c-0.467 0-0.767-0.082-0.9-0.244 0.466-0.588 1.6-1.077 3.4-1.468z"/>
			<path d="m81.85 45.505c-0.066 0.423-0.133 0.667-0.2 0.733l-1.199 0.438-0.601 0.099-1.1 0.586-0.2 0.049c-0.634-0.032-1.116-0.081-1.45-0.146 0.334-0.554 1.05-1.026 2.15-1.418 1.066-0.391 1.934-0.504 2.6-0.341z"/>
			<path d="m86.7 46.335c-0.567 0.098-1.233 0.114-2 0.049-0.967-0.064-1.584-0.261-1.851-0.586 0.467 0.032 1.117 0.064 1.95 0.098 0.701 0.064 1.334 0.211 1.901 0.439z"/>
			<path d="m82.6 44.722c0.233-0.064 0.783-0.13 1.65-0.194 0.733-0.066 1.283-0.229 1.649-0.489h0.101c-0.167 0.358-0.3 0.586-0.4 0.684-0.366 0.294-0.717 0.44-1.05 0.44l-0.6 0.244c-0.467-0.131-0.917-0.359-1.35-0.685z"/>
			<path d="m86.1 43.842c0.3-0.195 0.9-0.195 1.8 0 0.9 0.196 1.434 0.44 1.601 0.733-0.2 0.033-0.467 0.017-0.8-0.048-0.467-0.131-0.75-0.196-0.851-0.196h-0.95c-0.4-0.032-0.7-0.131-0.9-0.293l0.1-0.196z"/>
			<path d="m91.2 43.011c0.3-0.032 0.767 0.065 1.399 0.294 0.533 0.162 0.967 0.342 1.3 0.537-1.5 0.13-2.283-0.082-2.35-0.636l-0.349-0.195z"/>
			<path d="m88.8 43.157c0.267-0.097 0.75-0.195 1.45-0.293 0.066 0.326 0.083 0.538 0.05 0.635l-0.55 0.147c-0.5 0-0.816-0.163-0.95-0.489z"/>
			<path d="m92.399 42.962c-0.5 0-0.866-0.098-1.1-0.293 0.366-0.196 1-0.31 1.9-0.342 0.833-0.066 1.433-0.229 1.8-0.489l-0.3 0.538-2.3 0.586z"/>
			<path d="m95.55 41.984l0.75 0.146v0.196c-0.401-0.162-0.651-0.277-0.75-0.342z"/>
			<path d="m98.2 43.011c-0.434-0.032-0.784-0.081-1.051-0.146-0.5-0.098-0.783-0.276-0.85-0.537 1.001 0.292 1.635 0.521 1.901 0.683z"/>
			<path d="m96.399 41.739c0.101-0.032 0.5-0.179 1.2-0.439 0.566-0.195 1-0.277 1.3-0.245 0.167 0.034 0.351 0.115 0.551 0.245-0.267-0.13-0.567-0.098-0.9 0.098l-1.75 0.44-0.401-0.099z"/>
			<path d="m99.45 41.3l0.25 0.098c0.199 0.098 0.699 0.245 1.5 0.44 0.666 0.13 1.149 0.31 1.449 0.538-1.233-0.164-2.133-0.408-2.699-0.733l-0.501-0.343z"/>
			<path d="m102.55 40.028c0.2-0.032 0.5 0.065 0.9 0.294 0.433 0.228 0.716 0.358 0.85 0.391 0.066 0.033 0.4 0.082 1 0.147 0.4 0.032 0.684 0.146 0.85 0.342-0.866 0.098-1.899-0.081-3.1-0.537-0.233-0.099-0.533-0.147-0.9-0.147l-1.75 0.44-0.449-0.342c1-0.099 1.55-0.164 1.649-0.196 0.066 0 0.217-0.082 0.45-0.244 0.2-0.099 0.37-0.148 0.5-0.148z"/>
			<path d="m106.1 39.442l-2.45 0.685-0.3-0.147c0.134-0.26 0.517-0.456 1.15-0.586 0.366-0.033 0.85-0.099 1.45-0.195 0.1 0.096 0.15 0.179 0.15 0.243z"/>
			<path d="m106.95 39.589l0.6 0.244c0.934 0.099 1.517 0.311 1.75 0.636-0.467 0.032-0.884-0.032-1.25-0.195-0.43-0.295-0.8-0.522-1.1-0.685z"/>
			<path d="m107.1 39.051c0.2-0.162 0.55-0.342 1.05-0.537 0.733-0.229 1.134-0.358 1.2-0.392l1.351-0.293-0.15 0.489-0.15-0.146-3.149 0.978-0.15-0.099z"/>
			<path d="m111.6 37.829l0.95 0.293c1.033 0 1.866 0.114 2.5 0.343-0.434 0.261-1.05 0.325-1.85 0.195-0.9-0.097-1.43-0.375-1.6-0.831z"/>
			<path d="m116.55 36.069c0.833-0.032 1.434 0.033 1.8 0.196-0.066 0.293-0.416 0.424-1.05 0.391-0.7-0.098-1.15-0.146-1.35-0.146-0.167 0-0.45 0.065-0.851 0.196l-0.05-0.099-1.5 0.538h-0.2v0.099l-0.399 0.097c-0.467-0.13-0.801-0.196-1-0.196 0.267-0.358 1.183-0.651 2.75-0.879 0.5-0.132 1.12-0.197 1.85-0.197z"/>
			<path d="m122.35 34.455c-0.366 0.196-0.633 0.311-0.8 0.343-0.233 0.033-0.55 0.033-0.95 0h-0.7l-0.199-0.147-0.101 0.147-1.95 0.831c-0.366 0-0.633-0.017-0.8-0.049 0.334-0.228 1.15-0.538 2.45-0.929 1.73-0.554 2.75-0.619 3.05-0.196z"/>
			<path d="m124.3 31.718c0.233 0.424 0.033 0.815-0.6 1.173-0.534 0.326-1.034 0.489-1.5 0.489h-0.15c0.033-0.424 0.333-0.782 0.9-1.075l1.35-0.587z"/>
			<path d="m61.25 49.758c0.6-0.945 1-1.793 1.2-2.542 0.199-0.75 0.583-1.695 1.149-2.836l-0.149 0.685c-0.2 0.945-0.483 1.76-0.851 2.444-0.133 0.325-0.416 0.847-0.85 1.564-0.4 0.651-0.667 1.157-0.8 1.515-0.4 1.012-0.733 2.038-1 3.081-0.167 0.586-0.567 1.335-1.2 2.248-0.7 0.978-1.134 1.711-1.3 2.2-0.167 0.521-0.284 1.369-0.351 2.543 0 0.717-0.1 1.156-0.3 1.319-0.1-1.63 0.15-3.325 0.75-5.085 0.366-1.042 1.1-2.64 2.2-4.79 0.102-0.228 0.602-1.01 1.502-2.346z"/>
			<path d="m67.05 43.549c0.634-2.151 1.35-3.716 2.15-4.693l-0.25 0.733c-0.2 0.131-0.301 0.358-0.301 0.685-0.033 0.195-0.05 0.456-0.05 0.781-0.133 0.849-0.383 1.843-0.75 2.983l-1.3 3.178c-0.533 0.978-0.967 1.661-1.3 2.053-0.733 0.978-1.467 2.298-2.2 3.96-0.1 0.261-0.267 0.7-0.5 1.32-0.267 0.521-0.583 0.847-0.95 0.978 0.2-0.945 0.634-2.103 1.3-3.472 0.801-1.531 1.367-2.655 1.7-3.372l1.45-2.934c0.501-0.978 0.834-1.711 1.001-2.2z"/>
			<path d="m71.3 39.687c0.767-1.531 1.434-2.559 2-3.08l0.5-0.685c0 1.206-0.333 2.607-1 4.205l-2.75 6.16c-0.3 0.488-0.816 1.238-1.55 2.248-0.7 0.945-1.2 1.695-1.5 2.249l2.6-7.235c0.334-0.88 0.9-2.167 1.7-3.862z"/>
			<path d="m72.95 44.624l1.25-2.199c0.233-0.457 0.683-1.451 1.35-2.982 0.5-1.206 1.017-2.151 1.55-2.836l-0.149 0.293c-0.034 0.717-0.167 1.565-0.4 2.543l-2.7 5.523c-0.233 0.424-0.399 0.669-0.5 0.733-0.1 0.163-0.467 0.539-1.1 1.125-0.467 0.456-0.783 0.88-0.95 1.271l0.15-0.439c0.599-0.945 1.099-1.957 1.499-3.032z"/>
			<path d="m76.8 44.82c-0.7 0.978-1.434 1.629-2.2 1.955 1.033-1.206 2.033-3.292 3-6.258 0.8-1.401 1.45-2.77 1.95-4.107l0.25-0.048c-0.3 0.489-0.533 1.222-0.7 2.2-0.267 1.369-0.416 2.135-0.45 2.298l-1.85 3.96z"/>
			<path d="m83.675 35.751c-0.187 0.455-0.312 1.196-0.375 2.225l-0.1 0.146-0.601 1.32-1 1.223c-0.166 0.228-0.35 0.569-0.55 1.026-0.066 0.195-0.15 0.521-0.25 0.978-0.066 0.456-0.15 0.766-0.25 0.929-0.167 0.261-0.5 0.473-1 0.635l-0.85 0.343c0.566-0.685 1.066-1.499 1.5-2.444 0.566-0.685 1-1.287 1.3-1.809 0.3-0.848 0.55-1.467 0.75-1.857 0.2-0.587 0.366-1.06 0.5-1.418 0.267-0.652 0.533-0.994 0.8-1.027l0.126-0.27z"/>
			<path d="m82.6 43.011c1.033-1.011 1.816-1.661 2.351-1.956-0.101 0.913-0.601 1.402-1.5 1.467l-0.851 0.489z"/>
			<path d="m88.45 39.198c0 1.206-0.534 1.955-1.601 2.248l0.151-0.537 1.45-1.711z"/>
			<path d="m90.1 41.055c0-0.26 0.134-0.586 0.4-0.978 0.267-0.423 0.533-0.717 0.8-0.879-0.033 0.424-0.083 0.717-0.15 0.879-0.133 0.229-0.366 0.392-0.699 0.489l-0.351 0.489z"/>
			<path d="m95.5 38.733c-0.141 0.382-0.424 0.78-0.851 1.198-0.533 0.488-1 0.618-1.399 0.391l0.899-0.636c0.754-0.294 1.205-0.612 1.351-0.953z"/>
			<path d="m98.95 38.073c0 0.489-0.117 0.896-0.351 1.222-0.3 0.392-0.684 0.538-1.149 0.44-0.034-0.131-0.034-0.276 0-0.44l0.1-0.097v0.244c0.233-0.391 0.7-0.847 1.4-1.369z"/>
			<path d="m101.9 37.731c-0.1 0.325-0.283 0.635-0.55 0.929-0.333 0.326-0.633 0.473-0.899 0.439l0.05-0.146c0.5-0.326 0.97-0.733 1.4-1.222z"/>
			<path d="m111.45 35.14l0.6-0.097c0.033 0.521-0.2 1.042-0.7 1.564-0.5 0.489-1.017 0.733-1.55 0.733 0-0.326 0.267-0.782 0.8-1.368l0.7-0.733 0.15-0.099z"/>
			<path d="m115.85 33.917l0.25-0.44 0.05-0.049c0 0.033-0.066 0.229-0.199 0.587-0.101 0.261-0.233 0.473-0.4 0.635-0.333 0.392-0.517 0.587-0.55 0.587-0.2 0.162-0.45 0.261-0.75 0.293l0.05-0.196c0.6-0.521 1.033-0.945 1.3-1.271l0.25-0.146z"/>
		</g>
</svg>
