<?xml version="1.0" encoding="utf-8"?>
<!-- Generator: Adobe Illustrator 24.0.2, SVG Export Plug-In . SVG Version: 6.00 Build 0)  -->
<svg version="1.1" id="Layer_1" xmlns="http://www.w3.org/2000/svg" xmlns:xlink="http://www.w3.org/1999/xlink" x="0px" y="0px"
	 viewBox="0 0 2467.8 2759.5" style="enable-background:new 0 0 2467.8 2759.5;" xml:space="preserve">
<style type="text/css">
	.st0{fill-rule:evenodd;clip-rule:evenodd;fill:#FFCCAA;stroke:#E1A781;stroke-width:16;}
	.st1{opacity:0.238;fill:#803300;enable-background:new    ;}
	.st2{fill-rule:evenodd;clip-rule:evenodd;fill:#803300;stroke:#C85000;stroke-width:16;}
	.st3{fill:#903900;}
	.st4{fill-rule:evenodd;clip-rule:evenodd;fill:#E8B08B;stroke:#000000;}
</style>
<g transform="matrix(-.20805 -1.1166 .67116 -.20409 -3993.3 758.5)">
	<path class="st0" d="M-2957.8,6690.1c-13.4-2.1-14.3,29.7-18.3,38.8l31.5,39.3l-42.9,12.2l22.5,46.4l-32.7,14.2l27.9,33.5
		l15.7,22.4l-41.7,13.4l20.9,70.1l-34.4,34.3l42.6,34.5l-48.9,14.3l-12.9,44.8l46.7,24.9c-0.7,5.2-41.3,16.3-37,17.9
		c167.7,70.6,340.3,132.8,517.8,181c494.7,134.4,958,318.6,1415,504.5c4.3,1.5-30-36.2-29.4-41.4l48.7,9l-0.7-49.6l-41.1-46.2
		l47.4-2.5l-22.9-54.6l36.4-49.7l-34.7-40.5l19.8-9.8l33.7-11.6l-26.3-35.1l32-27l-36.2-40.2l38.5-14.4c-1.4-11,5.6-40.6-7.2-47.8
		c-445.3-158.3-841.7-327.7-1337.6-474.4C-2595.7,6823.6-2778.4,6756.5-2957.8,6690.1L-2957.8,6690.1z"/>
	<path class="st1" d="M-1597.9,7185.6c0,0-279.2-3.3-333.8-22.6c-54.6-19.4-495-277.3-1036.1-373.5
		c-7.7,15.2,214.1,153.7,374.6,192.7c160.5,39,592.6,228.2,707.2,268.8S-1597.9,7185.7-1597.9,7185.6L-1597.9,7185.6z
		 M-1078.9,7484.9c0,0-36.8-29.3-80.6-14.1c-43.8,15.2-307.6-0.6-373.9-31.3c-66.3-30.7-219.9-13.2-219.9-13.2
		c104.3-3.4,308.9,101.7,385.8,104.8C-1290.6,7534.1-1078.9,7484.9-1078.9,7484.9L-1078.9,7484.9z M-1498.7,7367.4
		c0,0-73.2-8-119.8-0.6c-46.6,7.4-313-51.2-376.2-91.6c-63.3-40.4-222-48.8-222-48.8c106.6,13.9,300.4,148.5,378.3,164.1
		C-1760.5,7406.2-1498.7,7367.4-1498.7,7367.4L-1498.7,7367.4z M-2545.2,7008.2c-88.9-30.5-270-42.7-361.2-96.7
		c0,0,146.9,100,214.6,106c67.7,6.1,325.2,133.3,365.9,171.7c40.7,38.4,109.4,80.7,109.4,80.7s-229.3-213-304.2-251.5
		C-2527.8,7014.8-2536,7011.4-2545.2,7008.2L-2545.2,7008.2z M-2866.5,7043.9c-3,22.9-71.8,70.3-50,78
		c21.8,7.7,832.4,271.3,832.4,271.3l521.8,113.3l-742.1-263.2C-2522.7,7165.8-2711.9,7128.6-2866.5,7043.9L-2866.5,7043.9z
		 M-1129.4,7671.4c-11.2-4-428.5-136-428.5-136l-269.7-47.9l381.6,135.4c112.2,39.8,210.1,54.6,289,102.5
		C-1154.9,7710.1-1118.1,7675.3-1129.4,7671.4L-1129.4,7671.4z"/>
</g>
<g transform="matrix(-.99318 .24162 -.18554 -.76266 -3696.4 2613.9)">
	<path class="st2" d="M-6107,12.9c-13.8-1.2-15.5,29.6-19.9,38.7l31.6,36.2l-44.7,14.4l22.1,43.6l-34.1,15.7l28,30.8l15.6,20.8
		l-43.4,15.5l19.8,66.6l-36.4,35.3l43.1,30.8l-50.9,16.8l-14.5,44.2l47.6,21.3c-0.8,5.1-43.1,18.3-38.7,19.5
		c171.5,58.3,348.3,108.2,530.4,144.2c507.8,100.5,981.8,251.1,1449.3,403.7c4.4,1.2-30.1-33.2-29.3-38.4l50.1,5.8l0.6-48.1
		l-41.3-42.3l49.1-5.3l-22.3-51.5l38.9-50.4l-34.8-37.2l20.7-10.7l35.2-13.3l-26.2-32.4l33.8-28.1l-36.3-36.8l40.1-16.3
		c-1.2-10.6,6.9-39.7-6.1-45.9c-456.1-126.6-861.3-266.9-1370.1-379.2C-5736.3,120.5-5923.3,66.5-6107,12.9L-6107,12.9z"/>
	<path class="st3" d="M-4714.5,411.2c0,0-288.5,13.6-344.4-1.8c-55.9-15.5-504.3-238.9-1061.1-299.6
		c-8.3,15.2,217.3,136.1,382.1,164.2c164.8,28.1,606.5,185.4,723.9,217.9C-4896.5,524.4-4714.4,411.2-4714.5,411.2L-4714.5,411.2
		L-4714.5,411.2z M-4185.9,669.9c0,0-37.3-26.2-82.9-8.9c-45.6,17.4-317.9,17.9-385.6-7.9c-67.7-25.8-226.9,0.5-226.9,0.5
		c107.9-9.6,316.6,79.9,396,78.3C-4405.9,730.4-4185.9,669.9-4185.9,669.9L-4185.9,669.9z M-4616.7,581.4c0,0-75.4-3.3-123.8,6.6
		s-322.1-30.7-386.5-66.1c-64.3-35.3-228.2-34-228.2-34c109.8,7,306.6,125.8,386.7,136.3C-4888.3,634.8-4616.6,581.4-4616.7,581.4
		L-4616.7,581.4z M-5688.9,296.3c-91.1-24.2-277.9-25.1-370.8-72c0,0,149.2,88,219,89.8c69.8,1.8,332.6,109.6,373.7,144.3
		c41.1,34.7,111,71.6,111,71.6s-231.4-192.6-307.9-225.4C-5671,301.6-5679.4,298.8-5688.9,296.3L-5688.9,296.3z M-6021.8,350.2
		c-3.6,22.4-76.1,72.4-53.7,78.6s853.3,212.8,853.3,212.8l536.3,78.4l-760.1-210.4C-5669.7,447.6-5864.3,423-6021.8,350.2
		L-6021.8,350.2z M-4242.9,853.7c-11.5-3.2-439.3-106-439.3-106l-277.5-30.2l390.9,108.2c115,31.8,215.7,40.3,296,81.9
		C-4270.2,892.7-4231.4,856.9-4242.9,853.7L-4242.9,853.7z"/>
	<g>
		<path class="st4" d="M-6036.6,217.8l47.8,27.2l42.6-26.5l-5.2-53.7l-47.8-27.2l-42.6,26.5L-6036.6,217.8L-6036.6,217.8z"/>
		<path class="st4" d="M-6058.4,351.4l52.2,0.4l30.6,46.7l-21.5,46.3l-52.2-0.4l-30.6-46.7L-6058.4,351.4L-6058.4,351.4z"/>
		<path class="st4" d="M-4378.3,813.6l52.2,0.4l30.6,46.7L-4317,907l-52.2-0.4l-30.6-46.7L-4378.3,813.6z"/>
		<path class="st4" d="M-4347.7,679.4l47.8,27.2l42.6-26.5l-5.2-53.7l-47.8-27.2l-42.6,26.5L-4347.7,679.4L-4347.7,679.4z"/>
	</g>
</g>
<g transform="matrix(-.99318 .24162 -.18554 -.76266 -3591.4 2971.5)">
	<path class="st2" d="M-5992.6-240c-13.8-1.2-15.5,29.6-19.9,38.7l31.6,36.2l-44.7,14.4l22.1,43.6l-34.1,15.7l28,30.8l15.6,20.8
		l-43.4,15.5l19.8,66.6l-36.4,35.3l43.1,30.8l-50.9,16.8l-14.5,44.2l47.6,21.3c-0.8,5.1-43.1,18.3-38.7,19.5
		c171.5,58.3,348.3,108.2,530.4,144.2c507.8,100.5,981.8,251.1,1449.3,403.7c4.4,1.2-30.1-33.2-29.3-38.4l50.1,5.8l0.6-48.1
		l-41.3-42.3l49.1-5.3l-22.3-51.5l38.9-50.4l-34.8-37.2l20.7-10.7l35.2-13.3l-26.2-32.4l33.8-28.1l-36.3-36.8l40.1-16.3
		c-1.2-10.6,6.9-39.7-6.1-45.9C-4471.7,180.6-4877,40.3-5385.7-72.1C-5621.8-132.5-5808.9-186.5-5992.6-240L-5992.6-240z"/>
	<path class="st3" d="M-4600,158.2c0,0-288.5,13.6-344.4-1.8c-55.9-15.5-504.3-238.9-1061.1-299.6C-6013.8-128-5788.2-7.1-5623.3,21
		c164.8,28.1,606.5,185.4,723.9,217.9C-4782,271.4-4600,158.2-4600,158.2L-4600,158.2L-4600,158.2z M-4071.4,417
		c0,0-37.3-26.2-82.9-8.9c-45.6,17.4-317.9,17.9-385.6-7.9c-67.7-25.8-226.9,0.5-226.9,0.5c107.9-9.6,316.6,79.9,396,78.3
		C-4291.5,477.4-4071.4,417-4071.4,417L-4071.4,417z M-4502.2,328.4c0,0-75.4-3.3-123.8,6.6s-322.1-30.7-386.5-66.1
		c-64.3-35.3-228.2-34-228.2-34c109.8,7,306.6,125.8,386.7,136.3C-4773.8,381.8-4502.2,328.4-4502.2,328.4L-4502.2,328.4z
		 M-5574.4,43.3c-91.1-24.2-277.9-25.1-370.8-72c0,0,149.2,88,219,89.8c69.8,1.8,332.6,109.6,373.7,144.3
		c41.1,34.7,111,71.6,111,71.6S-5473,84.5-5549.4,51.7C-5556.6,48.6-5565,45.8-5574.4,43.3L-5574.4,43.3z M-5907.4,97.2
		c-3.6,22.4-76.1,72.4-53.7,78.6c22.4,6.2,853.3,212.8,853.3,212.8l536.3,78.4l-760.1-210.4C-5555.2,194.7-5749.9,170-5907.4,97.2
		L-5907.4,97.2z M-4128.4,600.7c-11.5-3.2-439.3-106-439.3-106l-277.5-30.2l390.9,108.2c115,31.8,215.7,40.3,296,81.9
		C-4155.8,639.7-4116.9,603.9-4128.4,600.7L-4128.4,600.7z"/>
	<g>
		<path class="st4" d="M-5922.1-35.2l47.8,27.2l42.6-26.5l-5.2-53.7l-47.8-27.2l-42.6,26.5L-5922.1-35.2L-5922.1-35.2z"/>
		<path class="st4" d="M-5943.9,98.4l52.2,0.4l30.6,46.7l-21.5,46.3l-52.2-0.4l-30.6-46.7L-5943.9,98.4L-5943.9,98.4z"/>
		<path class="st4" d="M-4263.8,560.6l52.2,0.4l30.6,46.7l-21.5,46.3l-52.2-0.4l-30.6-46.7L-4263.8,560.6z"/>
		<path class="st4" d="M-4233.1,426.5l47.8,27.2l42.6-26.5l-5.2-53.7l-47.8-27.2l-42.6,26.5L-4233.1,426.5L-4233.1,426.5z"/>
	</g>
</g>
<g transform="matrix(.99318 -.24162 .18554 .76266 -2367.8 -1177.2)">
	<path class="st2" d="M2127.4,2560.8c-13.8-1.2-15.5,29.6-19.9,38.7l31.6,36.2l-44.7,14.4l22.1,43.6l-34.1,15.7l28,30.8l15.6,20.8
		l-43.4,15.5l19.8,66.6l-36.4,35.3l43.1,30.8l-50.9,16.8l-14.5,44.2l47.6,21.3c-0.8,5.1-43.1,18.3-38.7,19.5
		c171.5,58.3,348.3,108.2,530.4,144.2c507.8,100.5,981.8,251.1,1449.3,403.8c4.4,1.2-30.1-33.2-29.3-38.4l50.1,5.8l0.6-48.1
		l-41.3-42.3l49.1-5.3l-22.3-51.5l38.9-50.4l-34.8-37.2l20.7-10.7l35.2-13.3l-26.2-32.4l33.8-28.1l-36.3-36.8l40.1-16.3
		c-1.2-10.6,6.9-39.7-6.1-45.9c-456.1-126.6-861.3-266.9-1370.1-379.2C2498.1,2668.3,2311.1,2614.3,2127.4,2560.8L2127.4,2560.8z"/>
	<path class="st3" d="M3519.9,2959c0,0-288.5,13.6-344.4-1.8c-55.9-15.5-504.3-238.9-1061.1-299.6
		c-8.3,15.2,217.3,136.1,382.1,164.2c164.8,28.1,606.5,185.4,723.9,217.9C3337.9,3072.2,3520,2959,3519.9,2959L3519.9,2959z
		 M4048.5,3217.7c0,0-37.3-26.2-82.9-8.9c-45.6,17.4-317.9,17.9-385.6-7.9c-67.7-25.8-226.9,0.5-226.9,0.5
		c107.9-9.6,316.6,79.9,396,78.3C3828.5,3278.2,4048.5,3217.7,4048.5,3217.7L4048.5,3217.7z M3617.8,3129.2c0,0-75.4-3.3-123.8,6.6
		s-322.1-30.7-386.5-66.1c-64.3-35.3-228.2-34-228.2-34c109.8,7,306.6,125.8,386.7,136.3C3346.1,3182.6,3617.8,3129.2,3617.8,3129.2
		L3617.8,3129.2z M2545.5,2844.1c-91.1-24.2-277.9-25.1-370.8-72c0,0,149.2,88,219,89.8c69.8,1.8,332.6,109.6,373.7,144.3
		c41.1,34.7,111,71.6,111,71.6s-231.4-192.6-307.9-225.4C2563.4,2849.4,2555,2846.6,2545.5,2844.1L2545.5,2844.1z M2212.6,2898
		c-3.6,22.4-76.1,72.4-53.7,78.6s853.3,212.8,853.3,212.8l536.3,78.4l-760.1-210.4C2564.7,2995.4,2370.1,2970.8,2212.6,2898z
		 M3991.6,3401.5c-11.5-3.2-439.3-106-439.3-106l-277.5-30.2l390.9,108.2c115,31.8,215.7,40.3,296,81.9
		C3964.2,3440.5,4003.1,3404.7,3991.6,3401.5L3991.6,3401.5z"/>
	<g>
		<path class="st4" d="M2197.9,2765.6l47.8,27.2l42.6-26.5l-5.2-53.7l-47.8-27.2l-42.6,26.5L2197.9,2765.6L2197.9,2765.6z"/>
		<path class="st4" d="M2176.1,2899.2l52.2,0.4l30.6,46.7l-21.5,46.3l-52.2-0.4l-30.6-46.7L2176.1,2899.2L2176.1,2899.2z"/>
		<path class="st4" d="M3856.1,3361.4l52.2,0.4l30.6,46.7l-21.5,46.3l-52.2-0.4l-30.6-46.7L3856.1,3361.4L3856.1,3361.4z"/>
		<path class="st4" d="M3886.8,3227.3l47.8,27.2l42.6-26.5l-5.2-53.7l-47.8-27.2l-42.6,26.5L3886.8,3227.3L3886.8,3227.3z"/>
	</g>
</g>
</svg>
