<svg id="Layer_1" data-name="Layer 1" xmlns="http://www.w3.org/2000/svg" viewBox="0 0 500 274.73"><defs><style>.cls-1{fill:#f0f4f8;}.cls-2{fill:#fff;stroke:#fff;stroke-linecap:round;stroke-linejoin:bevel;stroke-width:3px;}.cls-3{fill:#e4eaed;}.cls-4{fill:#eeeeec;}</style></defs><title>cloud</title><path class="cls-1" d="M339.93,0C294.24,0,255,20.68,238,50.17a112.46,112.46,0,0,0-42.13-8c-48.82,0-88.43,29.64-88.43,66.11a49.73,49.73,0,0,0,.88,9.32C48,119.34,0,148.89,0,185.07c0,37.31,51,67.61,114,67.61A186.08,186.08,0,0,0,151.2,249c23.73,15.82,58.29,25.78,96.78,25.78,55.3,0,102.54-20.56,121.11-49.5a109.48,109.48,0,0,0,44.06,9c47.94,0,86.85-29.07,86.85-64.88,0-27.33-22.68-50.71-54.69-60.27A64,64,0,0,0,451,83c0-45.79-49.77-83-111-83Z"/><path class="cls-2" d="M344.66,22.94C306.87,22.94,276.34,41,265.37,60a26.18,26.18,0,0,1-32.51,11.16,86.51,86.51,0,0,0-32.28-6.07c-19.12,0-35.94,6-46.83,14.15s-15.42,17-15.42,25.79a23.69,23.69,0,0,0,.39,4.43,26.17,26.17,0,0,1-25,31c-26.08.75-49.08,7.84-63.7,16.91s-19.15,17.9-19.15,24.43c0,6.71,4.95,16,20.56,25.3s40,16.12,67.21,16.12a159.6,159.6,0,0,0,32-3.21,26.2,26.2,0,0,1,19.77,3.87c18.19,12.13,48.31,21.39,82.28,21.39,48.81,0,88.38-20.76,99.1-37.47a26.18,26.18,0,0,1,32.56-9.79,83.81,83.81,0,0,0,33.51,6.76c18.68,0,35.12-5.87,45.73-13.79s14.94-16.48,14.94-24.91c0-12.84-11.93-28-36-35.19a26.17,26.17,0,0,1-16.43-35.71,37.38,37.38,0,0,0,3.39-15.47c0-13.41-7-26.48-22-37.69S370,22.94,344.66,22.94Z"/><path class="cls-3" d="M155.63,247.86s52.93-27.72,58.63-29.65c-12.42,11.93-44,37.69-44,37.69l-14.67-8Z"/><path class="cls-3" d="M372.81,220.45s22.72-29.83,28.42-31.76c-12.43,11.93-13.74,39.8-13.74,39.8Z"/><path class="cls-3" d="M458.86,116.6s-22.71,29.84-28.41,31.77c12.42-11.93,13.74-39.81,13.74-39.81l14.67,8Z"/><path class="cls-3" d="M187.39,158.76s123.17-80.1,159-8.53C303.94,90.2,189.38,158.76,187.39,158.76Z"/><path class="cls-4" d="M343.64,142.84s-49.29-35.76-49.9-47.09C271.25,104.89,345.05,143.54,343.64,142.84Z"/></svg>