<?xml version="1.0" encoding="utf-8"?>
<!-- Generator: Adobe Illustrator 24.1.1, SVG Export Plug-In . SVG Version: 6.00 Build 0)  -->
<svg version="1.1" id="Layer_1" xmlns="http://www.w3.org/2000/svg" xmlns:xlink="http://www.w3.org/1999/xlink" x="0px" y="0px"
	 viewBox="0 0 63.4 52.4" style="enable-background:new 0 0 63.4 52.4;" xml:space="preserve">
<style type="text/css">
	.st0{fill:#FFFFFF;}
	.st1{fill:#7ACEF4;}
</style>
<g>
	<g>
		<path class="st0" d="M113,61.2c0,0.6-0.1,1.2-0.1,1.9l2.5-4.5l-0.3-1.5l2.5-0.4l0.9,6.3l1.1-3.9c0.1-0.4,0.1-0.7,0.1-1
			c0-0.3,0-0.6-0.1-1l2.6-0.5c0.1,0.5,0.2,1,0.1,1.5c0,0.6-0.2,1.3-0.6,2.4l-2.1,5.7h-3.1l-0.7-4.2l-2.4,4.2h-3c0.1-3.9,0-6.4-0.3-9
			l2.6-0.4C113,58.1,113.1,59.6,113,61.2z"/>
		<path class="st0" d="M129.3,59c-1.2,0.6-1.7,0.9-2.7,1.6l-1.2,5.5h-2.7l1.9-9.1l2.4-0.4l-0.1,1.3c0.9-0.5,1.7-0.9,2.5-1.3
			L129.3,59z"/>
		<path class="st0" d="M130.9,57l2.8-0.4l-2,9.5h-2.7L130.9,57z M131.7,52.9l2.8-0.4l-0.6,2.9l-2.8,0.4L131.7,52.9z"/>
		<path class="st0" d="M138.6,58.9l-1,4.6c0,0.1,0,0.2,0,0.2c0,0.1,0.1,0.2,0.3,0.2c0.5,0,1-0.2,1.5-0.4l0.5,1.9
			c-0.8,0.4-1.9,0.8-3,0.8c-1.4,0-2.1-0.7-2-1.8c0-0.1,0-0.3,0.1-0.4l1.1-5.2h-1.4l0.5-2.2h1.4l0.5-2.2l2.8-0.4l-0.5,2.6h2.2
			l-0.6,2.2H138.6z"/>
		<path class="st0" d="M141.8,60.1c0.5-2.1,1.5-3.5,4.4-3.5c1.8,0,3.1,0.8,3,2.3c-0.1,1.8-1,2.7-3.3,3.3c-1.1,0.3-1.2,0.3-2,0.6
			l-0.1,0.6c-0.1,0.3,0,0.7,0.5,0.7c1,0,2.4-0.5,3.7-1l0.4,1.9c-1.2,0.7-3,1.3-4.6,1.3c-1.9,0-2.7-0.8-2.7-2.4
			c0-0.3,0.1-0.7,0.2-1.1L141.8,60.1z M146.7,59.2c0-0.3-0.3-0.5-0.8-0.5c-1,0-1.3,0.6-1.4,1.3l-0.1,0.7c0.5-0.1,0.7-0.2,1.2-0.3
			C146.4,60.1,146.7,59.8,146.7,59.2z"/>
		<path class="st0" d="M156.2,53l2.8-0.4l-2.8,13.5h-2.7L156.2,53z"/>
		<path class="st0" d="M159.3,60.1c0.5-2.1,1.5-3.5,4.4-3.5c1.8,0,3.1,0.8,3,2.3c-0.1,1.8-1,2.7-3.3,3.3c-1.1,0.3-1.2,0.3-2,0.6
			l-0.1,0.6c-0.1,0.3,0,0.7,0.5,0.7c1,0,2.4-0.5,3.7-1l0.4,1.9c-1.2,0.7-3,1.3-4.6,1.3c-1.9,0-2.7-0.8-2.7-2.4
			c0-0.3,0.1-0.7,0.2-1.1L159.3,60.1z M164.2,59.2c0-0.3-0.3-0.5-0.8-0.5c-1,0-1.3,0.6-1.4,1.3l-0.1,0.7c0.5-0.1,0.7-0.2,1.2-0.3
			C163.9,60.1,164.2,59.8,164.2,59.2z"/>
		<path class="st0" d="M167,65.7l0.6-2c0.7,0.2,1.5,0.5,2.5,0.5c0.9,0,1-0.3,1.1-0.7c0.1-0.4-0.2-0.6-1.2-1.2c-1.9-1-2-1.7-1.7-3.1
			c0.4-2,1-2.5,3.6-2.5c0.9,0,2,0.2,2.8,0.4l-0.5,2c-0.7-0.2-1.7-0.3-2.3-0.3c-0.8,0-0.9,0.1-1,0.6c-0.1,0.4,0,0.5,0.9,1
			c2.1,1.1,2.4,1.5,2.1,3c-0.5,2.1-1.1,2.9-3.9,2.9C169,66.3,167.8,66,167,65.7z"/>
		<path class="st0" d="M174.7,65.7l0.6-2c0.7,0.2,1.5,0.5,2.5,0.5c0.9,0,1-0.3,1.1-0.7c0.1-0.4-0.2-0.6-1.2-1.2
			c-1.9-1-2-1.7-1.7-3.1c0.4-2,1-2.5,3.6-2.5c0.9,0,2,0.2,2.8,0.4l-0.5,2c-0.7-0.2-1.7-0.3-2.3-0.3c-0.8,0-0.9,0.1-1,0.6
			c-0.1,0.4,0,0.5,0.9,1c2.1,1.1,2.4,1.5,2.1,3c-0.5,2.1-1.1,2.9-3.9,2.9C176.7,66.3,175.5,66,174.7,65.7z"/>
		<path class="st0" d="M182.1,68.2l1.5-2.1h-1l0.7-3.2h2.7l-0.7,3.4l-2.2,2.6L182.1,68.2z"/>
		<path class="st0" d="M196.8,66.1l0-0.8c-0.7,0.6-1.7,1-3,1c-2,0-2.5-1.2-2-3.3l0.5-2.5c0.5-2.2,1.1-3.9,5-3.9c0.3,0,0.9,0,1.1,0.1
			l0.8-3.7l2.8-0.4l-2.8,13.5H196.8z M194.4,63.3c-0.1,0.5,0,0.7,0.5,0.7c1,0,1.7-0.5,2.2-1l0.9-4.1c-0.3-0.1-0.7-0.1-1-0.1
			c-1.4,0-1.7,0.7-1.9,1.6L194.4,63.3z"/>
		<path class="st0" d="M201.6,63.2c0-0.2,0-0.4,0.1-0.7l0.5-2.2c0.5-2.4,1.7-3.8,5-3.8c2.5,0,3.6,1.4,3.5,3.1c0,0.2,0,0.4-0.1,0.7
			l-0.5,2.2c-0.5,2.2-1.6,3.8-5,3.8C202.7,66.3,201.6,64.9,201.6,63.2z M207.9,59.9c0-0.7-0.4-1.1-1.3-1.1c-1,0-1.6,0.5-1.8,1.4
			l-0.5,2.3c0,0.1,0,0.3-0.1,0.4c0,0.7,0.4,1.1,1.3,1.1c1,0,1.6-0.5,1.8-1.4l0.5-2.3C207.9,60.1,207.9,60,207.9,59.9z"/>
		<path class="st0" d="M227.1,59.8c0-0.1,0-0.2,0-0.3c0-0.2-0.1-0.3-0.4-0.3c-0.5,0-1.7,0.5-2.5,0.9l-1.3,6h-2.7l1.3-6.3
			c0-0.1,0-0.2,0-0.3c0-0.2-0.1-0.3-0.4-0.3c-0.5,0-1.7,0.5-2.4,0.9l-1.3,6H215l1.9-9.1l2.4-0.4l-0.1,1c1.5-0.7,2.6-1.1,3.7-1.1
			c0.9,0,1.4,0.4,1.6,1.1c1.4-0.8,2.7-1.1,3.8-1.1c1.2,0,1.7,0.7,1.6,1.9c0,0.3,0,0.7-0.1,1.1l-1.4,6.5h-2.7L227.1,59.8z"/>
		<path class="st0" d="M230.9,63.2c0-0.2,0-0.4,0.1-0.7l0.5-2.2c0.5-2.4,1.7-3.8,5-3.8c2.5,0,3.6,1.4,3.5,3.1c0,0.2,0,0.4-0.1,0.7
			l-0.5,2.2c-0.5,2.2-1.6,3.8-5,3.8C232,66.3,230.8,64.9,230.9,63.2z M237.2,59.9c0-0.7-0.4-1.1-1.3-1.1c-1,0-1.6,0.5-1.8,1.4
			l-0.5,2.3c0,0.1,0,0.3-0.1,0.4c0,0.7,0.4,1.1,1.3,1.1c1,0,1.6-0.5,1.8-1.4l0.5-2.3C237.2,60.1,237.2,60,237.2,59.9z"/>
		<path class="st0" d="M247.1,59c-1.2,0.6-1.7,0.9-2.8,1.6l-1.2,5.5h-2.7l1.9-9.1l2.4-0.4l-0.1,1.3c0.9-0.5,1.7-0.9,2.5-1.3
			L247.1,59z"/>
		<path class="st0" d="M247.7,60.1c0.5-2.1,1.5-3.5,4.4-3.5c1.8,0,3.1,0.8,3,2.3c-0.1,1.8-1,2.7-3.3,3.3c-1.1,0.3-1.2,0.3-2,0.6
			l-0.1,0.6c-0.1,0.3,0,0.7,0.5,0.7c1,0,2.4-0.5,3.7-1l0.4,1.9c-1.2,0.7-3,1.3-4.6,1.3c-1.9,0-2.7-0.8-2.7-2.4
			c0-0.3,0.1-0.7,0.2-1.1L247.7,60.1z M252.6,59.2c0-0.3-0.3-0.5-0.8-0.5c-1,0-1.3,0.6-1.4,1.3l-0.1,0.7c0.5-0.1,0.7-0.2,1.2-0.3
			C252.2,60.1,252.6,59.8,252.6,59.2z"/>
		<path class="st0" d="M256.2,62.9h2.7l-0.7,3.2h-2.7L256.2,62.9z"/>
	</g>
</g>
<path class="st1" d="M9.1,11.6c-4.6,6.5-4,15.1-0.5,22c0.1,0.2,0.2,0.3,0.3,0.5c0,0.1,0.1,0.2,0.2,0.3c0,0.1,0.1,0.1,0.1,0.2
	c0.1,0.1,0.1,0.2,0.2,0.3c0.1,0.2,0.2,0.4,0.3,0.6c0.1,0.1,0.1,0.2,0.2,0.3c0.1,0.2,0.3,0.4,0.4,0.6c0.1,0.1,0.1,0.2,0.2,0.3
	c0.2,0.3,0.4,0.5,0.6,0.8c0,0,0,0,0,0c0,0,0.1,0.1,0.1,0.1c0.2,0.2,0.3,0.5,0.5,0.7c0.1,0.1,0.1,0.2,0.2,0.2
	c0.2,0.2,0.3,0.4,0.5,0.6c0.1,0.1,0.1,0.1,0.2,0.2c0.2,0.3,0.4,0.5,0.7,0.7c0,0,0,0,0,0c0,0,0,0,0,0c0.2,0.2,0.4,0.5,0.7,0.7
	c0.1,0.1,0.1,0.1,0.2,0.2c0.2,0.2,0.3,0.3,0.5,0.5c0.1,0.1,0.1,0.1,0.2,0.2c0.2,0.2,0.5,0.4,0.7,0.7c0,0,0,0,0,0
	c0,0,0.1,0.1,0.1,0.1c0.2,0.2,0.4,0.4,0.7,0.6c0.1,0.1,0.2,0.1,0.3,0.2c0.2,0.1,0.4,0.3,0.6,0.4c0.1,0.1,0.2,0.1,0.3,0.2
	c0.2,0.2,0.4,0.3,0.6,0.4c0.1,0.1,0.1,0.1,0.2,0.2c0,0,0,0,0.1,0c0.2,0.1,0.4,0.3,0.6,0.4c0.1,0.1,0.2,0.1,0.3,0.2
	c0.3,0.2,0.6,0.4,0.9,0.6c0.1,0,0.2,0.1,0.3,0.1c0.2,0.1,0.5,0.3,0.7,0.4c0.1,0.1,0.3,0.1,0.4,0.2c0.2,0.1,0.3,0.2,0.5,0.3
	c0,0,0.1,0,0.1,0.1c0.1,0,0.1,0.1,0.2,0.1c0.3,0.1,0.5,0.3,0.8,0.4c0.1,0,0.1,0,0.2,0.1c0.3,0.1,0.6,0.3,0.9,0.4
	c0.1,0,0.1,0.1,0.2,0.1c0.3,0.1,0.6,0.2,0.9,0.3c0,0,0.1,0,0.1,0c0.3,0.1,0.7,0.2,1,0.3c0.1,0,0.2,0.1,0.2,0.1
	c0.3,0.1,0.7,0.2,1,0.3C49.6,53,56,35.7,56,35.7c-5.4,7-14.9,8.8-24,6.8c-0.3-0.1-0.7-0.2-1-0.3c-0.1,0-0.2,0-0.2-0.1
	c-0.3-0.1-0.7-0.2-1-0.3c0,0-0.1,0-0.1-0.1c-0.3-0.1-0.6-0.2-0.9-0.3c-0.1,0-0.2-0.1-0.2-0.1c-0.3-0.1-0.6-0.3-0.9-0.4
	c-0.1,0-0.1-0.1-0.2-0.1c-0.3-0.1-0.5-0.2-0.8-0.4c-0.1,0-0.1-0.1-0.2-0.1c-0.2-0.1-0.4-0.2-0.6-0.3c-0.1-0.1-0.3-0.1-0.4-0.2
	c-0.2-0.1-0.5-0.3-0.7-0.4c-0.1-0.1-0.2-0.1-0.2-0.1c-0.3-0.2-0.6-0.4-0.9-0.6c-0.1-0.1-0.2-0.1-0.3-0.2c-0.2-0.1-0.5-0.3-0.7-0.4
	c-0.1-0.1-0.1-0.1-0.2-0.2c-0.2-0.1-0.4-0.3-0.6-0.5c-0.1-0.1-0.2-0.1-0.3-0.2c-0.2-0.1-0.4-0.3-0.6-0.4c-0.1-0.1-0.2-0.1-0.3-0.2
	c-0.2-0.2-0.5-0.4-0.7-0.6c0,0-0.1,0-0.1-0.1c-0.3-0.2-0.5-0.5-0.7-0.7c-0.1-0.1-0.1-0.1-0.2-0.2c-0.2-0.2-0.4-0.3-0.5-0.5
	c-0.1-0.1-0.1-0.1-0.2-0.2c-0.2-0.2-0.4-0.5-0.7-0.7c0,0,0,0,0,0c-0.2-0.3-0.4-0.5-0.7-0.8c-0.1-0.1-0.1-0.1-0.2-0.2
	c-0.2-0.2-0.3-0.4-0.5-0.6c-0.1-0.1-0.1-0.1-0.2-0.2c-0.2-0.2-0.4-0.5-0.6-0.7c-5-6.8-6.8-16.3-2.8-24"/>
<path class="st1" d="M23.2,6.1c-3.3,4.7-3.1,11.1-0.5,16.1c0.4,0.8,0.9,1.7,1.5,2.4c0.5,0.7,1,1.5,1.7,2.1c0.2,0.3,0.5,0.5,0.7,0.8
	c0.1,0.1,0.1,0.1,0.2,0.2c0.2,0.2,0.5,0.5,0.8,0.7c0,0,0,0,0,0c0,0,0,0,0,0c0.3,0.3,0.6,0.5,0.9,0.7c0.1,0.1,0.1,0.1,0.2,0.2
	c0.3,0.2,0.6,0.5,0.9,0.7c0,0,0,0,0,0c0.1,0.1,0.3,0.2,0.4,0.3c0.1,0,0.1,0.1,0.2,0.1c0.2,0.1,0.5,0.3,0.7,0.4c0,0,0.1,0,0.1,0.1
	c0.2,0.1,0.4,0.2,0.6,0.3c0.1,0,0.1,0.1,0.2,0.1c0.1,0.1,0.3,0.1,0.4,0.2c0,0,0,0,0.1,0c0.3,0.1,0.6,0.3,0.9,0.4
	c0.1,0,0.1,0.1,0.2,0.1c0.2,0.1,0.5,0.2,0.7,0.3c0.1,0,0.2,0.1,0.3,0.1c0.2,0.1,0.4,0.2,0.7,0.2c0.1,0,0.2,0.1,0.3,0.1
	c0.3,0.1,0.6,0.2,1,0.3c17,2.8,20.9-10.3,20.9-10.3c-3.5,5.1-10.4,7.5-17.7,5.6c-0.3-0.1-0.6-0.2-1-0.3c-0.1,0-0.2-0.1-0.3-0.1
	c-0.2-0.1-0.5-0.1-0.7-0.2c-0.1,0-0.2-0.1-0.3-0.1c-0.2-0.1-0.5-0.2-0.7-0.3c-0.1,0-0.1-0.1-0.2-0.1c-0.3-0.1-0.6-0.3-0.9-0.4
	c-0.1-0.1-0.3-0.2-0.4-0.2c-0.1,0-0.2-0.1-0.3-0.1c-0.2-0.1-0.4-0.2-0.6-0.3c0,0-0.1,0-0.1-0.1c-0.2-0.1-0.5-0.3-0.7-0.4
	c-0.1,0-0.1-0.1-0.2-0.1c-0.1-0.1-0.3-0.2-0.4-0.3c-0.3-0.2-0.6-0.4-0.9-0.7c-0.1-0.1-0.1-0.1-0.2-0.2c-3.2-2.5-5.7-6-6.9-9.9
	c-1.3-4.1-1-8.6,1.2-12.3"/>
<path class="st1" d="M35.1,2c-1.9,2.9-2.1,6.4-0.8,9.6c1.4,3.4,4.3,6,7.7,7.2c0.1,0.1,0.3,0.1,0.4,0.1c0.1,0,0.1,0,0.2,0.1
	c0.2,0.1,0.4,0.1,0.6,0.2c9.4,1.8,11.9-4.8,12.6-5.8c-2.2,3.2-6,4-10.6,2.9c-0.4-0.1-0.8-0.2-1.1-0.3c-0.4-0.2-0.9-0.3-1.3-0.5
	c-0.8-0.4-1.6-0.9-2.3-1.4c-4.1-3.1-6.7-9.1-4-13.9"/>
<path class="st0" d="M252.8,15.4l0.4,1.6c0.1,0.4-0.2,0.8-0.6,0.8"/>
<path class="st0" d="M223.2,12.7c-0.1,0.4-0.2,1-0.3,1.3l-3.3,15.2l3.4-16L223.2,12.7z"/>
<polygon class="st0" points="125.8,22.9 124,29.3 125.8,22.9 "/>
<path class="st0" d="M253.2,17l-0.9-4c-0.7-2.9-2.8-4.2-7.5-4.2h-19.8c-0.5,0-0.9,0.2-1,0.7L216.4,45c-0.1,0.5-0.1,0.8-0.1,1
	c0.1,0.2,0.9,0.2,1.4,0.2h6.9c0.5,0,1.3,0,1.5-0.1c0.3-0.1,0.4-0.8,0.5-1.2l2.4-12.5l3-13.9c0.1-0.4,0.5-0.8,1-0.8l19.6,0
	C253,17.8,253.3,17.4,253.2,17"/>
<path class="st0" d="M281.1,2.5c-0.5,0-8.7,0-8.7,0c-0.5,0-1,0.5-1.3,0.9l-15.3,22.5c-0.3,0.4-0.6,0.4-0.7-0.1l-1.1-4.9
	c-0.1-0.4-0.6-0.8-1-0.8h-9.8c-0.5,0-0.7,0.4-0.6,0.8l4.4,15.4c0.1,0.4,0.1,1.2,0,1.6l-2.1,7.8c-0.1,0.4,0.2,0.6,0.6,0.6h9.7
	c0.5,0,0.9-0.1,1-0.6l2.1-7.9c0.1-0.4,0.4-1,0.7-1.4l24.9-33c0.3-0.4,0.2-0.8-0.2-0.8L281.1,2.5z"/>
<path class="st0" d="M178.9,8.8h-8.9c-0.5,0-0.9,0.2-1,0.6l-2.9,13.7l-2.9,13.1c-0.1,0.4-0.5,0.4-1,0.4h-5.8c-5.8,0-5.1-3.6-3.9-9.1
	c0-0.1,3.7-18.1,3.7-18.1c0.1-0.4-0.2-0.6-0.7-0.6h-8.4c-0.5,0-0.9,0.2-1,0.6l-3.4,18.1c-1.7,9.8-1.7,18.4,9.6,18.7
	c0.2,0,17.9,0,17.9,0c0.5,0,0.9-0.2,1-0.6l3.9-18.2L179,9.2C179,9.2,179.1,8.8,178.9,8.8z"/>
<path class="st0" d="M90.8,8.8h-9.5c-0.5,0-0.9,0.1-1,0.6l-1.7,7.4c-0.1,0.4,0.2,0.8,0.7,0.8h9.1c0.5,0,0.9-0.4,1-0.9l1.6-7.5
	C90.9,9.2,91.1,8.8,90.8,8.8z"/>
<path class="st0" d="M78.6,20c-0.5,0-0.9,0.4-1,0.8l-1.3,5.7l-2.9,13.1c0,0-1.5,6.9-1.7,7.4c0,0-1.3,5-4.3,4.8c-1.4-0.1-3-0.4-3-0.4
	h0c-0.9-0.3-0.9,0.6-1,1.1l-1.9,8.1c-0.1,0.4,0.2,0.8,0.6,0.9c0,0,4.1,0.6,7,0.6h0.5c7.1,0,10.9-4.2,13.3-15.6l2.8-13.2l2.6-12.3
	c0.1-0.4-0.2-0.9-0.6-0.9"/>
<path class="st0" d="M201.3,8.7c-16,0-19.8,9.9-21.9,19.6c-2.1,10-1.9,17.9,14.6,17.9h0.6c6.6,0,14.5,0,14.5,0c0.4,0,0.9-0.4,1-0.9
	l1.6-6.3c0.1-0.4-0.2-0.6-0.7-0.6h-14.9c-5.4,0-7.3-1.7-7.1-5.4c0-0.4,0.5-1.5,0.9-1.5h22.9c1,0,1-0.6,1-0.6
	C216.3,20.5,216.5,8.7,201.3,8.7 M205.6,24.4c0,0.5-1.6,0.4-1.6,0.4l-12.4-0.1c-0.4,0-0.6-0.6-0.6-1c0,0,0-0.5,0.1-0.6
	c1-3.3,3.8-5.2,8.4-5.2c5.1,0,6.2,2.5,6.2,5.4"/>
<path class="st0" d="M132.3,35.9c0,0,4.5-10.9,5.5-17.1c1.4-8.4-2.8-20.6-19.1-20.6c-16.2,0-23.2,11.6-25.8,24.3
	c-2.7,12.7,0.8,23.8,16.9,23.7l24.5,0c0.5,0,0.9-0.4,1-0.8l2.1-7.9c0.1-0.4-0.2-0.8-0.6-0.8l-2,0l-2,0c-0.4,0-0.6-0.3-0.6-0.6
	C132.3,36.1,132.3,36,132.3,35.9 M123.9,29.3l-1.8,6.3c-0.1,0.4-0.6,0.7-1.1,0.7h-9.5c-7.2,0-9-5.6-7.2-13.9
	c1.8-8.5,5.2-13.7,12.3-14.3c9.7-0.7,11.7,6.1,9.3,14L123.9,29.3z"/>
</svg>
