<?xml version="1.0" encoding="UTF-8"?>
<!DOCTYPE svg  PUBLIC '-//W3C//DTD SVG 1.1//EN'  'http://www.w3.org/Graphics/SVG/1.1/DTD/svg11.dtd'>
<svg enable-background="new 0 0 234.9 75.35" version="1.1" viewBox="0 0 234.9 75.35" xml:space="preserve" xmlns="http://www.w3.org/2000/svg">
<g clip-rule="evenodd" fill-rule="evenodd">
		<radialGradient id="a" cx="-120.55" cy="-44.719" r="119.51" gradientTransform="matrix(-.9952 -.0982 .0069 -.1226 -2.2075 39.207)" gradientUnits="userSpaceOnUse">
		<stop stop-opacity=".6863" offset="0"/>
		<stop stop-opacity="0" offset="1"/>
	</radialGradient>
	<path d="m0 44.95c0.233-4.101 11.9-6.467 35-7.101 23.066-0.633 50.816 0.65 83.25 3.851 32.467 3.2 60.083 7.383 82.85 12.55 22.77 5.133 34.03 9.75 33.8 13.85-0.234 4.101-11.9 6.467-35 7.101-23.067 0.633-50.834-0.65-83.301-3.851-32.466-3.199-60.066-7.366-82.8-12.5-22.767-5.166-34.033-9.8-33.8-13.9z" fill="url(#a)"/>
	<path d="m147.25 41.65l7.9-2.301c5.732-1.566 9.816-2.35 12.25-2.35h26.3l11.399 2.3c1.367 0.4 3.801 1.384 7.301 2.95-0.334 0.833-0.768 1.666-1.301 2.5-1.066 1.7-2.083 2.617-3.05 2.75-1.566 0.2-11.517 0.5-29.85 0.9-5.434-1.067-10.817-2.15-16.15-3.25-10.6-2.199-15.53-3.366-14.8-3.499z" fill="#644A23"/>
	<path d="m206.25 29.5c1.434-0.267 2.316 0.184 2.65 1.35 0.6 1.934 0.8 4.467 0.6 7.601-4.5 0.2-7.617 0.2-9.35 0-1.101-0.134-2.65-0.217-4.65-0.25l-2.65-0.05 17.25 4.699 0.45 1c0.333 0.801 0.567 1.634 0.7 2.5 0.1 0.7 0.533 3 1.3 6.9 0.366 4.066-0.366 7.316-2.2 9.75-2.666 3.6-4.899 5.717-6.699 6.35-3.167 1.134-8.717 0.768-16.65-1.1-7.3-1.7-17.917-3.717-31.85-6.05l-18.7-3 2.6-23.7c1.967 0.4 16.866-1.934 44.7-7 0.9-0.167 4.25-0.033 10.05 0.4s8.983 0.784 9.55 1.05c0.13 0.067 1.1-0.083 2.9-0.45z" fill="#2D1E15"/>
	<path d="m199.85 45.15c1.934 0.399 3.301 0.8 4.101 1.199h-4.4l1 1.4c0.8 1.033 1.634 1.733 2.5 2.1 0.667 0.268 1.817 0.584 3.45 0.95 1.133 0.233 1.55 0.4 1.25 0.5-0.4 0.3-0.75 0.517-1.05 0.65-0.601 0.267-1.617 0.35-3.05 0.25l-5.85-0.599 2.95 2.051 2.3 0.85h-3.8l5.3 2.65 0.601 0.5c0.266 0.333-0.033 0.55-0.9 0.649-0.867 0.134-2.15 0.217-3.85 0.25l-8.75 0.05 1.6 0.65c1.3 0.434 2.434 0.7 3.4 0.8 0.766 0.101 1.55 0.15 2.35 0.15 0.267 0 0.25 0.05-0.05 0.149-0.134 0.066-0.867 0.101-2.2 0.101-0.967 0-1.4 0.167-1.3 0.5 0.033 0.133-0.117 0.366-0.45 0.7-0.1 0.1 0.55 0.25 1.95 0.449 1.167 0.2 2 0.268 2.5 0.2 0.167 0 0.5 0.134 1 0.4 0.5 0.3 1.149 0.417 1.95 0.35 0.266-0.033 0.1 0.15-0.5 0.55-0.734 0.467-1.384 0.768-1.95 0.9-0.634 0.066-1.15 0.15-1.55 0.25s-0.601 0-0.601-0.3c0-0.067-0.2 0.133-0.6 0.6-0.367 0.5-0.333 0.851 0.1 1.05 0.134 0.066-0.283 0.2-1.25 0.4-0.767 0.434-1.316 0.7-1.649 0.8-0.434 0.134-2.518-0.033-6.25-0.5l-16.35-2.049c-4.1-0.2-8.384-0.483-12.85-0.85-8.967-0.7-14.434-1.484-16.4-2.351-0.967-0.433-2.384-0.316-4.25 0.351-2 0.866-3.333 1.449-4 1.75-1.033 0.433-1.366 0.283-1-0.45 0.434-0.833 1.967-2.851 4.601-6.05 4.633-5.601 12.066-10.301 22.3-14.101 5.1-1.899 9.75-3.233 13.95-4 1.5 0.233 3.949 0.434 7.35 0.601 2.367 0.133 4.1 0.416 5.2 0.85 0.933 0.367 2.2 0.75 3.8 1.15 1.533 0.399 2.8 0.8 3.8 1.199 0.634 0.268 1.567 0.733 2.8 1.4 0.73 0.401 1.65 0.701 2.75 0.901z" fill="#231711"/>
	<path d="m193.15 45.75l2 2.05 0.3 1.75c-0.2 0.101-0.384 0.233-0.55 0.4-0.334 0.333-0.434 0.683-0.301 1.05 0.101 0.3 0.301 0.483 0.601 0.55 0.1 0.033 0 0.15-0.3 0.351-0.367 0.232-0.867 0.399-1.5 0.5l-3.5 0.35-1.45 0.9 0.899 2.05 0.351 1.45 0.5 1.3c0.366 0.899 0.667 1.533 0.899 1.899l3.2 4.7-5.25 0.3c-8.467-0.533-16.899-1.217-25.3-2.05-16.834-1.667-25.066-3.233-24.7-4.7s5.134-5.116 14.3-10.949c4.601-2.9 9.15-5.667 13.65-8.301 1.467 0.301 4.517 0.834 9.15 1.601 3.133 0.5 5.482 1.033 7.05 1.6 2.733 0.967 5.55 1.833 8.45 2.601 0.5 0.199 0.683 0.116 0.55-0.25-0.03-0.102 0.28 0.181 0.95 0.848z" fill="#14110A"/>
	<path d="m213.15 45.45c0.5 2.267 0.75 3.633 0.75 4.1 0 1.167-0.217 3.317-0.65 6.45-0.5 3.934-1.066 6.467-1.7 7.6-1.033 1.834-3.25 3.867-6.649 6.101-4.033 2.667-7.283 3.55-9.75 2.649-4.067-1.699-7.217-2.982-9.45-3.85-3.967-1.533-7.05-2.3-9.25-2.3-2.3 0-13.467-1.233-33.5-3.7-19.5-2.4-29.567-3.7-30.2-3.9-0.6-0.199-23.883-6.05-69.85-17.55-0.6 0-9.466-5.733-26.6-17.2l3.8-3.55h6.15c0.3 0 3.417 0.134 9.35 0.4 6.101 0.267 9.8 0.333 11.101 0.2 2.333-0.233 5.483-0.383 9.45-0.45 4.9-0.067 8.183 0.083 9.85 0.45 1.633 0.4 17.2 6.25 46.7 17.55 28.53 10.966 43.65 16.817 45.35 17.55 0.9 0.367 3.783 0.916 8.65 1.65 4.2 0.633 7.366 1.05 9.5 1.25l14.9 1.45 0.601 2.25c0.466 1.601 0.95 2.7 1.45 3.301 0.399 0.5 0.899 1.283 1.5 2.35 0.6 0.8 1.449 1.2 2.55 1.2 1.733 0 3.433-0.333 5.1-1 2.267-0.9 4.184-2.333 5.75-4.3 1.533-1.9 2.5-3.518 2.9-4.851 0.3-1.899 0.6-3.683 0.899-5.35 0.2-1.067-0.033-3.233-0.699-6.5l-1.05-4.6 2.301-0.6 0.75 3.2z" fill="#846230"/>
	<path d="m180.25 37.85l15.8-6.149 6-0.55c4.101-0.333 6.384-0.433 6.851-0.3 0.8 0.2 1.783 2.534 2.949 7l-2.35 0.601c-0.2-1.567-0.5-2.634-0.9-3.2-0.3-0.5-1.066-0.75-2.3-0.75-1.366 0-2.933 0.333-4.7 1-1.699 0.667-3.35 1.95-4.949 3.85-1.234 1.434-2.317 3.084-3.25 4.95-0.601 1.2-1.067 3.366-1.4 6.5-0.167 1.567-0.283 3-0.35 4.3l-1.95 2.051-9.45-19.303z" fill="#846230"/>
	<path d="m122.1 18.55c2.768 0.367 12.884 1.55 30.351 3.55 12.566 1.434 21.35 2.601 26.35 3.5 3.7 0.667 7.434 1 11.2 1 4.166 0 6.666 0.05 7.5 0.15 3.133 0.4 7.233 1.767 12.3 4.1-2.967-0.3-5.634-0.066-8 0.7-3.066 1.067-6.45 4.533-10.149 10.4-1.434 2.333-2.084 7.399-1.95 15.2h-40.7l16.5 2.35c11.867 1.633 20 2.55 24.4 2.75v1.35c0 1.934 0.883 3.967 2.649 6.101 0.866 1.1 1.733 1.983 2.601 2.649-10.101-1.967-18.283-3.333-24.551-4.1-6.833-0.834-17.732-1.8-32.699-2.9-1.801-0.133-10.15-0.333-25.051-0.6-9.933-0.2-16.983-0.983-21.149-2.35-4.367-1.467-9.434-2.2-15.2-2.2-5.833 0.3-9.733 0.45-11.7 0.45-2.366 0-7.283-0.601-14.75-1.801-7.667-1.333-12.283-2.1-13.85-2.3-2.034-0.233-5.067-1.433-9.101-3.6-3.066-1.7-5.5-3.217-7.3-4.55-1.167-0.867-1.983-3.217-2.45-7.051-0.433-3.833-0.25-6.833 0.55-9 0.633-1.8 0.567-3.767-0.2-5.899l-1.4-2.601 5.9-1.55 2.45 0.5c2.133 0.3 4.417 0.45 6.85 0.45 3.9 0 10.283-0.15 19.15-0.45l-11.55-1.298c-2.633-0.3-4.533-0.566-5.7-0.8-1.167-0.267-3.95-0.983-8.35-2.15-4.933-1.3-7.633-1.9-8.1-1.8 2.267-2.267 4.2-4 5.8-5.2 2.5-1.9 5.617-3.65 9.35-5.25 4.167-1.8 8.834-1.8 14 0 4.334 1.533 15.983 3.733 34.95 6.6 12.833 1.933 26.52 3.817 41.05 5.65z" fill="#46341C"/>
	<path d="m94.8 22.45c1.7 0.1 3.583 0.267 5.65 0.5 3.333 0.399 10.75 1.083 22.25 2.05-1.767-0.767-7.317-2.033-16.65-3.8-5.467-1.034-9.6-1.5-12.4-1.4-2.733 0.1-4.45 0.083-5.15-0.05-1.767-0.367-2.883-0.533-3.35-0.5-0.5 0.133-1.233 0.2-2.2 0.2-1.233 0-2.25-0.134-3.05-0.4-1-0.4-1.933-0.75-2.8-1.05-1.1-0.367-2.7-0.816-4.8-1.35l-2.8-0.7 0.85 0.55c0.601 0.4 3.534 1.667 8.8 3.8l-4.4-0.85c-2.434-0.434-4.05-0.733-4.85-0.9-1.2-0.233-2.216-0.517-3.05-0.85-0.833-0.367-1.616-0.617-2.35-0.75-1.333-0.167-2.783-0.4-4.35-0.7-0.167-0.033-3.1-0.533-8.8-1.5-2.033-0.333-3.649-0.55-4.85-0.65-1.3-0.1-2.117-0.166-2.45-0.2l-12.85-2.35h7.3c1.4 0 2.533 0.067 3.4 0.2 0.5 0.066 1.417 0.2 2.75 0.4 1.767 0.2 5.083 0.583 9.95 1.15 3.7 0.4 6.817 0.7 9.351 0.9l-5-1.2c-1.034-0.233-2.45-0.717-4.25-1.45-2.3-0.933-3.5-1.417-3.601-1.45-0.633-0.233-1.816-0.55-3.55-0.95-2.233-0.5-3.783-0.867-4.65-1.1-1.3-0.366-2.667-0.483-4.1-0.35-1.533 0.233-2.7 0.35-3.5 0.35h-7l3.8-1.75c4.167-1.8 8.834-1.8 14 0 4.334 1.533 15.983 3.733 34.95 6.6 12.833 1.933 26.517 3.817 41.05 5.65 2.768 0.367 12.884 1.55 30.351 3.55 12.566 1.434 21.35 2.601 26.35 3.5 3.7 0.667 7.434 1 11.2 1 4.166 0 6.666 0.05 7.5 0.15 3.133 0.4 7.233 1.767 12.3 4.1-1.134-0.3-2.45-0.466-3.95-0.5-3 0-5.366 0.767-7.1 2.3-1.3 1.167-2.45 2.45-3.45 3.85-0.8 1.066-2.017 2.883-3.649 5.45-0.834 1.333-1.417 3.55-1.75 6.649h-0.15c-1.267 0.233-2 0.184-2.2-0.149-0.066-0.534-0.25-0.95-0.55-1.25-0.367-0.367-0.917-0.767-1.65-1.2l-1-0.55h-2.899c-0.667 0-1.934-0.117-3.8-0.351-1.967-0.267-3.434-0.533-4.4-0.8-0.834-0.233-3.167-0.667-7-1.3-3.9-0.6-6.15-0.95-6.75-1.05-0.733-0.134 1.833-0.167 7.7-0.101 3.033 0.033 6.616 0.066 10.75 0.101 2.133 0 4.566-0.2 7.3-0.601 0.8-0.1 0.6-0.267-0.6-0.5-2.734-0.5-4.384-0.816-4.95-0.949-2.233-0.5-5.934-1.084-11.101-1.75-4.633-0.434-8.55-0.817-11.75-1.15-6.1-0.566-10.383-1.15-12.85-1.75-2.533-0.633-4.95-0.917-7.25-0.85-2.367 0.167-4.133 0.25-5.3 0.25-1.467 0-5.55-0.583-12.25-1.75l-9.65-1.75 13.851 0.7c10.033 0.534 17 0.983 20.899 1.351 3.7 0.333 7.583 0.833 11.65 1.5 4.233 0.7 6.5 1.066 6.8 1.1 1.934 0.2 5.916 0.4 11.95 0.6h9.35l1.851-0.35c1.333-0.3 2.183-0.566 2.55-0.8 0.6-0.4-0.184-0.5-2.351-0.3-1.934-0.601-4.649-1.101-8.149-1.5-0.837-0.084-1.437-0.15-1.8-0.2 1.699 0.133 2.783 0.2 3.25 0.2l12-0.3c1.633-0.1 2.699-0.283 3.199-0.55 0.4-0.2 0.283-0.316-0.35-0.35-1.8-0.066-3.733-0.25-5.8-0.55-0.367-0.067-3.167-0.4-8.4-1-2.866-0.333-4.933-0.684-6.2-1.05l2.601-0.85c-3.7-1.366-6.417-2.25-8.15-2.65-0.467-0.1-1.566-0.45-3.3-1.05-1.5-0.5-3.334-0.916-5.5-1.25-6.167-1-11.233-1.5-15.2-1.5l-11.649 0.3 0.699 0.65c0.768 0.434 1.884 0.7 3.351 0.8 1.833 0.167 6.2 1.084 13.1 2.75 6.934 1.7 9.684 2.55 8.25 2.55-1.033 0-2.433-0.35-4.2-1.05-1.899-0.767-3.232-1.2-4-1.3-1.066-0.133-3.133-0.267-6.199-0.4l-4.301-0.2 4.301 0.95c3.232 0.767 5.699 1.517 7.399 2.25 2.733 1.2 7.317 2.567 13.75 4.1-4.1-0.767-7.316-1.15-9.649-1.15-1.4 0-3.45-0.433-6.15-1.3-4-1.3-6.334-2.033-7-2.2-1.967-0.5-4.316-0.8-7.05-0.899h-3.5c-2.733-0.2-5.95-0.384-9.65-0.55-3.866-0.2-7.95-0.5-12.25-0.9-4.133-0.367-6.45-0.65-6.95-0.85-0.1-0.333-0.566-0.683-1.399-1.05-1.067-0.433-2.767-0.633-5.101-0.6-2.833 0.1-4.983 0.15-6.45 0.15h-10.8c-1.833 0-5.7-0.483-11.6-1.45l-8.3-1.45 16.1 0.85c3.134 0.233 5.15 0.317 6.05 0.25 1.5-0.166 2.4-0.25 2.7-0.25l11.001 0.099z" fill="#5C4525"/>
	<path d="m92.3 31.85c2.634-0.066 5.167 0.084 7.6 0.45 1.4 0.233 4.183 0.55 8.35 0.95 3.167 0.3 5.633 0.667 7.4 1.1 1.567 0.4 3.583 0.934 6.05 1.601 2 0.5 3.783 0.75 5.35 0.75 2.533 0 5.667 0.1 9.4 0.3-4.9 0.566-9.483 0.75-13.75 0.55-4.601-0.233-8.034-0.417-10.3-0.55-4.1-0.2-7.1-0.3-9-0.3-1.567 0-4.55-0.25-8.95-0.75-1.067-0.134-1.434-0.167-1.101-0.101 0.368 0.067 2.151 0.35 5.351 0.85 4.267 0.667 8.866 1.767 13.8 3.3 4.133 1.3 7.633 2.05 10.5 2.25s6.166 0.2 9.9 0c3.666-0.2 6.699-0.2 9.1 0l13.15 1.15-10.85-3.65 3.65 0.6c2.667 0.434 4.483 0.768 5.45 1 0.866 0.233 1.732 0.551 2.6 0.95 1.2 0.533 2.083 0.9 2.65 1.101 1.566 0.6 3.516 1.183 5.85 1.75l1.5 0.55c1.5 0.399 3.533 0.716 6.1 0.95 4.066 0.366 6.983 0.75 8.75 1.149l-18.7 0.6 6.149 0.949c4.467 0.601 7.601 0.851 9.4 0.75 2.866-0.166 5.383-0.25 7.55-0.25l4.55-0.1c-0.134 2.066-0.167 4.533-0.1 7.4h-40.7l16.5 2.35c11.867 1.633 20 2.55 24.4 2.75v1.35c0 1.934 0.883 3.967 2.649 6.101 0.866 1.1 1.733 1.983 2.601 2.649-10.101-1.967-18.283-3.333-24.551-4.1-6.833-0.834-17.732-1.8-32.699-2.9-1.801-0.133-10.15-0.333-25.051-0.6-9.933-0.2-16.983-0.983-21.149-2.35-4.367-1.467-9.434-2.2-15.2-2.2-5.833 0.3-9.733 0.45-11.7 0.45-2.366 0-7.283-0.601-14.75-1.801-7.667-1.333-12.283-2.1-13.85-2.3-2.034-0.233-5.067-1.433-9.101-3.6-3.066-1.7-5.5-3.217-7.3-4.55-1.167-0.867-1.983-3.217-2.45-7.051-0.433-3.833-0.25-6.833 0.55-9 0.633-1.8 0.567-3.767-0.2-5.899l-1.4-2.601 5.9-1.55 2.45 0.5c2.133 0.3 4.417 0.45 6.85 0.45 3.9 0 10.283-0.15 19.15-0.45l-14.5-1.65 13.2 1.2c1.067 0 1.601-0.066 1.601-0.2 0.066-0.2-1.351-0.617-4.25-1.25-2.8-0.6-5.55-1.317-8.25-2.15l-3.151-1.047 4.9 0.45c3.5 0.367 5.866 0.8 7.1 1.3 3.533 1.399 5.667 2.267 6.4 2.6 1.866 0.867 4.383 1.733 7.55 2.6 3.7 1 7.233 1.7 10.6 2.1 2.667 0.333 5.15 0.517 7.45 0.55 2.733 0.067 5.017 0.184 6.85 0.35l10.55 0.85c-2.534 0.4-5.267 0.6-8.2 0.6-9.934-0.2-15.583-0.3-16.95-0.3l-12.45-0.3c0.3 0.033 2.101 0.383 5.4 1.05 3.7 0.733 6.633 1.267 8.8 1.6 3.9 0.567 9.167 0.85 15.8 0.85l3.2-0.15z" fill="#372916"/>
	<path d="m40.55 30.55c-2.066-0.133-4.533-0.65-7.4-1.55l-3.7-1.35 13.75 0.85c1.966 0.133 3.55 0.167 4.75 0.1 2.133-0.066 3.366-0.1 3.7-0.1l-0.55 2.35c-3.7 0-7.217-0.1-10.55-0.3z" fill="#46341C"/>
	<path d="m98.7 38.75c4.733 1.3 9.517 2.95 14.35 4.95 0.767 0.333-0.566 0.066-4-0.8-4.733-1.2-7.6-1.9-8.6-2.101l-13.7-2.95-20.2-2.35c-0.967-0.1-3-0.566-6.1-1.4l-4.4-1.2h4.65l19 2.05 7.55 1.35c5.434 1.001 9.25 1.818 11.45 2.451z" fill="#46341C"/>
	<path d="m151.35 46.9l0.7 0.75c0.033 0.5-0.983 0.75-3.05 0.75-1.967 0-3.9-0.051-5.8-0.15-1.9-0.1-2.9-0.15-3-0.15-0.767 0-5.15-0.399-13.15-1.199h24.3z" fill="#46341C"/>
	<path d="m177.65 53.95h-4.101c-4.866 0.767-8.083 1.149-9.649 1.149-0.967 0-3.117-0.1-6.45-0.3l-4.65-0.3-5.25-2.3 5.351 0.05c3.967 0.033 7.05 0.1 9.25 0.2l15.5 1.501z" fill="#46341C"/>
	<path d="m110.65 46.95c3.3-0.333 6.05 0.05 8.25 1.149 0.227 0.124 2.692 0.574 7.399 1.351-0.183 0.104-0.466 0.204-0.85 0.3-1.067 0.267-2.567 0.4-4.5 0.4h-8.5l-6.4-0.601c-1.366 0-3.316-0.2-5.85-0.6-1.567-0.233-4.284-0.884-8.15-1.95l-5.3-1.55 3.5-0.3 16.05 2.651 4.35-0.85z" fill="#46341C"/>
	<path d="m48.75 40.5c-1.333-0.367-3.434-1.217-6.3-2.55l-3.95-1.85 10.55 2.351 4.6 1.5c3.3 1 5.567 1.566 6.8 1.7l10.8 1.75-7.9-0.551c-0.733-0.066-2.033-0.133-3.899-0.199-1.233-0.033-2.75-0.167-4.55-0.4s-3.017-0.5-3.65-0.8c-1.001-0.468-1.834-0.785-2.501-0.951z" fill="#46341C"/>
	<path d="m35 37.85c1.367 0.4 4.583 1.867 9.65 4.4h-4.1c-1.7 0-3.717-0.483-6.05-1.45l-3-1.5-8.2-2.3 3.5-0.25c2.867 0 5.6 0.367 8.2 1.1z" fill="#46341C"/>
	<path d="m55.75 45.45l15.2 0.3 5.649 1.1c4.101 0.801 7 1.316 8.7 1.551 2.7 0.366 6.684 1.816 11.95 4.35l-7.6-2.05c-0.767-0.167-2.683-0.3-5.75-0.4-1.933-0.033-4.183-0.316-6.75-0.85l-3.25-0.8-14.35-2-3.799-1.201z" fill="#46341C"/>
	<polygon points="136.15 54.8 145.2 56.85 142.25 57.45 130 56.55 123.85 54.8" fill="#46341C"/>
	<g fill="#282010">
		<path d="m21.85 29.4l0.55 0.25c0.833 0.233 2.4 0.534 4.7 0.9 7.134 1.167 11.717 1.85 13.75 2.05 0.967 0.101 2.25 0.117 3.851 0.05 0.399-0.033 0.566-0.033 0.5 0-0.067 0.034-0.55 0.117-1.45 0.25-2.333 0.367-4.667 0.55-7 0.55-0.533 0-1.233 0.083-2.1 0.25-0.466 0.066-1.617-0.017-3.45-0.25-1.934-0.233-3.884-0.4-5.851-0.5l-2.35-0.05c2.333 1.467 2.917 2.167 1.75 2.1-0.733-0.033-1.833 0-3.3 0.1l-1.95 0.15-0.45 0.85c-0.167 0.7-0.017 1.284 0.45 1.75l1.2 1.2 4.649 3.5 0.95 1.4c0.9 1.033 1.95 1.733 3.15 2.1 1.933 0.567 4.466 1.15 7.6 1.75l-2.45-2.25c0.834 0.366 1.55 0.634 2.15 0.8l8.2 1.75c0.5 0.101 2.05 0.167 4.649 0.2 3.067 0.167 6 0.601 8.8 1.3 4.667 1.134 9.534 2.384 14.6 3.75-4.1 0.4-7.417 0.601-9.95 0.601-1.033 0-2.967-0.167-5.8-0.5-1.833-0.2-2.533-0.134-2.1 0.2 0.4 0.3 1.233 0.899 2.5 1.8 1.534 0.8 3.534 1.267 6 1.399 3.9 0.2 6.717 0.301 8.45 0.301l12.852-0.651c2.366 0.066 4.233 0.283 5.6 0.65 2.134 0.566 3.684 0.949 4.65 1.149l-11.95-4.05 8.45 0.85h18.4c-1.833-0.333-3.533-0.666-5.1-1-3.133-0.699-3.967-1.05-2.5-1.05 2.367 0 5.783 0.2 10.25 0.601 4.666 0.399 6.617 0.6 5.85 0.6-0.467 0-1.25 0.333-2.35 1l-1.45 1 1.75 1.2 0.2 1.3c0.733 0.867 2.617 1.3 5.65 1.3 1.899 0 3-0.149 3.3-0.45 0.133-0.133 2.533 0.018 7.2 0.45 3.6 0.333 7.217 0.616 10.85 0.851 1.5 0.1 3.05 0.316 4.65 0.649 2.933 0.567 5.666 1.05 8.199 1.45l-12.3-3.2 22.8 2.3 3.351 1.851c2.767 1.267 5.55 2.017 8.35 2.25 4.5 0.399 7.134 0.6 7.9 0.6l-7.601-3.2h10.8c0 1.934 0.883 3.967 2.649 6.101 0.866 1.1 1.733 1.983 2.601 2.649-10.101-1.967-18.283-3.333-24.551-4.1-6.833-0.834-17.732-1.8-32.699-2.9-1.801-0.133-10.15-0.333-25.051-0.6-9.933-0.2-16.983-0.983-21.149-2.35-4.367-1.467-9.434-2.2-15.2-2.2-5.833 0.3-9.733 0.45-11.7 0.45-2.366 0-7.283-0.601-14.75-1.801-7.667-1.333-12.283-2.1-13.85-2.3-2.034-0.233-5.067-1.433-9.101-3.6-3.066-1.7-5.5-3.217-7.3-4.55-1.167-0.867-1.983-3.217-2.45-7.051-0.433-3.833-0.25-6.833 0.55-9 0.433-1.267 0.534-2.55 0.3-3.85l3.65 0.901z"/>
		<path d="m34.6 45.55c-0.933-0.5-1.75-1.149-2.45-1.95l-0.75-1.05 3.2 3z"/>
	</g>
	<path d="m97.6 42.15c-1.456-0.177-3.156-0.36-5.1-0.551-3.7-0.366-6.983-0.633-9.85-0.8-1.733-0.1-2.85-0.134-3.35-0.1-1.066 0.066-2.383 0.1-3.95 0.1h-4.7c-0.867 0-2.867-0.533-6-1.6l-4.5-1.65 13.5 1.05c2.467 0.134 4.3 0.283 5.5 0.45 2.236 0.265 8.386 1.299 18.45 3.101z" fill="#282010"/>
	<path d="m44.95 41.05c0.866-0.1 2.083 0.101 3.649 0.601 2.233 0.732 3.934 1.217 5.101 1.449 1.899 0.4 4.399 0.717 7.5 0.95 2.3 0.167 4 0.25 5.1 0.25-4.3 0.366-7.816 0.75-10.55 1.15-1.5 0.233-2.434 0.149-2.8-0.25-0.534-0.5-1.25-0.8-2.15-0.9-1.366-0.134-2.75-0.717-4.15-1.75l-1.7-1.5z" fill="#282010"/>
	<path d="m157.35 56.15c-1.6 0.066-3.217 0.1-4.85 0.1-1.733 0-2.883-0.017-3.45-0.05-0.533-0.067-1.533-0.233-3-0.5-0.866-0.167-1.933-0.601-3.2-1.3-1.232-0.7-2.5-1.15-3.8-1.351-1.967-0.3-3.366-0.25-4.2 0.15-1.133 0.5-2.55 0.75-4.25 0.75-2.033 0-3.75-0.05-5.149-0.15-1.434-0.1-2.65-0.149-3.65-0.149-1.467 0-3.649-0.434-6.55-1.301l-3.95-1.349 4.35 0.2c3.266 0.2 5.8 0.417 7.6 0.649 1.566 0.2 3.184 0.184 4.85-0.05 2.134-0.333 3.834-0.5 5.101-0.5 3.133 0 7.917 0.3 14.35 0.9 2.233 0.1 3.3 0.417 3.2 0.95-0.033 0.3-0.133 0.566-0.3 0.8 0.2 0 1.316 0.35 3.35 1.05 2.067 0.666 3.483 1 4.25 1 1.13 1e-3 0.9 0.051-0.7 0.151z" fill="#282010"/>
	<path d="m178.25 50.35c0.592-0.01 1.15-0.027 1.675-0.05-0.108 0.021-0.216 0.037-0.325 0.05-5.066 0.634-7.666 0.95-7.8 0.95l-5.55-0.3c-4.3-0.767-6.934-1.35-7.9-1.75l-7.6-1.15 4.95 0.25c3.433 0.134 5.583 0.15 6.45 0.051 0.766-0.101 2.066 0.116 3.899 0.649 2.233 0.667 3.75 1.033 4.55 1.101 1.67 0.165 4.22 0.232 7.65 0.199z" fill="#282010"/>
	<path d="m165.05 19.75l-0.85 4.1 1.75 2.05-0.55 2.65c-0.734 1.733-2.018 2.6-3.851 2.6-1.566 0-3.167-0.117-4.8-0.35-1.6-0.267-2.633-0.55-3.1-0.85-0.601-0.4-1.184-0.983-1.75-1.75-0.7-1.034-0.984-2-0.851-2.9 0.134-0.933 0.616-2.133 1.45-3.6 0.733-1.267 1.517-2.4 2.35-3.4 0.5-0.6 1.334-1.917 2.5-3.95 1.167-1.833 2.283-3.05 3.351-3.649l6.7-3.8c0.633-0.367 1.766-0.767 3.399-1.2 1.434-0.367 2.351-0.75 2.75-1.15 0.434-0.467 1.033-0.95 1.8-1.45 1-0.7 1.667-1.2 2-1.5 0.967-0.767 2.334-1.25 4.101-1.45l-0.15 1.3c0 0.899 0.233 1.533 0.7 1.899 0.8 0.601 1.684 1 2.65 1.2-1.367 0.767-2.434 1.25-3.2 1.45-0.034 0-0.667 0.083-1.9 0.25-0.8 0.066-1.433 0.283-1.899 0.65-0.4 0.3-2.65 1.467-6.75 3.5-0.867 0.4-1.65 0.867-2.351 1.4-1.033 0.767-1.616 1.467-1.75 2.1-0.17 0.967-0.75 2.916-1.75 5.85z" fill="#46341C"/>
	<path d="m159.65 18.6c-0.301 0.834-0.45 1.8-0.45 2.9v2.6c1-0.767 1.883-2.216 2.649-4.35 0.768-2.167 1.25-3.633 1.45-4.4 0.134-0.466 0.667-1.149 1.601-2.05 0.467-0.433 0.916-0.816 1.35-1.15l-3.8 1.75 5.25-3.5c0.366-0.3 1.417-0.8 3.149-1.5 1.768-0.767 2.95-1.35 3.551-1.75l1.8-1.15 2.6-2.9 3.2 0.25 2.65 1.2c-1.167 0.767-2.234 1.25-3.2 1.45-1.167 0.066-2.017 0.1-2.55 0.1-0.967 0.067-1.384 0.334-1.25 0.8 0.133 0.534 0.116 0.967-0.051 1.3-0.133 0.233-0.517 0.667-1.149 1.3-0.367 0.4-1.617 1.033-3.75 1.9-2.067 0.867-3.25 1.5-3.55 1.9-0.268 0.367-0.867 0.95-1.801 1.75-0.833 0.667-1.3 1.15-1.399 1.45-0.2 0.6-0.5 1.684-0.9 3.25l-0.85 4.1 1.899-0.5c1.367-0.233 2.283-0.166 2.75 0.2l-1.75 1.75-0.05 0.2c0.101 0.2 0.517 0.417 1.25 0.65l6.7 2.35c-0.566 0.2-1.733 0.3-3.5 0.3h-5.55c-0.367 0-0.784-0.15-1.25-0.45-0.134-0.066-0.101 0.084 0.1 0.45 0.333 0.667 0.667 1.184 1 1.55 0.467 0.467 1.101 0.834 1.9 1.101 0.6 0.2 1.216 0.3 1.85 0.3 0.233 0 0.2 0.083-0.1 0.25-0.4 0.267-0.917 0.367-1.55 0.3-0.5-0.066-1.25-0.267-2.25-0.6-0.467-0.134-1.117-0.15-1.95-0.05-0.667 0.1-1.384-0.067-2.15-0.5-1.433-0.833-2.983-1.517-4.649-2.05-0.734-0.233-1.834-0.75-3.301-1.55l-2-1.1 2.601 0.399c1.733 0.167 2.533-0.066 2.399-0.7-0.267-1.333-0.333-2.567-0.199-3.7 0.133-1.2 0.482-2 1.05-2.4 0.8-0.6 1.683-1.383 2.649-2.35l-0.45 0.9z" fill="#372916"/>
	<path d="m163 25.9h2.95l-0.3 1.15-0.85 1.75c-1.566 0.6-3.134 0.8-4.7 0.6-0.967-0.133-1.699-0.417-2.199-0.85l-0.45-0.65 2.35-0.25c1.57-0.2 2.63-0.783 3.2-1.75z" fill="#282010"/>
	<path d="m167.9 13c0.3-0.2 0.816-0.483 1.55-0.85 0.399-0.2 1.183-0.567 2.35-1.1 1.167-0.5 2.083-0.967 2.75-1.4 0.934-0.567 1.567-1.1 1.9-1.6 0.633-0.933 1.183-1.6 1.649-2 0.566-0.5 1.2-0.816 1.9-0.95 0.967-0.166 2.517-0.35 4.65-0.55l-5.851 2.6c-4.1 3.7-7.217 6.233-9.35 7.6-1.4 0.9-2.534 2.117-3.4 3.65-0.667 1.2-1 2.133-1 2.8 0 0.6-0.683 2.167-2.05 4.7l-3.2 1.75c2.134-3.333 3.3-5.283 3.5-5.85 0.4-1.167 0.833-2.383 1.3-3.65 1-2.466 1.733-3.883 2.2-4.25 0.4-0.3 0.77-0.6 1.1-0.9z" fill="#282010"/>
	<path d="m163.9 10.7c-0.834 0.2-1.917 1.066-3.25 2.6-1.4 1.567-2.367 2.45-2.9 2.65-0.733 0.233-2.066 1.866-4 4.899l-2.7 4.45c2.333-4.3 3.601-7.233 3.8-8.8 0.134-0.934 0.733-2.033 1.801-3.3 0.566-0.667 1.232-1.417 2-2.25 0.366-0.567 1.5-1.351 3.399-2.351 2.134-1.133 3.917-1.7 5.351-1.7 1.333 0 2.717-0.483 4.149-1.45 0.7-0.5 1.267-1 1.7-1.5l0.9-1.45c0.366-0.6 1.683-1.167 3.949-1.7 1.167-0.267 2.283-0.483 3.351-0.65l-4.1 1.452c-0.97 0.367-1.75 1.4-2.35 3.1-0.3 0.866-0.5 1.683-0.6 2.45-5.43 1.967-8.93 3.15-10.5 3.55z" fill="#5C4525"/>
	<path d="m184.65 1.3c0.766 0.9 1.083 1.617 0.949 2.15-0.133 0.533-0.649 0.8-1.55 0.8-0.733 0-1.483-0.483-2.25-1.45l-0.95-1.5 0.601-1.15 0.95-0.15c0.77 0.033 1.52 0.467 2.25 1.3z" fill="#846230"/>
</g>
</svg>
