<?xml version="1.0" encoding="utf-8"?>
<!-- Generator: Adobe Illustrator 24.0.2, SVG Export Plug-In . SVG Version: 6.00 Build 0)  -->
<svg version="1.1" id="Layer_1" xmlns="http://www.w3.org/2000/svg" xmlns:xlink="http://www.w3.org/1999/xlink" x="0px" y="0px"
	 viewBox="0 0 300 300.1" style="enable-background:new 0 0 300 300.1;" xml:space="preserve">
<style type="text/css">
	.st0{fill:url(#SVGID_1_);}
	.st1{opacity:0.478;fill:#FFFFFF;enable-background:new    ;}
	.st2{opacity:0.459;fill-rule:evenodd;clip-rule:evenodd;fill:url(#SVGID_2_);enable-background:new    ;}
	.st3{opacity:0.478;fill-rule:evenodd;clip-rule:evenodd;fill:url(#SVGID_3_);enable-background:new    ;}
	.st4{opacity:0.208;fill-rule:evenodd;clip-rule:evenodd;fill:url(#SVGID_4_);enable-background:new    ;}
	.st5{opacity:0.652;fill-rule:evenodd;clip-rule:evenodd;fill:url(#SVGID_5_);enable-background:new    ;}
	.st6{opacity:0.242;fill-rule:evenodd;clip-rule:evenodd;fill:url(#SVGID_6_);enable-background:new    ;}
	.st7{opacity:0.459;fill:#FFFFFF;enable-background:new    ;}
	.st8{opacity:0.164;enable-background:new    ;}
</style>
<g>
	
		<radialGradient id="SVGID_1_" cx="1.8919" cy="179.595" r="406.1288" gradientTransform="matrix(1 0 0 -1 0 300.5858)" gradientUnits="userSpaceOnUse">
		<stop  offset="0" style="stop-color:#DDDDDD"/>
		<stop  offset="1" style="stop-color:#7E7E7E"/>
	</radialGradient>
	<path class="st0" d="M300,150c0,82.8-67.1,150-150,150S0,232.9,0,150.1c0,0,0,0,0-0.1C0,67.2,67.1,0,150,0S300,67.1,300,150
		C300,150,300,150,300,150z"/>
	<path class="st1" d="M198.2,164.8l-48.3,80l85.5-25.2l-85.7,29.8l59.5,25.1l-62-9.1l22.5,29.1L139,270l0.3,23l-7.8-22.8l-7.7,22.4
		l3.8-25.5l-23.4,18l18.7-29.7l-45.6,15.5l42.7-21.3l-66.9-1.9l70-3.1l-60.7-70.8l73.5,64.3l4.9-92.5l2.4,93.6L198.2,164.8
		L198.2,164.8z"/>
</g>
<g>
	
		<radialGradient id="SVGID_2_" cx="106.8565" cy="53.4708" r="171.561" gradientTransform="matrix(1.1678 0 0 -0.8563 25.8613 222.0835)" gradientUnits="userSpaceOnUse">
		<stop  offset="0" style="stop-color:#A3A3A3"/>
		<stop  offset="1" style="stop-color:#696969"/>
	</radialGradient>
	<path class="st2" d="M78.4,26.9c-0.8,0-2.7,0.7-4.8,1.4c-5.3,1.8-9.8,8.3-15.1,9.6c-1.1,0.3-1.9,0.5-2.6,0.8
		c0.7-0.6,1.5-1.3,2.2-2.4c3.4-5.1,10.6-9.3,7.5-8.7c-1.3,0.3-2.8,0.9-4.4,1.7c0,0,0,0-0.1,0C34.6,48.8,14.7,77,5.6,109.6
		c0,1,0,1.9-0.2,2.7c-0.5,2.1-0.4,4-0.8,5.8c-0.5,1.9-0.4,3.8-1.2,5.4c-1.1,2.1-1,4.4-0.4,6.7c0.6,2.4,0,4.3,0,6.7
		c0,2.4,0,4.1,0.8,6.2c1.4,3.4,2.4,7.2,3.3,10.8c0.1,0.6,0.3,1.1,0.4,1.7c0.6,2.5-0.7,7,0.4,9.2c0.7,1.4,2.1,6.7,4.6,6.7
		c2.8,0,4.1,0.7,5.4,3.3c1.4,2.9,1.7,6.3,2.5,9.6c0.6,2.4,1.7,6.2,3.4,7.9c1.1,1.1,5.4,5.1,5.4,1.7c0-2,0.1-5.5,2.1-5
		c1.4,0.4,1.6,4,2.9,3.3c0.6-0.3,1.1-0.7,1.7-0.8c2.7-0.7,4.3-0.4,6.3-1.7c2.2-1.3,4.8-5.8,8-5.8c2.4,0,7.5-0.8,7.5,2.5
		c0,1.6,1,6.1,2.4,7.5c-1.2,1.5-1.4,2.7-0.4,4.7c1,1.9,1.6,2,1.6,4.8c0,1.1-4.6,1.4-5.6,1.6c-2.5,0.5-2.6,0.5-3.2,2.8
		c-0.5,2.2,1.2,4.4,1.6,6c0.5,2,1.9,3.2,2.4,5.2c0.5,2.2,1.1,1.3,0.4,4c-0.4,1.7,4.8,2.5,6,2.8c2.2,0.5,3,1.1,4.8,1.6
		c1.8,0.4,5.3-3.6,6.8-4.4c3.4-1.7,3.1,2.5,4-2.8c0,0-0.2-0.7-0.3-1.1c8,1.9,20.7,2.3,22.8,3.8c2.7-2.6,8-3.9,11-6.3
		c1.7-1.3,7-1.3,9.2-2.4c1.7-0.9,2.5-2.7,3.2-4c1.3-2.6,0.5-3.2,3.6-4c1.8-0.4-1.5-3.5-2.8-4.8c-1.7-1.7-1.9-2.6-2.4-5.2
		c-0.4-1.9,1-4.8,1.6-6c1.3-2.5,3.9-4.9,5.6-7.2c2.4-3.2-0.7-6.7-2.8-8.8c-0.9-0.9-4.4,1-5.2,1.2c-1.8,0.4-2.8-5.7-2.8-6.8
		c0-3.9-5.4-7.4-7.2-10.4c-1.2-2-5.4-2.6-6.4-2.4c-2.4,0.5,1.6,9.5,2,10.4c1.3,2.6,1.6,5.7,1.6,8.8c0,2.4-0.7,3.9-1.2,6
		c-0.6,2.3-1.4,3.3-3.6,4.4c-2.3,1.2-4,1.2-6.8,1.2c-1.2,0-3.2-1.9-4-2.4c-0.4-1.4-10,8.7-10,15.2c0,5.6,0.6,6.5-3.2,8.4
		c-1.2,0.6-1.9,1.1-2.8,1.6c-0.9-0.3-1.7-0.6-2.8-1.2c-1.9-1-2.9-2.7-4.4-4.8c-1.4-1.9-2.7-3.5-4-4.8c-1.7-1.7-3.7,0-4.4-2.8
		c-0.1-0.4-0.3-0.7-0.5-1.1c2.9,1.1,4.5,1.7,7.8,0.9c1.9-0.5,7.4-1.7,8.4-3.7c1.2-2.4,0.6-3.4-0.8-5.8c-1.5-2.5-4.7-4.6-5.4-7.5
		c-0.5-2-2.5-4.4-2.5-7.1c0-2.9,6-4.4,5.4-7.1c-0.6-2.9-1.9-5.9-1.2-9.2c0.8-4,4.2-6,6.7-9.2c2.5-3.2,2.7-6.2,0.4-9.6
		c-3-4.5-2.6-0.9-5.9-3.3c-1.5-1.1-3-2.7-5-3.7c-1.6-0.8-4.1-1.9-4.6-3.7c-0.5-1.8-0.3-4-1.2-5.8c-1-1.9-1.9-4-1.2-6.7
		c0.7-2.7,1.1-3.7,3.8-5c1.9-1,3.4-1.3,5.9-2.5c2.4-1.2,3.5-1.7,6.3-1.7H85c3.6,0,6.9-1.7,10.5-1.7h8.8c2.3,0,3.8-0.4,5.4-0.8
		c1.8-0.5,3-0.9,4.6-2.1c1.5-1.1,2.9-2.9,4.6-3.7c2.4-1.2,4.4-2.1,5-4.6c0.3-1.4,1-3.7,1.3-5c0.1-0.5,1.3-5.4,0.4-6.2
		c-1.9-1.9-4.1-2.1-6.7-3.3c-2.4-1.2-1.2-2.1-1.2-4.6c0-2.3,0.4-5.8,2.1-7.5c1.8-1.8,3-5.1,5.9-5.8c3-0.8,5.3-1.7,8.8-0.8
		c2.1,0.5,5.9,1,8,0c1.7-0.9,5-2.4,5-5.4c0-2.2-0.2-4.3-1.7-5.4c-0.8-0.6-5.1-2.8-5.4-4.2c-0.7-2.7-2.8-5-6.3-7.1
		c-2.3-1.4-4-2.3-6.7-2.9c-2.6-0.6-5.8-3.7-8.4-3.7c-2.1,0-5-0.5-7.1,0c-2.1,0.5-3,1.2-5.4,1.2c-2.4,0-3.9-0.8-5.9-0.8
		c-2.2,0-4,0.5-5.4,1.2c-1.6,0.8-3.3,1.2-5,2.1c-1.4,0.7-2.1,2.1-3.3,3.3c-1.3,1.3-2,3.4-4.6,2.1c-1.2-0.6-3.7-2.3-5.9-1.2
		c-1.4,0.7-4.2,2.5-5.4,3.7c-2,2-3,3.5-4.2,5.8c-1,2-2.8,4.4-3.3,6.7c-0.6,2.5-1.5,4.4-2.9,6.2c-1.4,1.9-2.3,3.8-4.6,5
		c-1.5,0.7-2.9,2.3-5.4,1.7c-1.4-0.3-3.8-2.1-3.8-3.7c0-2.5,0.7-4.4,1.3-6.7c0.4-1.5,2.7-9.8,3.8-8.7c2.2,0,4.5-1.8,6.3-2.9
		c2.1-1.3,4.1-3,6.7-4.6c3.9-2.3,8.8-6.2,12.2-9.6C78.9,27.6,79.2,26.9,78.4,26.9L78.4,26.9z M101,222.9c-0.5,0.5-1,1-1.3,1.7
		C101.2,223.9,101.6,223.3,101,222.9z M99.8,224.5c-1.4,0.7-3.7,1.4-7.7,2.4c-2.8,0.7-6.1,1.1-2.8,3.6c2.6,2,5.1,2,8.4,2
		c1.7,0,1.6-4.9,1.6-6C99.3,225.8,99.5,225.1,99.8,224.5L99.8,224.5z M157.8,47.8c-1.1,0.1-2.1,0.2-3,0.2c-1.5,0-4.2,4.4-4.8,5.6
		c-1.3,2.6-1.6,5.5-1.6,8.4c0,2.9,0.6,4.6,1.2,7.2c0.7,2.8,1.5,5.4,2.8,8c1.8,3.5,5.1,6.8,7.2,9.6c1.7,2.3,2.4,3.4,5.2,4.8
		c2.5,1.2,4.3,1.6,8,1.6c4.2,0,10.9-1.9,14.4-4c2.1-1.3,4.5-2,6.8-3.2c2.3-1.1,3-4.5,4-6.4c1.1-2.2,0-5.2,1.2-7.6
		c1.3-2.7,0.2-4.9-1.2-6.8c-1.6-2.2-5.3-4.3-7.2-4.8c-1.6-0.4-3.3-3.2-4.8-4.4c-2.3-1.7-4.1-2.8-6-4c-1.7-1-2.7-0.7-4-2
		c-1.2-1.2-0.7-1.5-2.8-2c-1,0.7-3.8,1.2-6.4,1.2c-2.1,0-4-0.7-6-1.2C159.9,47.8,158.9,47.8,157.8,47.8L157.8,47.8z M250.7,69
		c-1.2,0.1-3.7,2.8-4,4.1c-0.5,1.9-0.8,3.3-0.8,5.2c0,1.7-0.4,3.8,0,5.2c0.6,2.6,1.8,2.6,0,4.4c-1.5,1.5-0.1,1.8,2.4,2.8
		c1.8,0.7,3.3,1,4.4,2c1.4,1.4,1.1,2.5,3.2,3.6c1.6,0.8,2.8,3.2,3.6,4c1.4,1.4,5-1.5,6-2c1.8-0.9,2.7-2.2,4-3.6
		c1.6-1.6,1.2-3.7,0.8-5.2c-0.5-2.1-2.6-3.3,0.8-1.6c3.5,1.7,2.3-1.3,1.6-2.8c-1-2.1-2.5-4.4-4-6.4c-1.5-1.9-2.2-3-4-4.4
		c-1-0.8-4.5-1-5.2-1.2c-1.5-0.4-2.1-2.1-3.2-3.2c-1.2-1.2-3.3-0.8-5.2-0.8C251,69.1,250.8,69,250.7,69L250.7,69z M220.6,75.5
		c-1.3-0.1-2.5,0.3-3.5,1.2c-2,2-2.6,3.9-4.8,5.6c-1.6,1.2-3.8,1.6-5.2,2c-2.3,0.6-4.8,0.9-6.8,0.4c-2.5-0.6-3.8,0.6-5.2,1.6
		c-1.9,1.4-1.8,2.6-4,3.2c-2.2,0.6-0.3,2.3-4,1.6c-0.5-0.5-4.3,4.3-4.8,4.8c-1.5,1.5-2.9,2.5-4.8,4.4c-1.9,1.9-2.4,4-0.4,6
		c1.5,1.5,3.2,4.2,3.6,6c1.1,4.2,3.3,7.4,5.2,11.2c1.8,3.6,3.6,3,3.6,7.2c0,2.7,1,3.5,3.6,4c2.4,0.5,5,0.4,7.6,0.4
		c2.5,0,2.8,0.6,2.8,3.2c0,1.1-2.7,3.5-3.2,4c-1.4,1.4-1.6,1.9-1.6,4.4c0,1.9,4.5,2.7,6.4,3.6c2.3,1.1,5-0.6,6.4-2
		c1.6-1.6,1.7-4.5,2.8-6.4c1.3-2.1,0.5-5.4,1.6-7.6c1.2-2.4,2.2-4.7,2.8-7.2c0.4-1.7,1.4-2.7,3.2-3.2c2.5-0.6,3.1-0.1,4.8,1.2
		c1.5,1.1,3.8,0.8,6,0.8c2.6,0,4.3-0.8,6-1.6c1.8-0.9,1.4,5,1.2,6c-0.6,2.3,1.2,4,2,6c0.9,2.4,2.4,2.2,2.4,5.6
		c0,2.2-3.2,0.2-3.2,3.2c0,1.4,2.4,2.3,2.8,4c0.5,2-3.1,1.7-0.4,4.4c1.9,1.9,4,1.6,6.8,1.6c3.8,0,1.7-0.7,4,2.4c1.2,1.7,1,2,4,2
		c3.2,0,3.2-0.6,4,2.8c0.7,2.8-0.6,3.4-2,4.8c-1.4,1.4-3.7,1.3-4.8,2.4c-1.6,1.6,3.1,4.6,4,5.2c3.3,2,5.9,0.4,8.4-2
		c2.5-2.5,4.2-2.4,5.2-6.4c0.7-2.8-1.8-7.8-3.6-9.6c-1.4-1.4,1.4-5.5,1.6-6.4c0.6-2.3,0.8-4.3,0.8-6.8c0-2.3,2.6-3.6,4.4-4
		c2.8-0.7,3.2-0.4,3.2-3.6c0-3.1-0.8-3.5-2.4-5.6c-1.6-2.1-6-2.6-8-5.2c-1-1.3,2.8-3.4,3.2-3.6c2.3-1.2-3.7-3.9-4-4
		c-1.9-1-3.4,0.5-5.2-0.4c-2.1-1-4.6-5-6-6.4c-1.4-1.4-2.9-2-4.4-2.8c-2-1-3.6-1.2-5.2-0.8c-1.7,0.4-0.6,5.2-0.4,6.4
		c0.5,2.3-2.5,4.1-3.2,6.8c-0.5,2-2.3,2.8-4,3.2c-1.8,0.5-2.4-5.5-2.4-6.8c0-2,2.5-3.3,3.2-4.8c0.8-1.6-0.3-4.7-0.8-5.6
		c-0.5-1-5.5,0.8-6.4,0.8c-2.3,0,1.7-5.7,2-6c2.1-2.1,2.9-2.1,2.4-4c-0.1-0.5-7.5-3.1-8.4-3.6c-2.7-1.4-3.2-3-3.2-5.6
		c0-1.8,0.4-4,0.4-6c0-2.9,0.5-3.9-2-5.2C223.3,76,221.9,75.6,220.6,75.5L220.6,75.5z M150.1,80.9c-1.6-0.2-3.2,0.9-3.7,1.9
		c-1.2,2.3,0.3,3.6,1.2,4.8c1.3,1.7,1,2.6-0.8,4.4c-1.8,0-6.2,5.2-10.4,5.2c-2.6,0-5.7,0.9-7.2,1.6c-2,1-2.4,2.3-2.4,4.4
		c0,0.8,2.4,2.4,2.8,4c0.5,2-4.8,1.4-5.6,1.2c-2-0.5-2.3-1.1-4.4-1.6c-2-0.5-2.8,4.2-2.8,5.6c0,2.4,2,2.9,2,5.6
		c0,0.8-4.8,2.6-5.2,2.8c-2.4,1.2-4.4,2.8-5.6,5.2c-1.2,2.4,1.4,4.3,2.4,4.8c3,1.5,4,0.4,6.4,2.8c2.8,2.8,3.3,5.9,6.8,7.6
		c2.5,1.3,4.7,1.2,7.6,1.2c3.8,0,5.6-3.4,7.6-6c2.2-2.9,0.2-5.5-2.4-6.8c-4-2-10.5-3.7-14.4-6.8c-1.9-1.6-3.5-2.5-1.2-4.8
		c2.6-2.6,3.4-3.9,6-5.2c1.8-0.9,3.5-1.2,6-1.2c3.7,0,4.5-1.5,7.6,1.6c2.2,2.2,2.8,2.4,6,4c3.1,1.6,3.7-0.3,6,2
		c1.7,1.7,3.8,2.2,6.4,1.6c2.8-0.7,4.6-5.3,6-7.2c1.7-2.3,2.7-4.9,2-7.6c-0.7-2.6-2.4-2-2.4-5.2c0-3.1,1-3.2-4-3.2
		c-3.7,0-4.8-1.2-4.8-4.4c0-1.6,1.2-3.7,1.2-6c0-2.4-3.6-4.3-5.2-5.6C151.1,81.2,150.6,80.9,150.1,80.9L150.1,80.9z M279.1,102.3
		c-0.7-0.1-1.4,0.7-2,1.2c-2.5,0.6,0.6,7.7,2,9.2c4.1,4.1,1-0.6,0-3.2c-0.9-2.3,2.5-2.2,3.6-2.8c1.3-0.7-2.3-3.5-2.8-4
		C279.6,102.4,279.3,102.3,279.1,102.3L279.1,102.3z M85.1,140.5c-0.8-0.1-1.4,0.6-1.8,2.1c-0.5,2.1,1.2,4.2,1.2,6.4
		c0,2.2-2.3,4.4-2.8,6.4c-0.7,2.7-0.5,2.5-2,4c-0.5,0.5-1.3,0-2,0c-1.7,1-0.7,4-1.2,6c-0.5,2-1.2,2.6-1.2,4.8c0,1.6-0.8,3.2-0.8,5.2
		c0,2.6-0.1,3,0.8,4.8c1,2,2,2.4,3.6,3.6c1.7,1.3,4.3,1,6.4,0c2.3-1.2,3.1-1.6,5.2-3.2c1.7-1.3,3.5-2,5.2-2.4
		c1.5-0.4,3.9-0.9,5.2-1.2c1.3-0.3-0.9,3,0,4c1.6,1.6,4.1-1.7,4.4-2c0.9-0.9-2.9-5-3.2-5.6c-0.8-1.5-4-2-5.6-2.8
		c-2.7-1.4-3.4-2.2-5.6-4.4c-3-3-1.3-3.1-3.2-3.6c-2.2-0.6-1.7,1-2.8-4.4c-0.7-3.4,1.7-5.1,2.4-8c0.7-2.7,1.7-4.1,0.4-6.8
		C86.8,141.6,85.8,140.6,85.1,140.5L85.1,140.5z M220.3,153.5c-1.2,0.3,0.1,2.7-0.8,3.6l-2,2c-4.4,4.4-3,5.9-0.8,10.4
		c1,2.1,1.8,4.6,2.4,6.8c0.7,2.8,3.9,2.8,6.4,2.8c3.3,0,3.3,1.4,6.4,2c3.5,0.7,4-4.2,4-6.8c0-3.1-0.1-5.4,1.2-8
		c2.3-4.7-0.3-7.9-3.2-10.8c-2.1-2.1-5.2-0.1-7.2,0.4C223.5,156.6,222.5,156.2,220.3,153.5L220.3,153.5z M9.8,173.8
		C9,173.4,9,179.1,9,180.6c0,2,0.4,3.4,0.8,5.2c0.7,2.7,1.3,2.7,2.8,1.2c0.6-0.6,0-5,0-6c0-2.4-1-3.9-1.6-5.2
		C10.7,175.1,10.2,174.5,9.8,173.8L9.8,173.8z"/>
	
		<radialGradient id="SVGID_3_" cx="106.8565" cy="53.4708" r="171.561" gradientTransform="matrix(1.1678 0 0 -0.8563 25.8613 222.0835)" gradientUnits="userSpaceOnUse">
		<stop  offset="0" style="stop-color:#A3A3A3"/>
		<stop  offset="1" style="stop-color:#696969"/>
	</radialGradient>
	<path class="st3" d="M77.7,23.6c-2.9,0.3-5.8,1.8-8.1,3.1c-0.4-1.1-1-1.7-1.8-2.1C29,50,2.7,93,0.2,142.3c0,0,0,0,0,0
		c0.5,2.7,1.2,5.3,2.3,7.8c2.7,6.4,0.2,14,4.1,20c1.7,2.3-1.8,4.8-1,7.7c0.5,4.6-0.2,11.1,4.6,13.5c5.1,0.4,6.9-5.9,5.7-10
		c-0.8-4.3-0.3-3.2,0.6,0.5c1.2,6.7,3.9,15.3,11.7,16.6c3.2,1,3.3-3.6,5.3-3.3c3,1,5.4-1,8.2-1.6c4.4-1.5,7-7.4,12.1-6.2
		c2,1.5,1.3,4.8,2.3,7.1c-1.1,2.4,0.4,4.7,1.2,6.9c-4.3,0-9.4,3.5-8,8.3c0.6,5.1,4.7,9.3,4.5,14.5c2.3,5.1,8.7,4.2,12.9,6.5
		c4.7,0.9,7.1-5.2,11.7-4.4c2.3-2.1,3.5-4.3,7.1-2.6c4.2,0.4,3.7,0.6,0.3,2.4c-2.8,1.4-0.4,5.8,1.5,7.2c3.7,2,8.9,3.9,12.8,1.5
		c3.6-2.9,0.8-9.1,5.7-11c4.8-2.9,9.9-5.3,15.5-6.2c5.1-0.8,5.1-7.3,9.3-9.2c3-3.8-1.4-7.4-3.6-10.2c-2.7-5.6,3.6-9.8,6.1-14.1
		c3.1-5.5-2.2-14.2-8.5-13.1c-3,1.2-1.4-3.7-2.9-5.4c-2.3-4.8-6.2-9-10.6-12c-3.3-2.3-10-1.2-9.4,3.8c0.1,5.2,3.6,10.4,4,15.1
		c-3.6-4.6-10.4-4.8-13.4-10c-1.4-2.4-5.6-3.1-3.9-6.5c2.5-5.3,4.8-12.5,0.2-17.3c-1.1-2.3-5.1,0.2-4.8-2.8
		c-1.4-3.5-5.2-4.9-8.3-6.2c-2.9-2.6-8-3.7-8-8.3c-1.2-3.3-3.7-8.2,0.6-10.3c7.8-5.1,17.4-3,26-5.1c8.3-0.6,17.9,0.7,24.5-5.7
		c4.3-2.9,9.1-6.2,9.5-11.9c1-4,2.5-9.6-2-12.2c-1.6-1.9-6.4-1.3-5.2-4.9c0.5-6,5.9-11.7,12.3-10.3c4,0.7,8.5,1.1,12.2-1
		c-0.5,6,1.5,12.3,3.7,17.5c-5.3,0.2-8.6,7.3-4.6,11.2c-3,3.3-7.7,5.2-12.3,5.6c-4.9,0.3-10.3,5-8.3,10.2c-3.1-1.6-8-1.7-9.1,2.4
		c-1.5,2.9-1.5,6.6,0,9.4c-4.9,2.3-11.2,6-10.1,12.3c1.4,6.2,10.1,4.7,12.1,10.3c5.1,8.3,19.3,9.2,24,0.1c3.5-3.8,2.4-10.5-2.7-12.4
		c-4.6-2.6-10.2-3.5-14.2-7.1c3.7-5,12.3-7.2,16.8-2.1c3.5,3.5,9,3.1,12.9,6.2c5.9,2.4,11.4-2.6,13.6-7.8c2.9-4.1,4.5-10.4,0.8-14.4
		c0.2-1.9-0.9-5-1.2-5.8c3.5,0.9,7.2,0.7,10.7,0.2c-3.6,2.7-6.6,8.1-3.1,12.1c4.1,5.4,5.2,12.3,9.2,17.7c3,3.5,1.9,9.6,6.7,11.4
		c2.8,1.6,6.1,1,9.2,1.3c-3.7,2.7-6,8.9-1.8,12.2c4.7,3.2,12.4,5.1,16.3-0.4c4.9-6.4,3.9-15.2,8.2-22c1.6-2.8,4.7,1.8,7.2,1
		c2.2,1.3,7.6-2.5,7.2,0.8c0.2,3.7,1.6,7.4,4,10.1c-2.9,1.9-3.8,5.9-1.1,8.4c0.9,1.9-1.3,4.6,0.9,6.5c2.6,3.3,7,2.9,10.6,3.7
		c1.9,2.2,4,4.5,7.3,4c1.9,1.9-3.4,2.7-4.7,4.1c-4.1,3.4,0.6,8.9,4.2,10.5c4.3,2.5,9.8,1,12.9-2.7c4.8-3.2,7.6-9.8,4.4-15.1
		c-1.1-2.3-3.4-4.6-1.4-7.2c1.3-2.9,0.8-6.8,2.4-9.2c3.2-1.1,7.5-3,6.6-7.2c0.7-5.6-4.9-9.6-8.6-11.8c2.8-2,2.2-6.2-0.9-7.6
		c-3-3.5-8.8-1.3-11.3-5.4c-3.8-4.1-9.2-9.2-15.3-7.2c-2.1,0.3-3.1,4.7-4,0.8c-0.7-2.2-6.1-1.5-2.7-3.6c2.9-3.1,0.5-7.9-3.4-8.5
		c-2.8-1.3-7.6-1.7-7-5.9c0.5-4.6,1.3-10.9-3.8-13.4c-4.9-2.6-11.5-0.8-13.8,4.4c-2.6,3.4-7.3,3.8-11.2,3.6
		c1.1-4.1,1.4-8.4,2.1-12.5c-0.4-6.3-6.6-9.4-11.4-12.3c-3.9-3.3-7.9-6.6-12.6-8.8c-2.5-2.6-6-3.7-9.4-2.2
		c-5.9,0.8-12.8-3.4-18.1,0.7c-1.9,3.4-2.8-2.6-5.4-3c-3.9-2.1-4.6-7-8.5-9.1c-5.4-3.4-11.4-5.6-17.2-8.1c-6.3-1.5-12.6,1.6-19,0.3
		c-6.9-0.1-13.8,3-18.1,8.5c-1.8-1.2-7.8-0.6-4.2-2.9c2.1-1.8,5-5.7,1.6-7.7C79.9,23.6,78.7,23.6,77.7,23.6L77.7,23.6z M64.6,43.4
		c-0.3,0.5-0.6,1-0.9,1.5C60,50.6,59,58.5,52.8,62.3c-3.2,1.8-3.1-2.6-2.3-4.6c1.5-3.2,1.1-8.1,5.5-9C59.3,47.8,61.7,45.1,64.6,43.4
		L64.6,43.4z M253.3,65.8c-1.2-0.1-2.5,0-3.6,0.1c-7.2,2.8-7.8,11.8-6.9,18.3c0.8,2.6-2.4,5.7,0.7,7.6c2.9,2.2,7.4,2.6,9,6.2
		c3.3,1.8,5.5,7.6,10.1,5.3c5.2-2.2,10.9-6,11.3-12.1c2.5-1.1,4-4,2-6.3c-2.3-5.7-5.9-11.6-11.6-14.2c-3.3-0.1-5.1-2.6-7.5-4.2
		C255.7,66.1,254.5,65.9,253.3,65.8L253.3,65.8z M159.6,91.6c0.2,0,0.4,0.3,0.7,0.9c3,1.6,2.9,2.4-0.7,1.4
		C158.7,93.6,159,91.6,159.6,91.6L159.6,91.6z M279.4,99.1c-0.5-0.1-1.1,0-1.6,0.1c-5.8,1.6-5.8,9.1-2.8,13.2c1.4,2.9,5.5,7.4,8.5,4
		c1.7-1.8,0.4-4.5-0.2-6.3c3.7-1.6,3.7-6.9,0.2-8.7C282.3,100.3,280.9,99.3,279.4,99.1L279.4,99.1z M243.5,113.4
		c0.1-0.1,0.1,0,0.1,0.2c-0.8,3.3-4.2,6.2-1.3,1.5C242.6,115,243.3,113.6,243.5,113.4L243.5,113.4z M221.3,149.6
		c-0.1,0-0.3,0-0.4,0.1c-4.7,0.2-3.5,6.5-6.9,8.3c-4,3.8-2.2,9.9,0.3,13.9c1.2,4.4,3.2,10.3,8.7,10.2c4.4-0.3,9,4.2,13,0.9
		c5.2-4,2-11.2,4.6-16.5c2.5-6.3-2.2-13.9-8.6-15.3c-3.4-0.4-7.6,3.5-9.9-0.8C221.8,150.3,221.7,149.7,221.3,149.6L221.3,149.6z
		 M80.4,150.5c-1.1,1.5-2.3,6.7-3.7,5.4C77,153.7,79.2,151.5,80.4,150.5z M96.3,181.4c0.2-0.1,0.6,0,1.5,0.3l0.2,0.5l0.1,0.3
		C97.6,183.5,95.7,181.7,96.3,181.4L96.3,181.4z M84.9,187.4c0.8,0,0.9,0.3-0.9,2l-0.1,0.1c-2.5,4.3-3.9,9.2-3.7,14.2
		c-1.7,3.3-5.4,1-6.6-1.5c-2.7-2.6-3.2-4.1,0.8-4.6c4.3-1,8.5-5.1,7-9.8C82.6,187.9,84.1,187.5,84.9,187.4L84.9,187.4z"/>
	
		<radialGradient id="SVGID_4_" cx="106.8565" cy="53.4708" r="171.561" gradientTransform="matrix(1.1678 0 0 -0.8563 25.8613 222.0835)" gradientUnits="userSpaceOnUse">
		<stop  offset="0" style="stop-color:#A3A3A3"/>
		<stop  offset="1" style="stop-color:#696969"/>
	</radialGradient>
	<path class="st4" d="M78.7,18C31.9,43.4,0,93,0,150c0,15.9,2.5,31.2,7.1,45.6c2.7,1.3,5.9,1.5,8.5,0c3.7,6.5,13,11,19.5,5.7
		c4.8-1.8,10.1-2.3,13.9-6.1c2.5-2.4,1.3,4.1-1.3,4c-5.5,4.9-4.7,13.3-1.2,19.1c1.9,4.7,2.2,10.9,7.4,13.4c4.6,2.6,10,4,15.2,4.3
		c4-0.4,6.9-4,10.9-4.5c2.3,7.3,11.2,10.3,18.2,9.6c5.3-0.5,8.9-5,9.7-10c1.8-5.6,8.7-5.8,13.4-7.8c4.9-1.2,8.7-4.5,11.2-8.7
		c3-3.2,6.3-7.4,4.4-12c-0.7-3.5-6.4-6.6-2.8-10.2c4.4-4.8,7.6-11.8,4.3-18.1c-1.9-4.3-5.9-8.1-10.8-8.6
		c-2.9-8.8-10.4-16.7-19.6-18.7c-6.3-0.7-12.7,5.6-11.5,12c-3.4-2.2-0.2-5.5-0.1-8.5c1.6-6.9-0.8-15-7.5-18.3
		c-3.6-2.9-6.8-6.5-11.4-8c-3-1.6-6.3-5.3-5.5-8.8c9.7-3.6,20.3-3.1,30.4-4.3c2.1,0.7,6.9-2.4,6,1.5c-0.4,2.3-3.9,2.7-5,4.9
		c-5,5-5.8,14.4,0.4,18.9c3.9,2.7,8.5,4.6,11.1,8.8c9,9.5,28,6.6,32.4-6.3c2-4.1,1-9.1-1.6-12.7c5.8,2.8,13.4,5.5,19.1,0.8
		c3.8-2.3,6.5-6,8.3-10c4,7.4,6.8,15.5,11.4,22.5c1.2,2.4,5.7,2.5,5.6,4.6c-1,7.5,5.7,13.8,12.9,14.4c2.8,0.6,5-0.1,3.5,3.5
		c-0.6,7,3.1,13.4,5.8,19.6c4.4,6.1,12.6,7,19.4,8c7.6,1.2,12.8-6.6,13.1-13.4c0.3-4.1,1.2-8.2,1.8-12.2c3.2-0.8,0.4,2.7,0.3,4.7
		c-1,10.7,11.8,18.3,21.2,14.2c9-3.3,16.4-13.6,13.1-23.3c-1.2-2.8-2.5-5.7-1.3-8.8c0.5-5,7.2-5.6,7.9-10.6c2.2-6.3-1.2-13-5.9-17.2
		c5.1-0.3,9.1-5.8,7.7-10.8c4.3-6,0.7-14.8-5.8-17.3c-1.8-1.1-5.7-0.2-2.7-3c2.3-4,0.7-8.4-1.4-12.1c-3.3-7.2-9.4-12.9-16.7-15.7
		c-6.7-5.7-18.7-4.9-22.8,3.4c-3.9,5.8-2.5,13.4-3.3,19.6c-2.9-1.9-0.2-5.8-1.5-8.6c-1.3-8.1-10.1-13.6-17.9-11.2
		c-3.7,1-6.8,3.5-9.4,6.1c2-7.6-2.8-15.2-9.3-18.8c-7.9-5.4-15.2-12.2-24.6-15c-5.3,0.4-10.6,0.1-15.9-0.5c-2.5-0.5-5.2,0.8-7.3,0.8
		c-5.4-4.7-9.4-11.3-16.4-13.7c-7.6-4-16.2-7.3-24.9-5.7c-7.4,0.7-15.5-0.1-22.1,4.1C86.3,20.9,82.6,18.3,78.7,18
		C78.7,18,78.7,18,78.7,18L78.7,18z M131.5,66.6c0.7-0.1,1.3-0.1,2,0.1c2.1,0.6,5.6-0.2,7,0.8c-0.4,2.5,2.8,6,0.9,7.8
		c-3.2,2.8-4.9,7.4-3.8,11.6c-3.9,2.7-3.8,1-3-2.6c0.6-5.7-2.3-11.9-7.7-14.1C127.7,68.4,129.5,66.9,131.5,66.6L131.5,66.6z
		 M267.2,106.9c0.2-0.1,0.4,0.2,0.4,1C265.9,109.9,266.6,107.1,267.2,106.9z M225.8,134.2l0.5,0.2l0.3,0.1c2,1.1,5.3-1,5.7,2.1
		c2.1,2.9-0.1,5.8,0.2,8.9c-1.3,1-4.8,1-6.8,0.7c-2.5-1.4-4-1.9-2.2-5.1C224.3,138.8,224.4,136.2,225.8,134.2L225.8,134.2z"/>
	
		<radialGradient id="SVGID_5_" cx="-22.6045" cy="34.6366" r="56.7578" gradientTransform="matrix(2.0419 0 0 -0.4897 160.5776 21.8289)" gradientUnits="userSpaceOnUse">
		<stop  offset="0" style="stop-color:#FFFFFF"/>
		<stop  offset="1" style="stop-color:#FFFFFF;stop-opacity:0"/>
	</radialGradient>
	<path class="st5" d="M150,0c-37.5,0-71.7,13.8-98,36.5c5.6-2.2,31.1-13.4,33.3-14.5c19.6-9.8,52.8-13.4,74.3-8
		c2.1,0.5,4.3,1.1,6.4,1.6c10.3,2.6,22,1.6,32.8,1.6c6.6,0,6.3-3.8,3.8-7.7C186.2,3.4,168.5,0,150,0L150,0z"/>
	
		<radialGradient id="SVGID_6_" cx="-21.378" cy="132.1566" r="56.7578" gradientTransform="matrix(2.0178 0.4172 7.508000e-02 -0.645 172.2267 97.4533)" gradientUnits="userSpaceOnUse">
		<stop  offset="0" style="stop-color:#FFFFFF"/>
		<stop  offset="1" style="stop-color:#FFFFFF;stop-opacity:0"/>
	</radialGradient>
	<path class="st6" d="M174.9,4.2c-37-7.7-72.9,3.5-102.4,28c5.9-1.8,32.8-11.3,35.1-12.3c20.8-8.9,54.2-6.8,74.6,4.7
		c2,1.1,4.1,2.3,6.1,3.4c9.8,5.5,21.5,6.6,32.1,8.8c6.5,1.3,6.8-3.7,4.9-9.4C210.2,16,193.2,8,174.9,4.2L174.9,4.2z"/>
</g>
<g>
	<g>
		<path class="st7" d="M56,117l-2-8.4l-2.8,9.8l2.1-10.4l-6.4,7.7l6.2-8.6l-7.8,2.9l7.7-3.2l-6.8-2.6l6.9,1.8l-3.7-7.4l4.3,6.6
			L54,96l-0.1,9.7l4.7-9.2l-3.4,9.6l7.1-5.5L55,106l7.5,1l-7.7,0.1l5.6,5.5l-6-4.5L56,117L56,117z"/>
		<path class="st7" d="M261.5,129.6l3.6,7.8l0.9-10.2l-0.1,10.6l4.8-8.8l-4.4,9.6l7.1-4.3l-6.9,4.6l7.1,1.3l-7.1-0.4l5.1,6.6
			l-5.4-5.6l1.4,9.2l-1.8-9.5l-2.8,9.9l1.5-10.1l-5.9,6.8l6-6.6l-7.5,0.5l7.5-1.6l-6.5-4.3l6.8,3.2L261.5,129.6L261.5,129.6z"/>
		<path class="st7" d="M248.4,188.4l0.1,11.7l7.1-12.1l-6.2,13l11.3-8.1l-11.2,9.3l11.7-1.2l-11.6,1.7l8.5,5.7l-8.9-4.6l2.8,11
			l-3.8-10l-3.5,12.1l3.2-12.7l-9.3,10.6l7.8-11.6l-11.5,5l11.6-4.7l-10-3.7l10.6,2.3l-5.9-9l6.9,7.9L248.4,188.4L248.4,188.4z"/>
		<path class="st7" d="M68.8,67.7l1.9-8.2l-5.3,8.5l5.1-9.1l-6.7,5.7l6.8-6.5l-5.7,0.8l5.7-1.1l-3-4.1l3.4,3.3l0.5-7.8l0.1,7.1
			l3.7-8.5l-3.7,9l6.2-7.4l-5.6,8.1l6.2-3.4l-6.2,3.2l4.1,2.7l-4.6-1.7l1.3,6.4L71.1,59L68.8,67.7L68.8,67.7z"/>
	</g>
	<path class="st8" d="M73.1,50L82,39.3L67.1,46l14.7-6.9l-12.7-0.9l13.2-0.7l-3-6.8l5.7,5.9l6-10.5l-5.4,10.5l14.1-9L87,37.1
		l14.2-3.5l-15,4.3l9.7,3.8l-10.7-2.5l-1.7,9.3l-0.7-8.4L73.1,50L73.1,50z"/>
	<path class="st8" d="M182.5,33.2l13.8-2.1l-15.5-4.9l15.6,4.7l-8.8-9.1l10.3,8.3l2.4-7.1l0.3,8.2l11.5-3.8l-11,4.2l16.5,2.8
		l-16-1.4l12.9,6.9l-14-6.9l4.7,9.3l-6.3-9l-7.5,5.8l5.1-6.7L182.5,33.2L182.5,33.2z"/>
	<path class="st8" d="M155.1,145.6l-1.4-14.1l-10,14.3l9.6-14.4l-15.8,6.7l14.6-8.3l-10.9-3.9l13.1,1.5l-4.4-12.3l5.2,11.9l6.7-15.7
		l-4.4,15.5l12.8-11.2l-12.9,12.4l15.4-2.6l-15.1,4.2l8.1,8.8l-9.9-6.6L155.1,145.6L155.1,145.6z"/>
	<path class="st8" d="M44.2,211.5l-4.6-12.9l1.6,19.2l-1.7-19.1l-2.3,14.9l1.4-15.9l-4.1,2.1l4-5.6l-4.9-9.5l5,8.7l-2.9-18.7
		l3.5,17.4l0.1-17.7l0.2,18.9l3.4-10.8L40,194.7l4.8,4.1l-4.7-1L44.2,211.5L44.2,211.5z"/>
	<path class="st8" d="M116.3,57.8c2.2,3,0.7,6.8-3.3,8.5c-4,1.7-9.1,0.6-11.3-2.5S101,57,105,55.4C109.1,53.7,114.1,54.8,116.3,57.8
		z"/>
	<path class="st8" d="M47.8,100.4c-0.5,3.6-2.9,5.8-5.2,5c-2.4-0.8-3.9-4.3-3.4-7.8c0.5-3.6,2.9-5.8,5.2-5
		C46.8,93.3,48.3,96.8,47.8,100.4L47.8,100.4z"/>
	<path class="st8" d="M216.3,97.9c-1.8,1.6-5.2,1.9-7.5,0.6c-2.3-1.3-2.7-3.7-0.9-5.3s5.2-1.9,7.5-0.6
		C217.8,93.9,218.2,96.3,216.3,97.9z"/>
	<path class="st8" d="M258.8,81.7c0.3,2.4-0.2,5-1.1,5.8c-1,0.8-2-0.5-2.3-2.9c-0.3-2.4,0.2-5,1.1-5.8
		C257.4,78.1,258.4,79.3,258.8,81.7z"/>
	<path class="st8" d="M15.3,142.5c0,1.6-1,2.8-2.3,2.8s-2.3-1.3-2.3-2.8c0-1.6,1-2.8,2.3-2.8S15.3,140.9,15.3,142.5z"/>
	<path class="st8" d="M135,247.6c0,1.6-1,2.8-2.3,2.8c-1.2,0-2.3-1.3-2.3-2.8c0-1.6,1-2.8,2.3-2.8C134,244.7,135,246,135,247.6z"/>
	<path class="st8" d="M139.5,247.6c0,4.7-3,8.5-6.8,8.5c-3.7,0-6.8-3.8-6.8-8.5c0,0,0,0,0,0c0-4.7,3-8.5,6.8-8.5
		C136.5,239.1,139.5,242.9,139.5,247.6C139.5,247.6,139.5,247.6,139.5,247.6z"/>
</g>
</svg>
