                        <svg xmlns="http://www.w3.org/2000/svg" preserveAspectRatio="none">
                            <symbol width="4044" viewBox="150 0 3500 160" id="water-waves"
                                preserveAspectRatio="xMinYMin meet">
                                <path
                                    d="M 50 50 
                                                                                Q 100 100 150 50 
                                                                                Q 200 100 250 50 
                                                                                Q 300 100 350 50 
                                                                                Q 400 100 450 50 
                                                                                Q 500 100 550 50 
                                                                                Q 600 100 650 50 
                                                                                Q 700 100 750 50 
                                                                                Q 800 100 850 50 
                                                                                Q 900 100 950 50 
                                                                                Q 1000 100 1050 50 
                                                                                Q 1100 100 1150 50 
                                                                                Q 1200 100 1250 50 
                                                                                Q 1300 100 1350 50 
                                                                                Q 1400 100 1450 50 
                                                                                Q 1500 100 1550 50 
                                                                                Q 1600 100 1650 50 
                                                                                Q 1700 100 1750 50 
                                                                                Q 1800 100 1850 50 
                                                                                Q 1900 100 1950 50 
                                                                                Q 2000 100 2050 50 
                                                                                Q 2100 100 2150 50 
                                                                                Q 2200 100 2250 50 
                                                                                Q 2300 100 2350 50 
                                                                                Q 2400 100 2450 50 
                                                                                Q 2500 100 2550 50 
                                                                                Q 2600 100 2650 50 
                                                                                Q 2700 100 2750 50 
                                                                                Q 2800 100 2850 50 
                                                                                Q 2900 100 2950 50                                                      Q 3000 100 3050 50                                                       Q 3100 100 3150 50                                                       Q 3200 100 3250 50                                                       Q 3300 100 3350 50                                                       Q 3400 100 3450 50                                                       Q 3500 100 3550 50                                                      Q 3600 100 3650 50                                                      Q 3700 100 3750 50                                                      Q 3800 100 3850 50                                                      Q 3900 100 3950 50                                                      Q 4000 100 4050 50 " />

                            </symbol>
                        </svg>