<svg id="Layer_1" data-name="Layer 1" xmlns="http://www.w3.org/2000/svg" xmlns:xlink="http://www.w3.org/1999/xlink" viewBox="0 0 400 202.81"><defs><style>.cls-1{fill:url(#radial-gradient);}.cls-2{fill:url(#radial-gradient-2);}.cls-3{fill:url(#linear-gradient);}.cls-4{fill:url(#linear-gradient-2);}.cls-5{fill:url(#radial-gradient-3);}.cls-6{fill:url(#radial-gradient-4);}</style><radialGradient id="radial-gradient" cx="200" cy="101.4" r="158.56" gradientUnits="userSpaceOnUse"><stop offset="0.5" stop-color="#c1b8aa"/><stop offset="0.66" stop-color="#592b24"/></radialGradient><radialGradient id="radial-gradient-2" cx="201.28" cy="87.36" fx="194.52508698693507" r="6.97" gradientUnits="userSpaceOnUse"><stop offset="0" stop-color="#c1b8aa"/><stop offset="0.06" stop-color="#592b24"/></radialGradient><linearGradient id="linear-gradient" x1="138.7" y1="157.04" x2="159.81" y2="99.69" gradientUnits="userSpaceOnUse"><stop offset="0.57" stop-color="#5c1660"/><stop offset="0.95" stop-color="#592b24"/><stop offset="1" stop-color="#592b24"/></linearGradient><linearGradient id="linear-gradient-2" x1="287.32" y1="178.97" x2="249.87" y2="92.56" gradientUnits="userSpaceOnUse"><stop offset="0.14" stop-color="#5c1660"/><stop offset="0.95" stop-color="#592b24"/><stop offset="1" stop-color="#592b24"/></linearGradient><radialGradient id="radial-gradient-3" cx="160.03" cy="76.12" r="6.38" gradientUnits="userSpaceOnUse"><stop offset="0.34"/><stop offset="0.95" stop-color="#fff"/><stop offset="1" stop-color="#592b24"/></radialGradient><radialGradient id="radial-gradient-4" cx="243.17" cy="80.2" r="6.43" gradientUnits="userSpaceOnUse"><stop offset="0.31"/><stop offset="1" stop-color="#f4f4f4"/></radialGradient></defs><title>purple-crab</title><polygon class="cls-1" points="400 153.77 400 132.82 396.94 125.16 388.25 118.01 372.41 109.83 353.51 104.72 341.25 104.72 338.7 101.66 335.12 101.66 330.52 101.66 325.93 99.11 316.22 99.11 307.54 96.55 298.85 99.11 281.99 100.64 276.37 101.15 269.22 96.55 273.82 88.89 291.7 88.89 312.13 81.74 323.88 77.65 325.42 73.05 316.73 64.88 301.92 68.97 285.57 75.61 281.48 75.1 277.91 71.52 269.22 67.94 267.18 64.88 272.8 64.88 288.63 57.73 293.23 54.15 299.87 47.51 300.38 41.89 290.17 29.63 284.55 25.03 271.78 15.84 270.24 20.95 284.04 41.89 280.46 45.98 257.98 59.77 255.43 61.81 244.7 59.26 234.99 57.22 225.29 54.15 208.43 51.6 191.57 50.58 173.69 48.53 158.88 50.58 154.55 47.89 122.61 28.1 122.61 21.46 128.22 15.84 131.29 4.09 129.25 0 125.16 0 122.61 2.55 119.03 5.11 111.88 9.71 105.75 14.81 105.75 21.46 137.42 59.77 122.61 52.62 109.83 46.49 126.69 45.98 117.43 37.8 109.32 30.65 105.75 39.34 90.93 32.7 81.23 31.67 78.16 35.76 78.16 39.85 93.49 52.62 124.65 67.43 134.87 72.03 138.95 76.88 136.91 82.25 125.67 76.88 123.12 73.05 117.5 73.56 109.83 68.97 98.59 65.39 83.78 60.79 73.05 59.77 67.94 59.77 67.94 63.35 57.22 61.3 47.51 59.77 36.78 59.77 29.63 61.3 14.3 56.19 10.73 55.68 0 63.86 0 79.18 9.71 79.18 12.77 70.5 14.81 67.94 34.74 76.88 43.93 82.25 53.64 80.2 57.22 76.88 64.88 74.07 65.39 76.88 66.92 79.69 98.59 88.89 122.61 92.98 131.8 95.02 128.74 97.57 122.61 97.57 116.99 99.62 107.79 102.17 98.59 106.77 90.93 111.88 85.82 116.99 88.38 121.07 83.27 122.61 74.58 129.25 68.97 137.93 65.39 142.02 59.77 165.01 66.92 165.01 79.18 159.39 85.82 143.55 90.93 136.4 96.55 128.74 108.81 127.71 112.9 123.12 118.52 123.63 128.22 123.12 128.22 116.47 130.27 108.81 132.82 113.92 136.4 121.58 135.38 127.2 148.66 155.3 155.81 127.71 156.32 119.03 172.67 139.46 177.78 137.42 179.34 123.01 179.64 120.25 180.33 113.92 194.64 115.45 210.98 119.03 225.29 126.18 240.1 125.16 246.23 120.56 256.96 129.76 263.09 131.29 261.05 141.51 264.11 145.59 259.51 147.64 247.76 173.18 248.79 176.25 267.69 167.05 272.8 157.85 265.13 184.93 270.75 188 289.14 166.03 292.72 161.94 298.34 163.99 282.5 193.1 288.12 202.81 300.38 197.7 306.51 192.59 314.18 178.8 318.26 165.01 301.92 129.76 299.36 120.56 294.76 115.45 303.45 120.56 316.22 120.56 325.42 116.47 333.59 120.56 348.4 120.56 357.6 119.03 357.6 123.12 365.26 125.67 369.86 131.29 380.59 132.31 386.21 137.93 400 153.77"/><polygon class="cls-2" points="137.51 59.76 138.95 76.88 136.91 82.25 131.8 95.02 128.74 97.57 130.27 108.81 156.32 119.03 182.69 114.17 194.64 115.45 210.98 119.03 225.29 126.18 240.1 125.16 246.23 120.56 269.22 96.55 273.82 88.89 269.22 67.94 255.43 61.81 234.99 57.22 225.29 54.15 208.43 51.6 191.57 50.58 173.69 48.53 158.88 50.58 137.51 59.76"/><polygon class="cls-3" points="148.66 155.3 155.81 127.71 156.32 119.03 172.67 139.46 177.78 137.42 180.33 113.92 159.39 101.41 145.08 95.02 128.74 97.57 130.27 108.81 136.4 121.58 135.38 127.2 148.66 155.3"/><polygon class="cls-4" points="269.22 96.55 276.37 101.15 294.76 115.45 299.36 120.56 301.92 129.76 292.72 161.94 270.75 188 265.13 184.93 272.8 157.85 267.69 167.05 248.79 176.25 259.51 147.64 263.09 131.29 256.96 129.76 246.23 120.56 269.22 96.55"/><polygon class="cls-5" points="154.53 78.67 154.53 72.03 160.92 68.97 165.52 71.52 165.52 78.67 160.03 83.27 154.53 78.67"/><polygon class="cls-6" points="237.55 83.27 237.55 76.12 243.68 73.05 248.79 76.12 248.79 83.27 243.17 87.36 237.55 83.27"/></svg>