<?xml version='1.0' encoding='utf-8'?>
<svg xmlns:xlink="http://www.w3.org/1999/xlink" xmlns="http://www.w3.org/2000/svg" width="100mm" height="100mm" version="1.1" style="shape-rendering:geometricPrecision; text-rendering:geometricPrecision; image-rendering:optimizeQuality; fill-rule:evenodd; clip-rule:evenodd" viewBox="0 0 10000 10000"> <defs> <style type="text/css">  .fil5 {fill:#DBE285} .fil3 {fill:#B0CB1F} .fil4 {fill:#809324} .fil0 {fill:#576321} .fil2 {fill:#66361C;fill-opacity:0.501961} .fil6 {fill:url(#id0)} .fil1 {fill:url(#id1)}  </style> <linearGradient id="id0" gradientUnits="userSpaceOnUse" x1="5795.65" y1="7108.67" x2="5853.3" y2="7117.38"> <stop offset="0" style="stop-opacity:1; stop-color:#995028"/> <stop offset="1" style="stop-opacity:1; stop-color:#AF5B2E"/> </linearGradient> <linearGradient id="id1" gradientUnits="userSpaceOnUse" xlink:href="#id0" x1="4872.67" y1="6912.06" x2="4950.44" y2="6881.56"> </linearGradient> </defs> <g id="Слой_x0020_1"> <metadata id="CorelCorpID_0Corel-Layer"/> <g id="_771357952"> <path class="fil0" d="M1746.18 6043.81c236.38,101.42 474.32,200.82 713.79,298.17 -153.94,-77.69 -306.25,-158.87 -456.79,-243.49 807.01,346.28 1634,666.23 2480.97,959.86 123.53,31.29 247.42,62.02 371.66,92.2 78.79,-57.77 157.26,-115.77 235.41,-173.98 -28.14,-10.21 -56.24,-20.5 -84.31,-30.9 -1200.81,-270.03 -2357.22,-711.01 -3433.71,-1309.91 140.26,59.46 281.07,118.19 422.42,176.22 -49.6,-26.65 -99.03,-53.69 -148.27,-81.08 829.05,351.43 1679.01,675.09 2549.84,970.99 -944.93,-405.99 -1838.84,-924.18 -2662.12,-1544.2 107.21,64.08 214.87,127.74 322.93,190.96 -21.65,-16.07 -43.27,-32.19 -64.83,-48.43 557.24,333.05 1127.21,653.3 1709.92,960.74 400.39,210.27 806.14,415.12 1217.32,614.55 71.26,23.08 142.65,45.97 214.17,68.69l26.85 -20.06c-58.58,-26.07 -116.92,-52.62 -175.02,-79.64l-16.03 7.56 13.96 -8.53 -24.99 -11.66 -9.86 7.59 8.56 -8.19 -30.15 -14.18 -20.12 9.54 17.55 -10.75 -23.03 -10.92 -13.35 10.32 11.62 -11.14c-577.47,-274.36 -1130.73,-595.78 -1654.33,-960.72 -138.26,-94.07 -274.72,-190.81 -409.28,-290.24 -218.58,-131.74 -432.92,-270.76 -642.65,-416.87 -195.64,-129.94 -387.86,-265.34 -576.42,-406.05 214.04,126.67 429.78,251.63 647.19,374.89 -99.56,-82.62 -197.91,-166.79 -295.03,-252.47 216.21,153.12 434.46,304.47 654.79,454.05 758.18,419.8 1536.44,819.25 2334.73,1198.37 -102.08,-63.67 -203.13,-128.88 -303.09,-195.63 -680.17,-339.86 -1315.79,-761.6 -1892.88,-1255.56 -276.39,-207.69 -543.7,-427.89 -801.05,-660.04 34.45,24.96 68.96,49.88 103.53,74.75 -123.56,-103.31 -245.24,-209.01 -364.99,-317.03 524.7,380.35 1061.8,750.26 1611.31,1109.72 -344.79,-312.23 -671,-645.38 -976.64,-997.79 18.85,17.54 37.72,35.05 56.61,52.56 -93.94,-101.51 -186.3,-204.56 -277.01,-309.17 678.51,631.6 1384.84,1245.1 2118.97,1840.51 48.75,30.11 97.58,60.15 146.51,90.1 -465.39,-394.85 -898.78,-825.73 -1296.18,-1288.58 -162.84,-172.28 -319.22,-350.89 -468.75,-535.51 50.62,50.4 101.48,100.66 152.56,150.79 -19.69,-25.05 -39.28,-50.17 -58.78,-75.38 -183.06,-188.25 -359.88,-382.84 -530.08,-583.52 104.14,99.11 209.04,197.74 314.69,295.9 -13.02,-17.95 -26,-35.93 -38.92,-53.96 31.38,35.18 62.87,70.32 94.42,105.42l10.16 9.4c-9.85,-12.62 -19.64,-25.26 -29.43,-37.93 -203.26,-209.01 -399.54,-425.07 -588.51,-647.86 115.61,110.03 232.05,219.51 349.32,328.47 -14.45,-19.93 -28.86,-39.89 -43.2,-59.91 34.84,39.05 69.77,78.05 104.79,117.02 173.27,160.33 348.36,319.51 525.23,477.55 -17.36,-24.9 -34.58,-49.87 -51.69,-74.94 34.8,40.86 69.75,81.63 104.83,122.35l51.09 45.41c-111.29,-145.74 -218.78,-294.53 -322.33,-446.26 204.07,239.53 412.4,476.93 624.99,712.21 214.71,186.83 431.99,372.02 651.85,555.58 -402.53,-401.57 -768.04,-839.75 -1091.56,-1309.34 348.64,405.61 710.94,804.35 1086.87,1196.22 -22.01,-27.48 -43.91,-55.06 -65.68,-82.74 -436.52,-438.59 -833.42,-916.12 -1185.53,-1427.2 249.96,290.79 506.23,578.4 768.83,862.84 -258.63,-373.36 -495.46,-762.13 -709.08,-1164.43 91.42,135.11 183.94,269.84 277.5,404.17 -160.12,-256.19 -311.35,-518.2 -453.33,-785.6 197.98,292.59 400.5,583.53 607.54,872.82 -23.26,-44.49 -46.17,-89.15 -68.71,-134.04 92.17,143.09 185.82,285.68 280.92,427.78 26.71,36.64 53.49,73.24 80.35,109.83 -179.73,-284.59 -345.7,-578.16 -497.17,-879.72 329.2,511.06 675.22,1016.4 1038.06,1516.01 -127.94,-211.53 -247.45,-428.15 -358.23,-649.35 -175.1,-270.83 -336.25,-550.94 -482.66,-839.26 98.1,150.84 197.84,301.12 299.21,450.83 -32.95,-74.13 -64.94,-148.73 -95.96,-223.77 -117.36,-197.31 -228.24,-398.68 -332.4,-603.8 108.88,167.43 219.59,334.22 332.1,500.39 -42.19,-94.93 -82.97,-190.53 -122.31,-286.79 101.01,187.23 204.12,373.92 309.35,560.07 300.08,433.68 612.6,863.05 937.57,1288.13 -25.15,-47.76 -49.88,-95.72 -74.2,-143.9 -409.03,-588.05 -749.35,-1222.02 -1013.63,-1889.59 246.08,468.4 506.66,933.27 781.76,1394.58 -32.26,-74.52 -63.57,-149.46 -93.88,-224.81 -307.95,-503.94 -572.61,-1034.09 -790.66,-1584.84 198.01,376.91 404.47,751.75 619.41,1124.51 -75.5,-220.56 -142.78,-444.12 -201.63,-670.23 129.86,343.57 266.86,686.3 411.01,1028.18 12.97,21.85 25.94,43.69 38.97,65.53 -210.78,-486.7 -384.11,-989.63 -518.09,-1504.47 208.92,552.78 434.53,1103.6 676.79,1652.44 -129.15,-379.86 -233.74,-768.02 -312.96,-1162.05 -64.66,-200.74 -122.53,-403.83 -173.5,-608.92 39.62,108.43 79.94,216.78 120.98,325.06 -2.96,-17.55 -5.9,-35.1 -8.76,-52.68 10.03,36.49 20.16,72.97 30.35,109.45 26.2,68.73 52.71,137.43 79.48,206.1 -30.44,-126.47 -58.51,-253.55 -84.17,-381.2 -71.75,-222.76 -135.99,-448.13 -192.55,-675.73 43.98,120.35 88.75,240.61 134.28,360.79 -3.29,-19.47 -6.53,-38.95 -9.71,-58.44 11.14,40.51 22.39,81.02 33.7,121.52 213.32,559.38 443.66,1116.94 691,1672.69 -129.99,-580.83 -204.21,-1173.6 -221.09,-1770.25 93.45,687.81 212.47,1378.41 357.05,2071.81 45.53,99.69 91.6,199.33 138.22,298.91 -295.35,-923.76 -459.38,-1884.98 -486.83,-2855.42 126.91,934.06 296.29,1872.75 508.14,2816.1 70.15,-718.23 114.27,-1430.69 132.35,-2137.38 18.44,226.71 28.54,453.78 30.36,680.73 23.27,-382.87 39.77,-764.22 49.48,-1144.08 76.38,938.76 24,1882.92 -155.11,2806.34l4.91 10.33c207.53,-626.39 392.88,-1252.7 556.02,-1878.94 6.15,-37.41 12.22,-74.8 18.22,-112.19 -0.93,17.8 -1.93,35.58 -2.96,53.36 28.96,-112.11 57.21,-224.23 84.75,-336.36 -11.26,83.51 -23.69,166.81 -37.2,249.9 23.89,-88.63 47.38,-177.27 70.47,-265.9 6.82,-41.5 13.57,-83 20.22,-124.49 -1.03,19.73 -2.13,39.47 -3.28,59.2 32.15,-124.46 63.51,-248.91 94.07,-373.36 -31.37,232.52 -70.61,463.67 -117.61,693.04 -72.74,815.54 -242.11,1619.56 -504.59,2395.15 28.13,-57.61 56.06,-115.23 83.77,-172.88 215.16,-649.1 406.31,-1298.41 573.44,-1947.89 -28.12,192.44 -62.24,383.76 -102.27,573.68 94.14,-323.93 182.91,-647.89 266.29,-971.9 -70.16,480.1 -173.96,953.91 -310.29,1418.06 159.86,-363.33 311.57,-727.75 455.12,-1093.23 -26.41,96.36 -54.37,192.21 -83.83,287.55 96.9,-230.89 190.84,-462.18 281.83,-693.85 -210.63,768.59 -509.21,1509.32 -889.19,2207.74 -117.56,314.32 -250.51,623.13 -398.5,925.29 29,-80.12 57.67,-160.24 86.02,-240.38 -49.87,112.98 -101.98,225.04 -156.38,336.1 63.99,-176.77 126.17,-353.55 186.6,-530.34 -21.17,35.66 -42.58,71.2 -64.24,106.6 -17.83,49.29 -36.03,98.45 -54.63,147.48 8.78,-33.76 17.49,-67.53 26.16,-101.27 -13.64,22.01 -27.38,43.96 -41.2,65.86 -17.93,49.82 -36.26,99.5 -55.05,149.03 9.11,-35.03 18.15,-70.05 27.12,-105.07 -14.92,23.35 -29.96,46.65 -45.09,69.86 18.46,-36.38 36.85,-72.76 55.14,-109.17 132.15,-518.34 249.9,-1035.46 353.23,-1551.35 -61.51,186.34 -128.33,370.97 -200.41,553.66 -45.8,125.04 -94.29,249.15 -145.45,372.23l7.17 15.04 -8.02 -13.02c-5.3,12.75 -10.63,25.49 -16,38.23l3.13 13.38 -3.98 -11.38c-17.84,42.37 -36.03,84.6 -54.51,126.72l11.1 23.26 -12.43 -20.21 -12.57 28.47 6.2 26.5 -7.58 -21.69c-8.04,36.24 -16.25,72.42 -24.68,108.57l9.06 -75.26c-10.16,22.65 -20.42,45.27 -30.77,67.85l-0.97 4.47 37.21 57.02c-13.1,-15.96 -26.14,-31.98 -39.15,-48.02l-3.72 17.12c9.07,23.97 18.16,47.96 27.3,71.93 -10.1,-19.77 -20.11,-39.59 -30.06,-59.42 -7.16,32.55 -14.51,65.07 -22.03,97.54 22.94,47.23 46,94.43 69.2,141.63 -50.92,-80.34 -100.7,-161.34 -149.33,-242.96l23.15 61.87c22.17,34.19 44.42,68.36 66.75,102.5 -17.59,-21.42 -35.07,-42.92 -52.45,-64.49l21.64 57.27c23.6,29.88 47.28,59.73 71.01,89.56 -20.21,-20.41 -40.32,-40.91 -60.34,-61.49l6.12 16.12 -10.43 -20.54c-42.73,-43.98 -85.07,-88.31 -127,-133 50.26,105.23 101.21,210.39 152.85,315.46 -88.22,-139.19 -172.67,-280.59 -253.23,-424.02 -207.41,-227.53 -404.39,-464.06 -590.39,-708.81 59.14,98.1 118.88,196.03 179.21,293.82 209.66,282.88 425.34,563.69 647.08,842.4 -123.55,-124.85 -243.4,-253.06 -359.49,-384.45 133.03,208.13 268.78,415.56 407.26,622.31 -300.61,-358.12 -576.09,-735.69 -824.83,-1129.96l-17.94 -23.53c165.68,274.8 336.54,548.29 512.59,820.43 38.44,49.99 77.06,99.92 115.85,149.79 64.92,63.35 130.17,126.54 195.76,189.55 -41.33,-31.89 -82.4,-64.11 -123.22,-96.6 23.51,30.03 47.09,60.04 70.74,90.04 -43.85,-44.71 -87.28,-89.8 -130.28,-135.26l35.92 54.49c29.58,36.39 59.22,72.77 88.95,109.11 44.18,34.94 88.47,69.81 132.84,104.63 -32.52,-20.26 -64.93,-40.65 -97.26,-61.2 31.67,38.63 63.44,77.25 95.29,115.81 -40.48,-39.44 -80.68,-79.15 -120.6,-119.11l10.88 16.28c-9.18,-10.95 -18.35,-21.93 -27.48,-32.92l-18.72 -18.82c-30.54,-19.65 -60.99,-39.41 -91.35,-59.31 40.14,38.97 80.41,77.87 120.83,116.7 -37.24,-28.73 -74.23,-57.75 -111,-87.02 21.19,27.06 42.43,54.1 63.73,81.11 -42.62,-43.44 -84.78,-87.29 -126.51,-131.53l-17.99 -14.62c46.33,57.31 92.86,114.52 139.6,171.67 39.81,31.48 79.71,62.9 119.69,94.27 -29.3,-18.24 -58.51,-36.63 -87.63,-55.13 28.54,34.81 57.15,69.59 85.85,104.33 -47.25,-46.03 -94.05,-92.46 -140.47,-139.26 -175.29,-112.74 -347.35,-230.12 -516.05,-351.95l28.34 28.84c175.94,150.61 353.99,299.94 534.16,448 -91.69,-60.05 -182.37,-121.53 -272.01,-184.39 106.6,106.04 214.14,211.61 322.6,316.73 -228.8,-178.17 -449.73,-365.68 -662.25,-561.96 28.27,28.97 56.62,57.87 85.04,86.77 158.53,135.7 318.92,270.25 481.26,403.64 -82.57,-54.06 -164.21,-109.41 -244.93,-166.01 54.53,54.25 109.34,108.36 164.41,162.33 71.37,67.65 143.04,135.13 215.04,202.45 48.45,28.75 96.99,57.44 145.61,86.05 -34.94,-15.75 -69.79,-31.67 -104.58,-47.74 36.55,34.09 73.17,68.13 109.88,102.13 -58.77,-43.65 -117.12,-87.83 -175.1,-132.46 -39.86,-18.68 -79.61,-37.56 -119.26,-56.64 29.69,27.94 59.46,55.84 89.27,83.72 43.64,25.91 87.36,51.76 131.16,77.53 -31.47,-14.2 -62.87,-28.53 -94.2,-43.02 32.93,30.71 65.9,61.38 98.98,92.01 -52.97,-39.35 -105.56,-79.17 -157.81,-119.39 -23.26,-10.91 -46.49,-21.87 -69.67,-32.92 110.43,86.82 221.47,173.27 333.12,259.3l24.54 -18.45c63.26,-73.67 126.16,-147.47 188.7,-221.43 -26.77,26.57 -53.66,53 -80.72,79.3 96.33,-116.34 191.68,-233.05 286.07,-350.11 -13.38,11.77 -26.79,23.49 -40.23,35.18 -107.61,115.8 -218.19,228.95 -331.74,339.3 52.23,-63.08 104.14,-126.28 155.73,-189.6 -11.32,9.41 -22.65,18.78 -34,28.14 22.54,-23.08 45.04,-46.19 67.49,-69.31 22.89,-28.18 45.71,-56.38 68.47,-84.62 -74.08,65.12 -149.22,129.09 -225.42,191.89 146.78,-150.34 291.54,-301.6 434.28,-453.8 84.51,-107.16 168.13,-214.65 250.85,-322.47 -199.81,184.09 -405.57,361.96 -617,533.32 -45.54,57.26 -91.54,114.18 -138.08,170.68 27.45,-41.83 54.8,-83.68 82.07,-125.54 -19.02,15.24 -38.1,30.44 -57.21,45.58 -32.57,40.65 -65.39,81.09 -98.52,121.31 24.73,-37.68 49.37,-75.38 73.95,-113.1 -26.93,21.58 -53.97,43.05 -81.1,64.39 36.32,-35.55 72.54,-71.14 108.67,-106.77 28.87,-44.46 57.66,-88.96 86.31,-133.47 -12.94,12.68 -25.92,25.33 -38.93,37.94 -18.22,23.65 -36.57,47.21 -55.03,70.69 18.23,-29.18 36.39,-58.39 54.49,-87.6 -33.35,33.12 -66.97,66 -100.84,98.63 23.52,-28.14 46.97,-56.33 70.36,-84.53 53.56,-102.88 106.52,-205.84 158.87,-308.89 -78.87,131.78 -161.03,261.71 -246.46,389.64 206.68,-396.34 403.39,-794.11 590.14,-1193.29 -148.04,227.01 -305.08,448.34 -470.86,663.43 -52.96,70.82 -106.97,140.92 -161.99,210.28 366.62,-581.45 710,-1168.17 1030.17,-1760.14 75.88,-176.97 149.8,-354.21 221.79,-531.73 -25.75,90.05 -52.86,179.66 -81.28,268.79 61.66,-116.8 122.42,-233.81 182.28,-351.02 36.79,-88.44 73.14,-176.95 109.06,-265.51 -28.6,99.99 -58.7,199.47 -90.26,298.45 93.68,-177.48 185.51,-355.36 275.45,-533.69 -126.58,335.9 -270.43,664.5 -430.77,984.56 -274.82,741.78 -634.18,1450.34 -1071.51,2111.47 23.96,-28.93 47.87,-57.88 71.69,-86.86 472.72,-768.39 905.21,-1545.71 1297.47,-2331.98 -74.38,200.05 -155.56,397.28 -243.32,591.35 166.4,-308.32 327.14,-617.9 482.22,-928.73 -45.7,122.89 -93.7,244.8 -143.96,365.7 76.67,-140.79 152.3,-281.87 226.84,-423.19 -77.78,195.5 -160.81,388.66 -248.95,579.3 179.37,-318.82 353.78,-638.87 523.25,-960.13 -256.23,644.04 -563.7,1265.34 -918.93,1858.11 208.68,-282.48 411.32,-567.23 607.89,-854.23 -67.49,125.39 -137.82,249.11 -210.87,371.09 163.86,-226.49 324.24,-454.27 481.14,-683.36 -407.8,757.63 -908.23,1460.65 -1489.18,2093.1 -56.55,78.21 -114.01,155.8 -172.35,232.76 326.36,-328.87 644.8,-661.59 955.41,-998.19 167.21,-231.63 330.42,-464.73 489.58,-699.32 -77.8,146.08 -159.42,289.93 -244.75,431.41 42.04,-46.45 83.9,-92.98 125.65,-139.59 134.16,-188.88 265.91,-378.65 395.27,-569.31 -59.7,112.09 -121.43,223.01 -185.14,332.69 57.55,-65.38 114.82,-130.89 171.79,-196.54 27.52,-38.34 54.97,-76.72 82.33,-115.12 -10.88,19.34 -21.82,38.65 -32.81,57.93 94.29,-109.12 187.78,-218.64 280.48,-328.56 -73.46,108.8 -148.73,216.27 -225.76,322.39 67.32,-76.42 134.28,-152.99 200.89,-229.75 30.54,-42.54 60.99,-85.11 91.34,-127.73 -12.06,21.44 -24.19,42.84 -36.36,64.21 104.65,-121.1 208.41,-242.64 311.29,-364.61 -163.47,242.09 -334.97,478.28 -514.15,708.22 -18.44,30.14 -36.98,60.23 -55.65,90.21 50.27,-61.5 100.29,-123.12 150.02,-184.87 -142.65,221.93 -293.59,438.06 -452.42,647.96 -409.82,599.05 -869.72,1162.59 -1374.9,1684.5 35.4,-27.43 70.73,-54.9 106,-82.44 598.82,-605.44 1170.96,-1224.36 1716.41,-1856.76 -165.6,239.49 -339.99,472.37 -522.72,698.24 291.26,-316.79 576.25,-636.74 854.95,-959.87 -308.2,445.74 -643.8,870.89 -1004.56,1273.16 360.22,-302.42 712.74,-610 1057.53,-922.76 -141.9,159.43 -288.08,314.74 -438.28,465.82 275.12,-236.43 546.11,-475.65 812.9,-717.67 -255.69,287.27 -523.84,562.56 -803.5,825.16 -576.94,615.15 -1227.26,1157.71 -1936.68,1615.28 -66.83,56.09 -134.25,111.52 -202.24,166.28 635.83,-395.47 1253.97,-805.34 1854.4,-1229.63 182.53,-155.61 363.05,-312.59 541.55,-470.96 -78.52,86.29 -158.31,171.32 -239.33,255.11 182.56,-131.78 363.44,-264.89 542.65,-399.39 -197.48,184.18 -401.13,361.18 -610.54,530.79l61.77 -43.56c202.63,-172.73 403.02,-347.01 601.17,-522.8 -87.17,95.78 -175.75,190.19 -265.68,283.2 202.64,-146.27 403.43,-294.06 602.36,-443.36 -326.88,304.87 -669,592.07 -1024.83,860.62 -338,318.79 -692.92,618.91 -1063.14,899.13 560.14,-378 1105.46,-767.91 1636.03,-1169.73 -387.37,364.48 -798.8,701.3 -1231.14,1008.38 550.78,-376.42 1088.56,-763.32 1613.31,-1160.74 -557.31,524.37 -1159.47,997.18 -1798.93,1413.38 546.91,-271.62 1083.16,-554.57 1608.75,-848.85 -369.95,262.55 -754.48,502.77 -1151.48,719.64 527.26,-265.96 1045.53,-541.51 1554.78,-826.64 -1004.6,712.93 -2105.91,1277.62 -3270.04,1677.22l-33.23 16.59c46.73,11.02 93.49,21.97 140.31,32.83 -54.8,-6.6 -109.55,-13.6 -164.22,-20.98l-41.16 20.26c93.14,22.33 186.46,44.36 279.95,66.12 69.82,-25.64 139.5,-51.44 209.04,-77.42 809.84,-384.42 1596.95,-792.82 2361.32,-1225.2 -424.45,304.01 -868.31,578.54 -1328.4,822.03 109.25,-44.5 218.12,-89.45 326.64,-134.85 471.46,-242.99 935.61,-493.68 1392.43,-752.1 -204.7,146.62 -413.46,287.06 -626.01,421.19 154.33,-68.73 307.89,-138.4 460.7,-209.02 -335.73,201.09 -680.98,384.79 -1034.37,550.53 -91.01,51.03 -182.62,100.96 -274.82,149.75 584.27,-237.99 1159.16,-487.65 1724.66,-749 -867.64,519.7 -1792.54,934.73 -2755.26,1237.26 -187.16,78.71 -376.24,153.03 -567.11,222.87 91.89,9.38 183.92,18.46 276.11,27.2 -116.58,1.58 -233.12,1.38 -349.57,-0.57 -45.06,16.18 -90.21,32.11 -135.47,47.79 146.75,16.02 293.83,31.34 441.25,45.92 892.46,-205.6 1767.09,-440.69 2623.89,-705.27 -1103.97,474.94 -2275.07,775.38 -3471.34,890.55 258.65,-53.54 515.84,-109.49 771.56,-167.86 -171.24,-0.97 -342.34,-5.35 -513.21,-13.12 -41.33,13.75 -82.72,27.32 -124.2,40.66 31.39,-13.99 62.75,-28.02 94.09,-42.08 -1067.42,-51.08 -2125.37,-234.92 -3149.26,-548.06 610.63,117.46 1227.56,221.37 1850.75,311.75 -535.9,-84.45 -1066,-206.52 -1586.35,-365.66 964.92,185.61 1947.24,333.7 2946.96,444.23 89.32,-40.41 178.39,-81.11 267.18,-122.09 -118.63,31.71 -237.84,61.56 -357.55,89.52 123.26,-43.26 246.1,-87.06 368.5,-131.4 -105.02,-24.22 -209.7,-49.75 -314.01,-76.57l-0.76 0.24 0.62 -0.28c-153.42,-39.46 -306.03,-81.71 -457.76,-126.76 -989.94,-195.54 -1954.58,-506.99 -2873.74,-928.76 263.44,88.31 528.47,174.08 795.11,257.37 -173.36,-69.61 -345.16,-143.45 -515.23,-221.5 369.63,123.91 742.79,242.32 1119.42,355.24 -398.55,-173.53 -788.57,-367.36 -1168.5,-580.91zm3134.48 1149.6l25.1 8.37 6.32 -3.9 -30.77 -4.69 -0.65 0.22zm33.89 11.31l5.2 1.73 8.44 -6.19 -3.4 -0.51 -10.24 4.97zm20.29 6.76l49.95 16.6 33.27 -14.81c-23.12,-3.24 -46.22,-6.59 -69.32,-9.98l-13.9 8.19zm250.33 82.4c30.53,9.93 61.09,19.83 91.66,29.7l36.35 -13.31c-42.71,-5.24 -85.38,-10.71 -128.01,-16.39zm75.23 35.71c-91.56,-19.58 -182.83,-40.25 -273.8,-62.02l-8.66 4.19c76.98,25.67 154.13,51.15 231.4,76.44l51.06 -18.61zm-286.02 -64.93l-6.69 -1.63 -26.67 -4.06 -0.7 0.23 27.84 9.3 6.22 -3.84zm237.82 -319.94l14.03 8.06 -15.78 -6.96 -23.61 14.94 23.86 7.55 -27.1 -5.49 -7.91 4.98 46.46 14.78 29.8 -22.28 -37.71 -16.87 -2.04 1.29zm-577.46 -852.95c34.63,20.87 69.29,41.7 104.01,62.5 -86.27,-68.07 -171.63,-137.23 -256.06,-207.44 50.5,48.41 101.18,96.72 152.05,144.94zm-19.33 39.55c-24.39,-12.06 -48.74,-24.22 -73.05,-36.44l45.95 36.51c36.86,22.25 73.79,44.44 110.76,66.6 -27.99,-22.09 -55.88,-44.33 -83.66,-66.67zm-702.08 1374.64c265.2,35.9 531.54,69.38 799,100.41l60.69 -27.16c-287.52,-13.75 -574.28,-38.2 -859.69,-73.25zm1019.91 29.27l62.99 6.83c122.26,-43.41 244.13,-87.32 365.61,-131.69 -18.28,-3.91 -36.56,-7.87 -54.83,-11.85 -123.73,47.69 -248.34,93.25 -373.77,136.71zm111.82 12.05l69 7.27c41.84,-19.15 83.65,-38.35 125.4,-57.61 -64.65,17.28 -129.45,34.06 -194.4,50.34zm-6.22 41.61c-48.5,-1.21 -96.98,-2.73 -145.44,-4.55 -16.98,4.04 -33.95,8.04 -50.94,12l35.75 -12.57c-26.06,-1.01 -52.11,-2.09 -78.15,-3.28 -26.98,8.99 -54.01,17.86 -81.05,26.65 74.5,8.63 149.08,17.1 223.76,25.35 32.05,-14.5 64.08,-29.03 96.07,-43.6zm79.05 -639.57l6.9 2.21 0.81 -0.61 -7.71 -1.6zm30.56 35.57l6.22 2.96 -3.09 -1.07 39.62 18.91 20.97 -15.66c-17.96,-3.73 -35.91,-7.5 -53.86,-11.3l-9.86 6.16zm-129.68 -451.73l14.56 6.89 30.25 -22.68c-125.47,-77.7 -249.52,-157.49 -372.12,-239.36l-1.55 -0.77c108.96,85.74 218.58,171.04 328.86,255.92zm34.82 26.76l10.59 8.14 4.21 -3.15 -14.64 -5.14 -0.16 0.15zm12.7 9.76l7.67 5.88 -8.67 -5.28 -19.64 11.62 17.4 -13 -11.52 -7.04 -17.47 16.5 22.44 10.55 -24.61 -8.51c-18.5,17.41 -37.07,34.77 -55.7,52.07 15.87,-18.29 31.7,-36.6 47.51,-54.91l-24.26 -8.42 -23.85 14.12 20.46 -15.31c-413.46,-144.55 -817.85,-312.21 -1211.32,-502.01 378.75,238.97 763.2,473.03 1153.36,702.2 63.29,-60.81 126.31,-121.77 189.04,-182.86l-18.97 -6.56c-20.55,19.34 -41.14,38.6 -61.82,57.81 17.61,-20.31 35.18,-40.62 52.74,-60.96l-26.95 -9.34 -5.84 3.45zm-24.12 -13.53l-1.72 -1.06 -10.96 -3.85 -23.41 13.95 20.12 9.46 15.97 -18.5zm-585.55 -1005.44c-176.78,-121.77 -350.4,-247.9 -520.69,-378.23 235.37,197.07 474.03,392.05 715.99,584.94 -65.97,-68.13 -131.07,-137.03 -195.3,-206.71zm413.16 1603.23l49.69 12.01c46.93,-20.87 93.8,-41.83 140.59,-62.85 41.77,-30.92 83.46,-61.87 125.08,-92.89 -16.41,-5.8 -32.8,-11.64 -49.18,-17.51 -87.96,54.91 -176.7,108.65 -266.18,161.24zm75.55 18.23l5.92 1.42 11.73 -7.29 -17.65 5.87zm39.85 9.55l67.51 16.09c34.57,-15.44 69.11,-30.93 103.6,-46.46 64.54,-40.41 128.91,-80.96 193.12,-121.63 -91.59,34.2 -183.64,67.25 -276.14,99.15 -29.29,17.73 -58.65,35.34 -88.09,52.85zm-181.55 -712.63c66.03,31.58 132.22,63.01 198.56,94.27l19.76 -14.78c-73.04,-25.84 -145.82,-52.35 -218.32,-79.49zm-1388.84 -2992.84c71.48,131.11 144.1,261.92 217.88,392.43 15.68,22.65 31.39,45.29 47.14,67.92 -36.85,-69.58 -72.93,-139.57 -108.2,-210 -53.45,-82.68 -105.72,-166.13 -156.82,-250.35zm803.39 31.96c118.89,383.67 246.23,767.13 382.05,1150.38 57.44,91.23 115.42,182.32 173.9,273.31 -209.53,-441.81 -387.22,-897.48 -531.96,-1363.54 -8.06,-20.03 -16.07,-40.08 -23.99,-60.15zm442.84 1320.32l8.91 24.62c54.71,116.27 110.18,232.45 166.42,348.54 9.64,-27.62 19.21,-55.25 28.76,-82.87 -12.38,-24.8 -24.65,-49.66 -36.82,-74.56 -56.74,-71.2 -112.49,-143.12 -167.27,-215.73zm157.64 448.08c-13.07,-26.11 -26.03,-52.26 -38.85,-78.47 -53.29,-66.91 -105.62,-134.51 -157.01,-202.77 12.22,26.03 24.47,52.06 36.77,78.08 52.71,67.83 105.74,135.55 159.09,203.16zm-87.63 -179.69c-26.11,-55.07 -51.67,-110.36 -76.69,-165.9 -79.1,-140.08 -154.89,-281.91 -227.31,-425.4 -27.82,-40 -55.36,-80.21 -82.61,-120.6 51.87,117.14 104.6,234.17 158.16,351.1 75.15,120.52 151.3,240.78 228.45,360.8zm-139.9 492.13c31.7,25.42 63.45,50.8 95.25,76.16 -65.77,-67.94 -130.77,-136.56 -194.98,-205.87 33.1,43.28 66.34,86.51 99.73,129.71zm218.88 -1149.57c28.76,134.01 58.47,268.13 89.14,402.34 7.57,-69.95 14.89,-139.86 21.96,-209.71 -37.74,-63.82 -74.77,-128.04 -111.1,-192.63zm110.47 495.01l3.13 13.5 4.53 -13.34 -5.83 -9.58 -1.83 9.42zm-0.95 25.51l-2.6 -7.56 -7.45 37.14 10.05 -29.58zm-25.18 -74.08l-5.36 -16.08c-107.44,-179.5 -208.71,-362.4 -303.66,-548.4 84.71,242.01 172.47,483.94 263.26,725.8l23.48 36.15c7.64,-65.87 15.06,-131.69 22.28,-197.47zm-40.26 -122.9c-54.2,-169.49 -103.47,-340.37 -147.8,-512.45 -187.96,-351.01 -355.37,-712.43 -501.49,-1082.38 48.35,156.04 97.96,312.05 148.85,468.04 158.19,376.52 325,752.12 500.44,1126.79zm70.61 149.79l5.25 11.07c3.85,-33.1 7.65,-66.17 11.4,-99.24 -5.41,29.42 -10.96,58.8 -16.65,88.17zm408.3 2475.67c100.35,-38.95 200.12,-79.28 299.3,-120.99 102.67,-32.26 204.87,-65.95 306.56,-101.05 -93.09,45.03 -186.46,89.77 -280.1,134.22 -92.66,34.63 -185.55,68.98 -278.67,103.04l-47.09 -15.22zm522.4 -996.06c-222.14,174.27 -447,346.68 -674.6,517.22 -49.78,-28.81 -99.49,-57.71 -149.09,-86.68 279.95,-133.69 554.68,-277.31 823.69,-430.54zm-629.26 543.42c179.46,-114.33 355.64,-233.54 528.36,-357.44 -163.8,126.39 -328.9,251.88 -495.33,376.48l-33.03 -19.04zm-5.91 -536.73c28.94,-21.95 57.81,-43.94 86.66,-65.95 42.61,-50.08 85.07,-100.21 127.38,-150.41 -70.38,73.03 -141.71,145.16 -214.04,216.36zm-155.72 131.11l-15.02 17.46 -7.88 -3.72 22.9 -13.74zm-3.66 22.83l23.81 -22.67 16.38 10.1 -25.85 19.34 -14.34 -6.77zm30.19 -28.73l28.9 -27.7c33.5,-20.42 66.88,-41.01 100.15,-61.77l-39.1 45.59c-24.76,18.65 -49.55,37.26 -74.38,55.87l-15.57 -11.99zm619.03 363.82c-32.82,18.56 -65.72,37.01 -98.71,55.28 98.48,-45.7 196.67,-91.72 294.55,-138.05 -65.01,28.18 -130.3,55.76 -195.84,82.77zm-28.62 -70.93c-65.2,30.7 -130.53,61.24 -196.02,91.62 208.59,-115.57 413.46,-237.48 614.32,-365.55 -138.63,91.95 -278.07,183.26 -418.3,273.93zm-352.86 -450.92l-11.3 11.15 32.94 -25.01 -21.64 13.86zm-61.14 81.65c-40.31,39.64 -80.73,79.24 -121.26,118.77l-13.95 -10.73c24.64,-23.33 49.19,-46.74 73.67,-70.26 20.56,-12.54 41.06,-25.13 61.54,-37.78zm-122.12 119.6l-17.49 17.05 -17.28 -8.13 19.4 -18.31 15.37 9.39zm-200.58 204.52c111.62,-86.92 221.58,-175.82 329.81,-266.66 19.86,-12.8 39.67,-25.69 59.42,-38.64 -90.68,88.99 -181.88,177.72 -273.61,266.17 -29.63,18.29 -59.29,36.53 -88.99,54.75l-26.63 -15.62zm184.98 -702.48l7.51 -7.38 -4.64 3.76 -2.87 3.62zm89.33 -113.63l21.94 -21.84 26.75 -41.4c-16.16,21.12 -32.38,42.22 -48.69,63.24zm-159.18 797.66c-20.89,16.43 -41.83,32.81 -62.83,49.11l27.6 16.12c146.78,-89.96 292.7,-180.6 437.81,-271.92 -132.77,71.46 -266.97,140.39 -402.58,206.69zm-80.31 38.86l37.91 -18.24 -26.16 25.13 -11.75 -6.89zm88.71 -1484.45c19.56,-56.5 38.57,-113.15 57.04,-169.99 -9.33,37.29 -18.73,74.59 -28.2,111.89l-28.84 58.1zm440.58 -1890.55l4.31 -35.05 8.56 -31.13 -12.87 66.18zm-295.46 2477.41l4.67 -4.71 -12.52 15.08 7.85 -10.37zm-342.9 -797.99l-0.76 6.55 -5.31 -14.07 6.07 7.52zm-5.86 49.94c-3.57,30.25 -7.19,60.52 -10.86,90.79l-16.13 -33.27c9.06,-19.15 18.07,-38.32 26.99,-57.52zm248.84 1394.75l8.97 6.89 21.93 -25.44 -30.9 18.55zm6.09 10.23l-11.46 -7.01 -28.61 17.05 22.35 10.52 17.72 -20.56zm-107.5 683.81l6.56 1.58 13.04 -8.1 -19.6 6.52zm-27.6 -2483.94l2.06 8.89 4.15 -12.48 -4.17 -6.87 -2.04 10.46zm-2.76 23.38l-1.18 -3.45 -3.49 17.51 4.67 -14.06zm3492.08 2246.46c-1250.25,386.09 -2534.68,715.61 -3853.31,988.55 1327.91,-127.84 2627.86,-461.34 3853.31,-988.55z"/> <g> <path class="fil1" d="M5205.81 7735.01c-262.28,-393.11 -425.81,-929.98 -523.62,-1422.34 -97.82,-492.35 -129.94,-940.19 -156.29,-1271.17 -26.36,-330.99 -46.96,-545.12 -13.34,-417.17 33.62,127.95 121.47,597.97 183.35,975.55 61.87,377.58 97.79,662.71 201.12,1006.39 103.32,343.69 274.06,745.93 500.82,1092.44 226.76,346.52 509.53,637.31 470.4,658.03 -39.13,20.72 -400.16,-228.62 -662.44,-621.73z"/> <path class="fil2" d="M5205.81 7735.01c-262.28,-393.11 -425.81,-929.98 -523.62,-1422.34 -97.82,-492.35 -129.94,-940.19 -156.29,-1271.17 -26.36,-330.99 -46.96,-545.12 -13.34,-417.17 7.68,29.23 18.2,76.35 30.58,136.1 5.7,75.63 13.76,172 22.45,281.07 26.35,330.98 58.47,778.82 156.29,1271.17 97.81,492.36 261.34,1029.23 523.62,1422.34 224.25,336.11 520.65,567.08 626.36,614.06 0.13,3.7 -1.01,6.29 -3.61,7.67 -39.13,20.72 -400.16,-228.62 -662.44,-621.73z"/> <g> <path class="fil3" d="M7823.19 5077.3c-1027.97,809.61 -2108.17,1578.71 -3240.61,2307.3 1193.24,-596.52 2286.5,-1374.91 3240.61,-2307.3z"/> <path class="fil4" d="M7298.66 3984.7c-835.72,1006.86 -1730.99,1985.03 -2685.83,2934.54 1041.94,-833.09 1948.03,-1823.08 2685.83,-2934.54z"/> <path class="fil3" d="M6691.55 2793.41c-588.49,1168.7 -1241.46,2322.82 -1958.9,3462.36 828.45,-1045.63 1489.3,-2213.69 1958.9,-3462.36z"/> <path class="fil4" d="M8178.84 6116.23c-1177.19,571.33 -2396.75,1091.92 -3658.69,1561.79 1293.13,-327.85 2527.42,-854.74 3658.69,-1561.79z"/> <path class="fil5" d="M7884.66 4638.39c-1031.51,805.09 -2115.08,1569.44 -3250.71,2293.05 1195.85,-591.27 2292.51,-1364.85 3250.71,-2293.05z"/> <path class="fil5" d="M7377 3237.89c-824.57,1016.01 -1709,2004 -2653.31,2963.97 1032.69,-844.52 1927.81,-1844.44 2653.31,-2963.97z"/> <path class="fil3" d="M7604.58 4218.5c-911.15,939.13 -1879.47,1845.06 -2904.95,2717.79 1103.31,-749.91 2083.33,-1666.79 2904.95,-2717.79z"/> <path class="fil4" d="M6939.4 3205.36c-694.38,1109.06 -1451.61,2197.62 -2271.68,3265.68 921.88,-964.26 1688.26,-2065.97 2271.68,-3265.68z"/> <path class="fil3" d="M6179.25 2105.4c-427.83,1236.59 -921.5,2467.29 -1481.02,3692.13 682.03,-1146.53 1181.66,-2392.1 1481.02,-3692.13z"/> <path class="fil4" d="M8095.25 5200.9c-1090.74,722.81 -2230.23,1400.98 -3418.48,2034.5 1238.04,-496.92 2391.3,-1183.28 3418.48,-2034.5z"/> <path class="fil5" d="M7607.14 3775.31c-915.27,935.13 -1887.56,1836.8 -2916.86,2705.02 1106.59,-745.07 2090.62,-1657.63 2916.86,-2705.02z"/> <path class="fil5" d="M6917.73 2454.77c-682.12,1116.65 -1427.3,2213.49 -2235.54,3290.52 911.19,-974.36 1665.38,-2084.45 2235.54,-3290.52z"/> <path class="fil3" d="M6356.08 3132.94c-451.2,948.95 -954.43,1887.37 -1509.68,2815.25 646.07,-854.51 1155.38,-1804.26 1509.68,-2815.25z"/> <path class="fil4" d="M5589.24 2533.63c-242.56,1022.38 -538.2,2045.34 -886.93,3068.9 452.89,-970.82 752.11,-2006.15 886.93,-3068.9z"/> <path class="fil3" d="M4727.8 1892.73c-6.98,1050.74 -65.55,2113.95 -175.71,3189.66 223.51,-1047.69 282.79,-2123.75 175.71,-3189.66z"/> <path class="fil4" d="M6982.26 3753.81c-643.5,830.67 -1335.57,1639.92 -2076.22,2427.77 813.7,-696.77 1514.14,-1515.8 2076.22,-2427.77z"/> <path class="fil5" d="M6243.9 2795.19c-455.37,946.96 -962.71,1883.16 -1522.03,2808.6 649.82,-851.67 1163.29,-1799.18 1522.03,-2808.6z"/> <path class="fil5" d="M5379.46 1968.3c-231.27,1024.99 -515.61,2051.15 -853.03,3078.49 442.16,-975.75 729.94,-2014.32 853.03,-3078.49z"/> <path class="fil3" d="M5892.71 2592.84c-320.99,1000.53 -694.94,1997.54 -1121.85,2991.03 526.69,-932.85 905.16,-1941.9 1121.85,-2991.03z"/> <path class="fil4" d="M5052.97 2100.84c-104.43,1045.56 -261.39,2098.76 -470.89,3159.6 319.75,-1022.43 478.61,-2088.35 470.89,-3159.6z"/> <path class="fil3" d="M4113.95 1580.21c132.83,1042.33 216.18,2103.89 250.06,3184.69 82.19,-1068.11 -2.17,-2142.5 -250.06,-3184.69z"/> <path class="fil4" d="M6595.9 3124.92c-527.3,908.87 -1105.6,1802.98 -1734.89,2682.34 713.8,-798.81 1299.09,-1703.72 1734.89,-2682.34z"/> <path class="fil5" d="M5736.6 2273.01c-325.37,999.12 -703.7,1994.47 -1134.97,2986.08 530.78,-930.53 913.68,-1937.91 1134.97,-2986.08z"/> <path class="fil5" d="M4769.87 1568.44c-92.9,1046.64 -238.24,2101.5 -436.02,3164.59 308.46,-1025.89 455.56,-2093.5 436.02,-3164.59z"/> <path class="fil3" d="M1485.4 6668.71c1266.85,327.54 2565.21,596.96 3895.11,808.29 -1332.41,-65.95 -2646.47,-338.63 -3895.11,-808.29z"/> <path class="fil4" d="M1525.94 5457.41c1170.22,585.46 2383.42,1120.7 3639.62,1605.73 -1289.09,-343.4 -2516.95,-885.11 -3639.62,-1605.73z"/> <path class="fil3" d="M1602.37 4122.53c1009.02,833.11 2071.19,1626.92 3186.52,2381.44 -1179.16,-623.89 -2254.17,-1427.29 -3186.52,-2381.44z"/> <path class="fil4" d="M1577.87 7762.93c1307.57,49.35 2633.52,35.2 3977.86,-42.44 -1315.75,220.2 -2657.72,234.52 -3977.86,42.44z"/> <path class="fil5" d="M1252.51 6291.64c1268.28,321.97 2567.81,585.69 3898.62,791.18 -1332.69,-60.1 -2647.93,-327.01 -3898.62,-791.18z"/> <path class="fil5" d="M1153.72 4805.25c1163.69,598.33 2370.92,1146.92 3621.69,1645.77 -1285.23,-357.59 -2507.04,-912.81 -3621.69,-1645.77z"/> <path class="fil3" d="M1339.95 5794.54c1212.04,493.11 2463.03,932.83 3753.01,1319.15 -1311.81,-242.58 -2577.92,-687.6 -3753.01,-1319.15z"/> <path class="fil4" d="M1541.23 4599.39c1081.96,735.9 2213.2,1427.74 3393.73,2075.53 -1231.97,-511.8 -2376.88,-1212 -3393.73,-2075.53z"/> <path class="fil3" d="M1794.52 3286.53c889.25,959.91 1836.41,1887.93 2841.49,2784.09 -1085.72,-775.17 -2044.32,-1714.41 -2841.49,-2784.09z"/> <path class="fil4" d="M1286.07 6891.34c1289.39,222.81 2605.45,385.14 3948.17,486.97 -1333.34,43.26 -2665.3,-121.03 -3948.17,-486.97z"/> <path class="fil5" d="M1159.28 5389.85c1214.19,487.78 2467.11,922 3758.76,1302.65 -1312.85,-236.81 -2580.91,-676.27 -3758.76,-1302.65z"/> <path class="fil5" d="M1259.05 3903.52c1073.78,747.79 2197.32,1452.06 3370.63,2112.82 -1226.24,-525.34 -2363.36,-1238.12 -3370.63,-2112.82z"/> <path class="fil3" d="M2046.11 4298.36c794.9,687.18 1633.2,1343.78 2514.89,1969.81 -935.31,-522.31 -1783.74,-1186.84 -2514.89,-1969.81z"/> <path class="fil4" d="M2506.97 3441.15c633.45,838.35 1315.73,1655.88 2046.84,2452.6 -805.26,-706.53 -1495.78,-1533.94 -2046.84,-2452.6z"/> <path class="fil3" d="M3037.7 2507.79c429.19,959.11 910.64,1908.89 1444.34,2849.33 -626.2,-869.19 -1113.46,-1830.44 -1444.34,-2849.33z"/> <path class="fil4" d="M1722.68 5118.72c923.36,501.51 1882.56,963.88 2877.63,1387.11 -1025.29,-310.45 -1996.09,-778.41 -2877.63,-1387.11z"/> <path class="fil5" d="M2012.9 3944.02c797.92,683.69 1639.09,1336.6 2523.52,1958.74 -937.6,-518.19 -1788.93,-1178.99 -2523.52,-1958.74z"/> <path class="fil5" d="M2471.53 2839.19c624.17,845.29 1297.39,1670.29 2019.67,2475.02 -797.41,-715.36 -1478.77,-1550.33 -2019.67,-2475.02z"/> <path class="fil3" d="M2252.98 3617.47c696.45,786.79 1439.98,1549.05 2230.57,2286.77 -857.53,-642.06 -1610.04,-1413.52 -2230.57,-2286.77z"/> <path class="fil4" d="M2823.76 2829.16c516.32,915.15 1083.81,1816.16 1702.47,2703.03 -704.14,-807.34 -1278.49,-1719.24 -1702.47,-2703.03z"/> <path class="fil3" d="M3473.9 1974.68c297.82,1007.67 648.68,2013.04 1052.56,3016.11 -505.03,-944.75 -860.12,-1962.26 -1052.56,-3016.11z"/> <path class="fil4" d="M1823.33 4387.53c848.45,619.85 1737.64,1205.68 2667.58,1757.49 -974.9,-444.05 -1874.84,-1036.96 -2667.58,-1757.49z"/> <path class="fil5" d="M2267.2 3261.86c699.9,783.73 1446.76,1542.71 2240.59,2276.96 -860.35,-638.29 -1616.24,-1406.45 -2240.59,-2276.96z"/> <path class="fil5" d="M2868.69 2227.84c506.2,920.79 1063.72,1828 1672.56,2721.64 -695.19,-815.05 -1259.45,-1733.23 -1672.56,-2721.64z"/> </g> </g> <path class="fil0" d="M4208.83 5492.77c107.49,143.8 216.62,286.91 327.4,429.33 -65.94,-100.68 -129.67,-202.9 -191.14,-306.59 366.96,490.94 755.18,972.93 1164.67,1446 63.74,62.03 127.9,123.84 192.47,185.43 67.79,-7.42 135.45,-15.09 203.01,-23.01 -13.45,-15.98 -26.84,-32.02 -40.18,-48.1 -631.6,-582.28 -1176.7,-1252.39 -1618.38,-1990.07 64.03,84.88 128.64,169.53 193.83,253.93 -20.68,-33.42 -41.12,-67.02 -61.33,-100.75 378.49,501.74 779.29,994 1202.41,1476.76 -429.49,-575.17 -788.97,-1200.35 -1070.24,-1862.43 42.45,76.15 85.31,152.2 128.56,228.13 -7.48,-17.27 -14.92,-34.56 -22.29,-51.9 220.6,395.78 453.36,788.26 698.29,1177.45 168.64,266.82 342.41,532.25 521.35,796.28 35.02,38.83 70.18,77.58 105.48,116.27l23.23 -2.75c-26.31,-36.2 -52.3,-72.61 -77.99,-109.22l-12.33 -1.03 11.41 -0.28 -11.03 -15.77 -8.61 1.15 8.03 -1.97 -13.27 -19.09 -15.5 -1.26 14.36 -0.37 -10.11 -14.64 -11.67 1.58 10.91 -2.68c-253.3,-367.36 -475.55,-754.72 -664.69,-1158.04 -50.74,-105.1 -99.46,-211.21 -146.1,-318.26 -86.15,-155.92 -167.19,-314.75 -242.97,-476.25 -72.91,-146.82 -141.85,-295.74 -206.72,-446.6 85.18,151.26 171.97,302.08 260.37,452.46 -31.35,-84.68 -61.43,-169.88 -90.23,-255.57 77.26,168.01 156.36,335.66 237.34,502.96 311.78,518.35 642.8,1031.39 993.03,1539.14 -39.49,-74.11 -77.81,-148.79 -114.94,-224.02 -292.52,-442.8 -529.55,-919.54 -705.99,-1419.51 -94.58,-221.99 -179.31,-448.38 -253.85,-678.52 12.11,27.12 24.28,54.22 36.49,81.32 -38.63,-105.57 -75.3,-211.92 -109.98,-319 184.42,413.01 379.98,824.04 586.69,1233.08 -99.45,-309.05 -180.37,-624.26 -242.12,-943.94 5.26,17.18 10.56,34.35 15.87,51.52 -21.36,-94.13 -41.22,-188.66 -59.55,-283.55 189.72,618.56 402.56,1235.9 638.52,1851.99 18.95,35.21 37.99,70.41 57.12,105.59 -143.52,-401.08 -255.11,-812.77 -333.8,-1231.24 -38.3,-160.95 -70.49,-323.49 -96.45,-487.27 13.01,48.14 26.21,96.26 39.59,144.39 -3.16,-22.01 -6.23,-44.04 -9.22,-66.08 -44.96,-177.67 -83.93,-357 -116.77,-537.7 28.36,96.26 57.35,192.48 86.95,288.68 -1.61,-15.39 -3.18,-30.79 -4.69,-46.2 6.69,32.22 13.46,64.45 20.28,96.68l2.86 9.22c-1.55,-11.06 -3.06,-22.12 -4.55,-33.2 -49.92,-197.26 -93.17,-396.36 -129.64,-596.97 31.49,106.85 63.66,213.66 96.52,320.45 -1.78,-17.09 -3.52,-34.18 -5.2,-51.29 7.42,35.76 14.93,71.53 22.5,107.3 48.78,157.38 99.06,314.7 150.82,471.95 -1.81,-21.1 -3.5,-42.21 -5.09,-63.33 6.77,36.84 13.67,73.68 20.66,110.54l15.04 45.28c-16.41,-126.94 -29.46,-254.38 -39.1,-382.23 39.76,215.99 82.84,432.19 129.23,648.6 64.58,187.86 131.29,375.63 200.13,563.31 -103.17,-383.21 -171.19,-775.62 -202.87,-1172.37 69.19,366.84 149.03,734.29 239.51,1102.35 -3.72,-24.29 -7.33,-48.6 -10.83,-72.93 -110.79,-417.45 -184.06,-844.6 -218.53,-1276.4 49.61,263 104.14,526.28 163.61,789.85 -26.03,-315.94 -33.51,-633.58 -22.24,-951.3 8.11,113.57 17.01,227.29 26.69,341.14 -7.39,-210.73 -7.36,-421.87 0.14,-633.06 17.56,245.95 38.44,492.49 62.63,739.6 1.47,-35.01 3.21,-70 5.24,-105 5.78,118.66 12.63,237.53 20.52,356.61 3.36,31.47 6.77,62.94 10.24,94.43 -9.32,-234.75 -7.19,-470.11 6.49,-705.25 20.64,423.79 53.44,850 98.4,1278.61 -3.52,-172.5 -0.16,-345.14 10.07,-517.51 -11.32,-224.81 -10.97,-450.36 1.15,-675.73 6.65,125.41 14.5,251.05 23.52,376.92 5.96,-56.3 12.65,-112.56 20.09,-168.74 -2.08,-160.23 1.18,-320.64 9.79,-480.98 7.39,139.2 16.1,278.65 26.12,418.36 7.63,-72.1 16.34,-144.12 26.15,-216.03 -4.28,148.42 -7.11,297.25 -8.46,446.49 30.04,366.86 69.1,735.46 117.18,1105.81 1.46,-37.64 3.25,-75.27 5.37,-112.87 -42.03,-498.2 -26.49,-1000.17 46.74,-1495.91 -14.72,369 -19.44,740.93 -14.14,1115.78 6.5,-56.31 13.73,-112.53 21.7,-168.66 -10.28,-412.07 14.76,-824.88 75.16,-1233.88 -11.84,296.92 -17.86,595.55 -18.02,895.88 31.33,-159.67 68.68,-318.28 112.02,-475.49 -41.41,252.99 -78.2,507.96 -110.38,764.92 0.21,17.73 0.43,35.46 0.68,53.21 42.45,-367.74 113.19,-732.23 211.87,-1090.18 -66.62,407.03 -122.48,818.71 -167.58,1235.01 54.5,-274.69 126.74,-545.81 216.37,-811.63 30.97,-143.9 66.86,-286.86 107.62,-428.61 -13.89,79.37 -27.33,158.93 -40.31,238.7 4.34,-11.64 8.69,-23.27 13.09,-34.9 -6.67,25.56 -13.28,51.14 -19.85,76.75 -8.15,50.69 -16.1,101.47 -23.88,152.32 25.73,-87.07 53.12,-173.68 82.15,-259.79 34.37,-159.69 74.19,-318.34 119.43,-475.65 -15.42,88.1 -30.32,176.41 -44.74,264.95 4.81,-12.92 9.64,-25.83 14.52,-38.72 -7.4,28.38 -14.74,56.79 -22.04,85.22 -66.26,412.56 -121.61,829.96 -166.06,1252.21 124.13,-396.46 286.13,-780.66 484.15,-1147.2 -183.54,448.36 -352.61,907.34 -507.2,1376.92 -7.27,76.15 -14.2,152.45 -20.77,228.91 143.85,-661.44 380.15,-1299.7 702.22,-1895.86 -249.25,608.88 -474.46,1235.39 -675.62,1879.54 293.06,-409.66 568.36,-824.91 825.91,-1245.77 -67.97,143.48 -141.11,284.25 -219.21,422.07 147.68,-223.31 290.74,-448.06 429.17,-674.28 -281.44,594.09 -642.6,1146.51 -1073.12,1642.17l-0.63 7.96c344.04,-306.19 674.64,-620.09 991.8,-941.69 16.77,-20.46 33.49,-40.95 50.16,-61.46 -6.77,10.44 -13.58,20.84 -20.41,31.23 56.63,-57.66 112.84,-115.58 168.61,-173.74 -35.95,46.55 -72.53,92.56 -109.69,138.07 45.37,-45.24 90.5,-90.62 135.39,-136.13 18.6,-22.7 37.17,-45.43 55.66,-68.2 -7.5,11.58 -15.06,23.12 -22.64,34.65 62.87,-64.01 125.26,-128.29 187.16,-192.85 -100.11,129.6 -204.49,255.62 -312.95,377.86 -328.58,467.57 -711.54,894.46 -1140.86,1271.66 37.11,-25 74.1,-50.08 110.97,-75.25 356.57,-317.27 698.71,-643.04 1026.39,-977.29 -84.16,106.5 -171.55,210.24 -262.02,311.07 169.95,-162.95 336.66,-327.79 500.13,-494.54 -209.95,265.71 -438.05,515.88 -682.43,748.87 223.43,-163.84 442.3,-331.16 656.62,-501.99 -49.59,49.03 -99.95,97.21 -151.03,144.56 139.15,-105.75 276.65,-212.76 412.5,-321.05 -395.54,391.08 -834.52,734.61 -1307.94,1024.17 -180.74,148.97 -368.88,289.23 -563.78,420.23 45.49,-38.32 90.78,-76.74 135.88,-115.29 -69.57,50.9 -140.17,100.44 -211.81,148.59 100.36,-84.52 199.65,-169.67 297.87,-255.45 -25.24,14.17 -50.59,28.18 -76.03,42.02 -27.98,23.57 -56.14,46.93 -84.49,70.08 17.09,-17.34 34.14,-34.71 51.15,-52.08 -15.93,8.54 -31.89,17.01 -47.89,25.42 -28.22,23.86 -56.63,47.5 -85.28,70.88 17.73,-18 35.42,-36.01 53.06,-54.05 -17.17,8.91 -34.38,17.74 -51.64,26.5 23.86,-15.56 47.67,-31.13 71.43,-46.75 260.77,-267.2 512.41,-538.68 754.91,-814.45 -102.21,91.17 -207.04,179.45 -314.36,264.72 -71.32,59.6 -143.94,117.69 -217.82,174.24l-0.91 11.59 -0.3 -10.66c-7.66,5.85 -15.33,11.69 -23.02,17.52l-2.77 9.18 1.56 -8.27c-25.57,19.38 -51.3,38.56 -77.17,57.57l-1.41 17.94 -0.46 -16.56 -17.54 12.83 -5.5 18.18 2.99 -15.76c-17.5,19.1 -35.09,38.1 -52.8,57.01l31.74 -42.33c-14.05,10.15 -28.14,20.24 -42.28,30.27l-2.15 2.37 2.59 47.45c-2.34,-14.22 -4.63,-28.45 -6.9,-42.69l-8.22 9.05c-2.89,17.66 -5.76,35.33 -8.61,53.01 0.8,-15.47 1.67,-30.94 2.57,-46.4 -15.68,17.17 -31.48,34.26 -47.36,51.26 -2.61,36.56 -5.14,73.14 -7.59,109.76 -2.74,-66.33 -4.56,-132.66 -5.48,-198.97l-7.59 45.48c1.46,28.4 2.99,56.82 4.57,85.25 -3.15,-19.09 -6.22,-38.18 -9.2,-57.29l-6.9 42.17c3.84,26.3 7.73,52.6 11.66,78.92 -5.08,-19.39 -10.09,-38.8 -15.01,-58.23l-1.93 11.88 0.87 -16.05c-10.48,-41.5 -20.6,-83.07 -30.35,-124.72 -6.34,81.15 -12.25,162.49 -17.7,244.03 -4.75,-114.93 -6.45,-229.86 -5.09,-344.68 -45.97,-209.91 -82.49,-421.63 -109.51,-634.48 1.52,79.94 3.46,159.98 5.79,240.15 28.01,244.15 60.38,489.16 97.15,735 -31.11,-118.58 -58.81,-237.9 -83.12,-357.83 7.77,172.23 17.43,344.99 28.99,518.28 -56.73,-321.37 -91.48,-645.73 -104.24,-970.86l-2.63 -20.48c4.25,223.92 12.08,448.86 23.52,674.8 5.79,43.63 11.71,87.29 17.75,130.97 17.13,60.95 34.52,121.91 52.18,182.89 -13.85,-33.7 -27.43,-67.51 -40.77,-101.4 3.73,26.37 7.51,52.74 11.34,79.12 -10.91,-42.33 -21.42,-84.74 -31.55,-127.23l2.7 45.47c5.18,32.33 10.4,64.66 15.69,97 14.51,36.54 29.11,73.07 43.78,109.6 -12.59,-23.59 -25.06,-47.23 -37.43,-70.93 5.66,34.4 11.39,68.83 17.18,103.25 -10.7,-37.96 -21.14,-75.99 -31.33,-114.08l0.9 13.64c-1.73,-9.82 -3.44,-19.66 -5.13,-29.49l-4.74 -17.91c-11.6,-22.53 -23.11,-45.11 -34.52,-67.73 10.66,37.56 21.43,75.13 32.31,112.71 -12.48,-30.36 -24.72,-60.81 -36.73,-91.33 3.37,23.74 6.77,47.5 10.22,71.26 -10.6,-41.13 -20.79,-82.35 -30.57,-123.65l-5.77 -15.12c8,50.81 16.16,101.63 24.47,152.49 13.08,32.92 26.23,65.84 39.45,98.75 -11.34,-21.25 -22.59,-42.56 -33.73,-63.91 5.1,31 10.26,62.01 15.48,93.03 -12.49,-44.31 -24.58,-88.71 -36.31,-133.2 -66.6,-129.32 -129.64,-260.32 -189.1,-392.83l7.07 27.32c53.78,152.44 109.29,304.84 166.53,457.21 -34.47,-68.3 -67.82,-137.11 -100.07,-206.39 27.43,101.3 55.59,202.65 84.46,304.04 -76.12,-187.55 -144.22,-377.99 -204.18,-570.8 6.97,27.38 14.03,54.75 21.12,82.13 48.46,137.35 98.46,274.65 150.04,411.93 -31.04,-61.49 -61.08,-123.44 -90.12,-185.82 14.03,51.82 28.28,103.66 42.73,155.5 19.53,65.79 39.3,131.59 59.33,197.41 19.25,34.29 38.58,68.57 57.99,102.83 -15.62,-21.71 -31.14,-43.5 -46.56,-65.35 10.2,33.36 20.45,66.72 30.78,100.08 -20.29,-46.9 -40.15,-93.96 -59.62,-141.17 -17.57,-25.21 -35.01,-50.49 -52.32,-75.86 8.2,27.25 16.45,54.5 24.74,81.76 17.34,30.89 34.75,61.77 52.23,92.63 -14.07,-19.56 -28.05,-39.18 -41.93,-58.87 9.19,30.05 18.42,60.09 27.72,90.15 -18.29,-42.27 -36.18,-84.69 -53.72,-127.24 -10.25,-14.7 -20.47,-29.43 -30.62,-44.21 36.44,91.02 73.39,182.03 110.85,272.99l21.28 -2.58c63.94,-22.46 127.72,-45.12 191.33,-68 -25.45,6.72 -50.93,13.31 -76.46,19.77 98.83,-36.71 197.19,-73.98 295.1,-111.79 -12.19,2.44 -24.39,4.84 -36.6,7.22 -105.45,32.44 -211.78,62.24 -318.93,89.32 53.59,-19.9 107.02,-39.99 160.3,-60.26 -10.12,1.74 -20.24,3.45 -30.37,5.14 21.68,-6.08 43.34,-12.2 64.98,-18.34 23.67,-9.05 47.3,-18.13 70.92,-27.25 -67.5,13.51 -135.25,25.96 -203.22,37.32 141.18,-39.65 281.47,-80.56 420.87,-122.74 88.47,-35.29 176.53,-71.07 264.16,-107.38 -185.02,41.54 -371.47,77.25 -559.07,107.05 -47.51,18.71 -95.17,37.06 -143.02,54.97 31.19,-15.7 62.32,-31.45 93.42,-47.24 -16.82,2.58 -33.66,5.11 -50.49,7.59 -33.88,13.21 -67.83,26.19 -101.89,38.94 28.1,-14.14 56.15,-28.33 84.17,-42.55 -23.81,3.64 -47.64,7.19 -71.49,10.62 34.36,-8.82 68.67,-17.69 102.95,-26.62 32.97,-16.8 65.89,-33.65 98.75,-50.55 -12.26,3.15 -24.51,6.26 -36.78,9.34 -19.27,7.94 -38.58,15.78 -57.93,23.53 21.2,-11.28 42.37,-22.6 63.51,-33.93 -31.72,8.38 -63.51,16.52 -95.37,24.42 24.03,-8.8 48.05,-17.66 72.03,-26.54 68.27,-43.49 136.21,-87.25 203.82,-131.27 -93.66,52.13 -188.67,102 -284.95,149.51 263.24,-167.44 520.96,-339.22 773.15,-515.34 -168.71,85.56 -340.88,164.54 -516.14,236.69 -56.73,24.33 -113.84,47.86 -171.3,70.57 424.52,-223.51 836.83,-458.32 1236.95,-704.41 107.62,-80.49 214.16,-161.83 319.62,-244 -46.99,45.44 -94.65,90.14 -142.93,134.1 78.03,-49.08 155.59,-98.6 232.68,-148.56 53.1,-40.62 105.96,-81.43 158.57,-122.43 -52.17,50.46 -105.08,100.09 -158.7,148.9 118.56,-74.58 236.14,-150.06 352.74,-226.46 -193.73,158.86 -395.36,307.28 -603.98,444.79 -424.98,352.46 -889.46,655.34 -1384.53,902.35 24.58,-9.13 49.13,-18.28 73.64,-27.49 553.89,-299.48 1086.58,-618.41 1598.08,-956.78 -114.78,94.96 -232.67,185.85 -353.45,272.53 208.18,-128.29 413.38,-259.32 615.59,-393.09 -70.5,58.34 -142.07,115.28 -214.64,170.81 95.48,-58.34 190.43,-117.23 284.8,-176.63 -115.24,91.02 -232.83,178.8 -352.64,263.28 219.68,-130.12 436.8,-262.71 651.35,-397.75 -379.64,299.87 -782.32,568.12 -1203.9,802.45 224.72,-97.92 446.58,-199.32 665.55,-304.2 -84.55,52.24 -170.24,102.48 -256.97,150.72 178.09,-79.73 354.53,-161.44 529.32,-245.15 -510.9,315.63 -1058.73,565.93 -1630.6,745.48 -61.47,27.54 -123.28,54.39 -185.4,80.55 312.03,-84.89 620.63,-174.88 925.84,-269.94 181.91,-81.66 361.91,-165.6 539.98,-251.85 -98,61.14 -197.54,119.61 -298.49,175.35 41.62,-13.41 83.16,-26.92 124.66,-40.52 147.01,-67.36 292.88,-136.08 437.61,-206.18 -75.21,46.92 -151.23,92.42 -228.02,136.48 57.61,-19.43 115.08,-39.05 172.43,-58.85 30.02,-13.57 60,-27.18 89.94,-40.85 -13.32,7.89 -26.68,15.75 -40.05,23.57 95.08,-33.06 189.81,-66.63 284.2,-100.72 -82.37,40.13 -165.37,78.82 -248.97,116.08 67.36,-22.7 134.56,-45.61 201.61,-68.77 33.3,-15.05 66.57,-30.16 99.78,-45.32 -14.77,8.75 -29.57,17.45 -44.38,26.12 105.51,-36.68 210.65,-73.93 315.4,-111.76 -183.29,89.28 -369.39,172.2 -557.94,248.66 -21.66,11.78 -43.36,23.5 -65.12,35.11 51.85,-19.63 103.59,-39.43 155.2,-59.39 -163.67,84.36 -330.33,162.32 -499.59,233.77 -456.77,219.08 -931.43,399.22 -1418.92,538.39 30.97,-4.23 61.91,-8.5 92.84,-12.84 573.25,-156.99 1135.07,-331.43 1685.46,-523.34 -183.67,86.97 -370.35,166.88 -559.63,239.64 286.61,-89.84 570.53,-183.78 851.76,-281.83 -341.85,161.87 -693.08,301.74 -1051.52,418.99 323.27,-57.09 643.69,-119.99 961.25,-188.71 -141.41,46.85 -283.97,89.71 -427.48,128.62 248.8,-46.9 496.09,-96.93 741.81,-150.11 -254.81,84.41 -512.96,157.23 -773.64,218.36 -563.41,170.49 -1145.84,271.49 -1734.34,300.5 -59.97,10.58 -120.06,20.56 -180.27,29.93 522.34,-17.15 1039.01,-49.18 1550.02,-96.1 164.63,-30.36 328.53,-62.25 491.69,-95.68 -77.57,24.75 -155.48,48.3 -233.69,70.67 156.34,-15.94 312.12,-33.28 467.38,-52.03 -183.64,42.41 -368.5,78.32 -554.27,107.76l52.54 -4.77c182.76,-33.69 364.7,-69.1 545.83,-106.21 -86.12,27.48 -172.61,53.63 -259.43,78.47 173.53,-17.7 346.48,-36.96 518.83,-57.78 -303.98,70.2 -611.01,124.4 -919.81,162.56 -315.55,74.73 -634.82,132.28 -956.39,172.46 470.49,-33.01 936.18,-78.38 1397.11,-136.1 -361.34,85.12 -727.57,145.13 -1096.07,179.87 464.29,-35.31 924.37,-81.5 1380.25,-138.59 -519.87,122.46 -1048.85,198.11 -1580.61,226.52 425.36,26.69 848.25,42.79 1268.64,48.34 -315.24,29.59 -631.5,40.6 -947.15,33.14 411.52,23.24 820.94,37.55 1228.27,42.93 -856.04,80.34 -1718.79,37.33 -2561.91,-127.39l-25.87 -1.57c24.4,22.97 48.84,45.91 73.35,68.81 -30.82,-23.11 -61.47,-46.45 -91.94,-69.99l-31.95 -2.11c48.51,45.99 97.23,91.88 146.14,137.66 51.15,8.87 102.27,17.59 153.38,26.15 623.66,50.26 1241.96,78.09 1854.87,83.48 -362.65,35.64 -726.75,46.68 -1089.82,33.3 81.56,11.22 163.06,22.05 244.5,32.47 369.77,17.66 737.81,28.11 1104.12,31.33 -174.9,17.19 -350.1,29.22 -525.38,36.12 117.27,12.32 234.4,23.8 351.42,34.43 -273.12,4.39 -545.91,-5.06 -817.35,-28.2 -72.83,-0.91 -145.62,-2.71 -218.38,-5.39 436.21,60.04 870.84,109.76 1303.86,149.14 -705.81,11.34 -1409.71,-60.57 -2097.2,-213.67 -140.6,-17.74 -280.83,-38.8 -420.57,-63.2 52.27,37.74 104.73,75.34 157.4,112.8 -71.02,-39.73 -141.39,-80.52 -211.1,-122.34 -32.88,-5.94 -65.74,-12.07 -98.56,-18.39 83.11,60.9 166.66,121.49 250.69,181.75 611.2,187.17 1221.91,350.3 1832.14,489.38 -833.04,-98.18 -1645.76,-325.27 -2409.05,-673.13 175.03,57.9 350.01,113.83 524.96,167.79 -103.17,-60.34 -205.07,-122.7 -305.64,-187.03 -29.78,-6.11 -59.53,-12.35 -89.26,-18.76 23.86,2.49 47.71,4.96 71.56,7.4 -627.38,-403.39 -1202.71,-883.72 -1712.32,-1430.31 328.11,284.09 664.74,562.2 1009.9,834.31 -294.46,-238.06 -572.28,-496.84 -831.27,-774.63 518.47,448.93 1060.56,881.25 1626.27,1296.95 68.1,6.75 136.14,13.23 204.11,19.45 -82.78,-22.24 -165.25,-45.8 -247.37,-70.68 89.61,16.87 179.14,33.27 268.6,49.18 -55.03,-51.29 -109.39,-103.25 -163.08,-155.87l-0.55 -0.12 0.48 0.05c-78.96,-77.39 -156.47,-156.19 -232.46,-236.37 -530.13,-463.66 -1004.52,-988.56 -1412.92,-1564.27 128.42,145.31 258.68,289.65 390.79,433.05 -80.5,-102.58 -158.57,-207.17 -234.14,-313.69 180.19,203.88 364.42,405.68 552.67,605.38 -180.35,-243.98 -348.46,-497.25 -503.58,-758.92zm1493.46 1788.75l12.25 13.82 5.18 -0.15 -16.96 -13.57 -0.47 -0.1zm16.54 18.67l2.54 2.86 7.26 -0.8 -1.88 -1.5 -7.92 -0.56zm9.91 11.16l24.4 27.47 25.27 2.66c-12.84,-10.03 -25.63,-20.12 -38.42,-30.23l-11.25 0.1zm122.55 137.17c14.99,16.66 30,33.3 45.04,49.94l26.61 4.64c-23.98,-18.07 -47.86,-36.27 -71.65,-54.58zm33.01 47.84c-48.51,-43.79 -96.46,-88.13 -143.86,-133.04l-6.69 -0.49c37.57,42.38 75.32,84.71 113.2,126.96l37.35 6.57zm-150.23 -139.07l-3.47 -3.31 -14.71 -11.77 -0.5 -0.1 13.58 15.33 5.1 -0.15zm255.41 -110.39l5.67 9.77 -7.11 -9.71 -19.49 0.79 11.79 12.88 -14.46 -12.77 -6.52 0.25 22.92 25.15 25.79 -3.07 -16.91 -23.36 -1.68 0.07zm-51.39 -717.09c13.65,24.7 27.33,49.39 41.06,74.07 -28.39,-71.25 -55.85,-142.84 -82.38,-214.74 13.63,46.89 27.41,93.77 41.32,140.67zm-25.48 17.16c-10.53,-15.8 -21.01,-31.65 -31.44,-47.52l15.03 38.11c14.52,26.31 29.09,52.61 43.71,78.9 -9.21,-23.12 -18.3,-46.29 -27.3,-69.49zm-904.1 585.89c147.77,114.26 297.08,227.44 447.92,339.54l46.16 4.76c-168.99,-108.66 -333.79,-223.5 -494.08,-344.3zm606.27 373.63l35.69 26.11c89.05,16.42 178.04,32.41 266.96,47.99 -9.69,-8.75 -19.36,-17.52 -29.01,-26.3 -91.43,-14.36 -182.65,-30.3 -273.64,-47.8zm63.39 46.31l39.16 28.47c31.98,3.02 63.95,6.01 95.91,8.93 -45.11,-12.11 -90.13,-24.58 -135.07,-37.4zm-18.28 22.97c-28.89,-17.65 -57.67,-35.49 -86.33,-53.5 -11.67,-3.49 -23.32,-6.99 -34.98,-10.53l26 4.88c-15.4,-9.7 -30.76,-19.45 -46.09,-29.26 -19.45,-3.98 -38.88,-8.04 -58.3,-12.17 42.02,31.22 84.15,62.36 126.41,93.41 24.43,2.42 48.87,4.81 73.29,7.17zm270.98 -359l3.4 3.74 0.7 -0.08 -4.1 -3.66zm6.05 32.17l2.73 3.96 -1.49 -1.73 17.35 25.25 18.14 -2.14c-9.55,-8.53 -19.09,-17.07 -28.61,-25.63l-8.12 0.29zm79.27 -318.31l6.39 9.25 26.2 -3.16c-48.73,-90.75 -95.86,-182.27 -141.39,-274.54l-0.67 -1.01c35.94,89.85 72.43,179.67 109.47,269.46zm11.7 28.33l3.57 8.61 3.64 -0.43 -7.05 -8.22 -0.16 0.04zm4.28 10.33l2.58 6.23 -3.39 -6.22 -15.93 0.17 15.05 -1.78 -4.51 -8.28 -16.31 3.87 9.88 14.21 -11.9 -13.73c-17.27,4.07 -34.55,8.08 -51.84,12.04 15.97,-5.52 31.93,-11.06 47.87,-16.61l-11.73 -13.56 -19.34 0.21 17.71 -2.11c-199.47,-231.66 -385.39,-474.13 -556.99,-726.17 145.54,276.62 296.24,552.27 452.1,826.95 59.47,-14.67 118.84,-29.53 178.07,-44.56l-9.17 -10.59c-19.17,4.52 -38.34,8.98 -57.55,13.37 17.74,-6.13 35.45,-12.27 53.16,-18.44l-13.03 -15.05 -4.73 0.05zm-9.86 -16.6l-0.67 -1.24 -5.28 -6.16 -19.02 0.27 8.86 12.74 16.11 -5.61zm-3.06 -812.08c-64.36,-135.3 -125.29,-272.14 -182.74,-410.34 73.5,201.26 149.71,402.4 228.65,603.44 -16.1,-64.21 -31.4,-128.57 -45.91,-193.1zm-309.76 1113.26l25.84 24.59c35.66,3.77 71.3,7.46 106.92,11.08 36.03,-4.11 72.04,-8.27 108.02,-12.5 -7.9,-9.23 -15.77,-18.48 -23.62,-27.74 -72.33,2.49 -144.72,4.01 -217.16,4.57zm39.3 37.38l3.08 2.93 9.64 -0.32 -12.72 -2.61zm20.76 19.68l35.19 33.29c26.29,2.73 52.57,5.42 78.83,8.07 53.12,-1.9 106.17,-3.95 159.18,-6.13 -67.29,-11.29 -134.47,-23.44 -201.51,-36.44 -23.89,0.5 -47.79,0.9 -71.69,1.21zm138.95 -494.11c28.9,42.13 57.94,84.23 87.13,126.28l17.1 -2.04c-35.13,-41.11 -69.87,-82.53 -104.23,-124.24zm204.96 -2293.71c-2.55,104.2 -4.3,208.61 -5.25,313.25 1.57,19.15 3.16,38.32 4.79,57.5 2,-54.92 4.62,-109.82 7.88,-164.69 -3.45,-68.63 -5.92,-137.32 -7.42,-206.06zm474.46 299.69c-62.03,273.4 -118.88,549.62 -170.53,828.67 2.88,75.19 6.14,150.49 9.73,225.9 27.53,-340.17 79.15,-677.62 154.31,-1009.84 2.11,-14.92 4.27,-29.83 6.49,-44.73zm-193.09 952.61l-3.21 17.99c-7.5,89.37 -14.52,178.96 -21.04,268.76 15.46,-13.33 30.89,-26.69 46.3,-40.06 1.17,-19.31 2.44,-38.62 3.77,-57.92 -9.45,-62.83 -18.05,-125.76 -25.82,-188.77zm-61.09 325.86c1.21,-20.34 2.51,-40.67 3.9,-60.99 -8.86,-59.04 -16.9,-118.16 -24.14,-177.36 -1.69,20 -3.38,40.01 -5.02,60.03 8.19,59.4 16.61,118.84 25.26,178.32zm9.74 -139.2c3.44,-42.4 7.28,-84.74 11.54,-127.04 1.07,-112.27 4.76,-224.46 11.06,-336.46 -2.85,-33.89 -5.47,-67.81 -7.85,-101.73 -9.52,88.91 -18.49,178.05 -26.93,267.42 3.37,99.07 7.43,198.34 12.18,297.81zm-256.31 248.65c10.29,26.43 20.63,52.85 31,79.28 -16.05,-64.02 -31.38,-128.18 -46.01,-192.49 4.9,37.71 9.91,75.45 15.01,113.21zm533.48 -618.47c-29.38,91.03 -58.22,182.47 -86.53,274.3 28.99,-39.64 57.81,-79.34 86.46,-119.1 -0.53,-51.75 -0.51,-103.48 0.07,-155.2zm-105.97 337.76l-2.82 9.25 7.39 -6.48 -0.18 -7.83 -4.39 5.06zm-9.48 15.09l1.07 -5.48 -17.46 19.85 16.39 -14.37zm10.63 -53.57l2.38 -11.59c-2.3,-146 0.32,-291.89 7.83,-437.45 -33.25,175.85 -64.64,352.71 -94.16,530.58l1.57 30.05c27.61,-37.15 55.07,-74.35 82.38,-111.59zm18.56 -88.34c26.39,-121.36 56.24,-241.84 89.5,-361.33 8.88,-277.76 33.82,-554.65 74.6,-829.26 -25.23,111.19 -49.69,222.81 -73.36,334.86 -35.78,282.79 -66.04,568.04 -90.74,855.73zm-9.59 115.18l-0.69 8.53c13.87,-18.66 27.71,-37.33 41.52,-56.01 -13.54,15.89 -27.14,31.72 -40.83,47.48zm-617.16 1638.92c74.24,11.48 148.62,21.92 223.13,31.32 73.31,16.33 146.85,31.63 220.56,45.9 -71.98,-5.26 -144.03,-10.81 -216.14,-16.62 -68.1,-11.41 -136.23,-23.06 -204.41,-34.97l-23.14 -25.63zm663.37 -419.76c-195.1,27.81 -391.18,53.55 -588.27,77.21 -20.03,-34.79 -40,-69.61 -59.87,-104.43 215.87,16.89 432.06,25.96 648.14,27.22zm-570.01 108.87c148.38,-6.48 296.48,-17.05 444.11,-31.67 -143.11,19.24 -286.71,37.47 -430.78,54.71l-13.33 -23.04zm183.74 -326.49c25.15,-3.17 50.28,-6.38 75.4,-9.63 43.23,-15.39 86.39,-30.88 129.48,-46.45 -68.02,19.58 -136.31,38.28 -204.88,56.08zm-139.88 24.91l-15.17 5.3 -3.47 -4.99 18.64 -0.31zm-10.18 12.52l22.3 -5.39 6.38 11.81 -22.37 2.67 -6.31 -9.09zm28.27 -6.84l27.14 -6.65c27.38,-0.66 54.74,-1.45 82.09,-2.39l-39.54 13.92c-21.48,2.62 -42.96,5.23 -64.46,7.81l-5.23 -12.69zm247.22 435.95c-26.32,-0.23 -52.64,-0.57 -78.97,-1.04 75.48,6.75 150.89,13.2 226.23,19.35 -49.13,-5.65 -98.23,-11.76 -147.26,-18.31zm7.45 -52.86c-50.12,-4.2 -100.27,-8.54 -150.46,-13.03 166.41,2.94 332.79,0.74 498.9,-6.57 -115.89,7.2 -232.04,13.73 -348.44,19.6zm-55.93 -395.7l-10.72 2.8 28.64 -3.63 -17.92 0.83zm-65.45 28.01c-38.2,9.89 -76.45,19.73 -114.74,29.47l-4.69 -11.35c23.03,-5.5 46.05,-11.08 69.05,-16.76 16.8,-0.4 33.59,-0.86 50.38,-1.36zm-115.55 29.68l-16.52 4.2 -7.61 -10.94 18.11 -4.3 6.02 11.04zm-192.62 53.62c97.8,-13.58 195.29,-28.95 292.42,-46.08 16.47,-0.81 32.94,-1.69 49.4,-2.63 -85.87,22.15 -171.96,43.95 -258.28,65.41 -24.29,0.71 -48.58,1.39 -72.89,2.04l-10.65 -18.74zm356.97 -360.06l7.11 -1.84 -4.11 0.66 -3 1.18zm93.65 -37.51l20.88 -5.54 30.62 -15.69c-17.14,7.12 -34.31,14.22 -51.5,21.23zm-374.59 426.6c-18.36,2.64 -36.73,5.23 -55.11,7.76l11.05 19.38c120.12,-3.16 239.95,-7.02 359.54,-11.59 -105.2,-3.13 -210.37,-8.3 -315.48,-15.55zm-62.1 -4.54l29.28 2.21 -24.58 6.06 -4.7 -8.27zm571.66 -866.32c31.55,-27.32 62.8,-54.94 93.8,-82.85 -18.65,19.29 -37.34,38.55 -56.08,57.79l-37.72 25.06zm926.08 -988.99l14.83 -19.69 16.05 -15.83 -30.88 35.52zm-1043.16 1394.36l4.46 -1.22 -12.82 4.75 8.36 -3.53zm71.21 -602.01l-2.74 3.69 1.7 -10.35 1.04 6.66zm-20.96 28.14c-12.72,17.04 -25.47,34.07 -38.25,51.09l1.86 -25.74c12.16,-8.41 24.29,-16.86 36.39,-25.35zm-336.33 929.9l3.01 7.3 22.14 -7.73 -25.15 0.43zm0.11 8.31l-4.48 -8.24 -23.25 0.33 9.84 14.15 17.89 -6.24zm-303.62 375.82l3.41 3.24 10.72 -0.35 -14.13 -2.89zm850.17 -1511.06l-1.86 6.09 6.87 -6.09 -0.13 -5.61 -4.88 5.61zm-9.83 13.17l0.49 -2.5 -8.22 9.36 7.73 -6.86zm1326.82 2576.55c-890.45,-202.94 -1781.82,-452.01 -2674.12,-747.2 847.27,386.14 1749.41,638.21 2674.12,747.2z"/> <g> <path class="fil6" d="M5709.82 7722.37c-21.35,-329.15 67.16,-710.73 179.87,-1042.48 112.69,-331.74 249.56,-613.64 349.14,-822.9 99.58,-209.27 161.85,-345.89 137.52,-256.82 -24.33,89.08 -135.26,403.84 -229.62,653.66 -94.37,249.82 -172.16,434.71 -229.64,678.51 -57.49,243.8 -94.66,546.52 -78.52,835.1 16.13,288.59 85.58,563.04 54.69,561.91 -30.88,-1.13 -162.09,-277.84 -183.44,-606.98z"/> <path class="fil2" d="M5709.82 7722.37c-21.35,-329.15 67.16,-710.73 179.87,-1042.48 112.69,-331.74 249.56,-613.64 349.14,-822.9 99.58,-209.27 161.85,-345.89 137.52,-256.82 -5.56,20.35 -15.64,52.51 -29.01,92.94 -22.95,47.71 -51.71,108.77 -84.52,177.73 -99.58,209.26 -236.45,491.16 -349.14,822.9 -112.71,331.75 -201.22,713.33 -179.87,1042.48 18.25,281.42 116.81,524.47 164.31,589.75 -1.21,2.29 -2.8,3.45 -4.86,3.38 -30.88,-1.13 -162.09,-277.84 -183.44,-606.98z"/> <g> <path class="fil3" d="M8219.39 7029.32c-903.89,130.63 -1825.22,218.55 -2764,263.75 929.44,55.85 1861.9,-33.13 2764,-263.75z"/> <path class="fil4" d="M8283.64 6185.84c-856.53,316.95 -1739.05,595.78 -2647.56,836.49 920.54,-139.94 1813.72,-422.14 2647.56,-836.49z"/> <path class="fil3" d="M8332.4 5253.9c-763.57,501.05 -1561.02,970.78 -2392.36,1409.21 865.67,-342.93 1672.75,-818.34 2392.36,-1409.21z"/> <path class="fil4" d="M8071.8 7781.42c-910.94,-65.48 -1829.78,-176.4 -2756.54,-332.79 896.05,253.11 1826,365.38 2756.54,332.79z"/> <path class="fil5" d="M8409.72 6785.47c-904.46,126.66 -1826.17,210.53 -2765.13,251.61 929.18,59.93 1862.02,-24.95 2765.13,-251.61z"/> <path class="fil5" d="M8591.61 5761.77c-852.98,326.38 -1732.37,614.92 -2638.17,865.63 918.94,-150.08 1808.95,-442.11 2638.17,-865.63z"/> <path class="fil3" d="M8386.96 6433.93c-878.49,249.68 -1779.94,459.35 -2704.37,629 928.61,-68.26 1840.96,-280.46 2704.37,-629z"/> <path class="fil4" d="M8338.46 5589.4c-806.77,428.04 -1644.36,821.77 -2512.79,1181.17 893.75,-261.13 1741.46,-659.61 2512.79,-1181.17z"/> <path class="fil3" d="M8262.85 4659.24c-690.15,598.16 -1418.05,1169.78 -2183.69,1714.87 812.36,-455 1549.05,-1033.53 2183.69,-1714.87z"/> <path class="fil4" d="M8340.71 7198.97c-911.55,56.26 -1836.99,68.52 -2776.31,36.78 921.75,131.69 1858.37,119.28 2776.31,-36.78z"/> <path class="fil5" d="M8543.17 6166.93c-879.58,245.83 -1781.95,451.54 -2707.1,617.13 928.89,-64.18 1842.16,-272.37 2707.1,-617.13z"/> <path class="fil5" d="M8587.3 5128.13c-802,436.92 -1635.2,839.86 -2499.61,1208.81 890.81,-270.97 1734.08,-678.77 2499.61,-1208.81z"/> <path class="fil3" d="M8011.14 5342.05c-603.9,416.14 -1235.56,807.75 -1895,1174.84 688.73,-291.05 1328.03,-687.39 1895,-1174.84z"/> <path class="fil4" d="M7756.77 4712.18c-503.41,533.33 -1039.11,1048.49 -1607.09,1545.49 612.55,-428.77 1154.72,-950.15 1607.09,-1545.49z"/> <path class="fil3" d="M7459.73 4024.17c-370.9,632.68 -777.35,1254.91 -1219.34,1866.67 500.73,-555.27 912.08,-1185.02 1219.34,-1866.67z"/> <path class="fil4" d="M8172.97 5935.87c-678.86,277.52 -1379.6,525.16 -2102.23,742.91 735.01,-137.2 1444.21,-387.83 2102.23,-742.91z"/> <path class="fil5" d="M8061.2 5098.75c-605.72,413.48 -1239.1,802.31 -1900.14,1166.5 690,-288.01 1331.03,-681.55 1900.14,-1166.5z"/> <path class="fil5" d="M7827.26 4297.26c-497.5,538.85 -1027.48,1059.89 -1589.96,1563.11 607.79,-435.49 1144.18,-962.82 1589.96,-1563.11z"/> <path class="fil3" d="M7919.54 4853.88c-543.19,492.76 -1117.16,964.9 -1721.92,1416.43 643.9,-380.06 1224.81,-857.9 1721.92,-1416.43z"/> <path class="fil4" d="M7583.66 4263.44c-428.01,595.54 -890.43,1177.37 -1387.28,1745.49 550.09,-506.42 1018.1,-1095.28 1387.28,-1745.49z"/> <path class="fil3" d="M7197.75 3621.04c-283.46,676.39 -603.54,1347.15 -960.24,2012.26 422.42,-616.94 746.37,-1295.79 960.24,-2012.26z"/> <path class="fil4" d="M8158.9 5420.9c-635.91,365.35 -1297.49,703.98 -1984.75,1015.9 710.23,-233.74 1379.81,-576.46 1984.75,-1015.9z"/> <path class="fil5" d="M7936.79 4606.08c-545.34,490.37 -1121.38,959.98 -1728.12,1408.86 645.57,-377.23 1228.57,-852.52 1728.12,-1408.86z"/> <path class="fil5" d="M7598.34 3842.83c-421.42,600.22 -877.4,1187.12 -1367.95,1760.68 544.47,-512.46 1005.96,-1106.44 1367.95,-1760.68z"/> <path class="fil3" d="M3833.12 5779.49c651.45,640.08 1342.23,1256.04 2072.34,1847.89 -782.37,-504.85 -1481.49,-1128.26 -2072.34,-1847.89z"/> <path class="fil4" d="M4280.35 5061.46c503.03,762.27 1049.56,1509.18 1639.61,2240.74 -659.35,-657.43 -1212.49,-1413.37 -1639.61,-2240.74z"/> <path class="fil3" d="M4792.4 4281.26c319.16,855.7 684.17,1706.2 1095.02,2551.5 -495.02,-788.61 -864.44,-1649.39 -1095.02,-2551.5z"/> <path class="fil4" d="M3507.15 6473.16c773.15,486.14 1579.56,940.32 2419.25,1362.54 -872.15,-326.07 -1688.31,-785.73 -2419.25,-1362.54z"/> <path class="fil5" d="M3823.94 5470.29c654.26,637.22 1347.73,1250.14 2080.43,1838.77 -784.57,-501.41 -1486.43,-1121.73 -2080.43,-1838.77z"/> <path class="fil5" d="M4282.95 4537.36c494.59,767.77 1032.86,1520.66 1614.8,2258.69 -652.06,-664.67 -1196.83,-1426.66 -1614.8,-2258.69z"/> <path class="fil3" d="M4050.28 5200.33c560.53,721.04 1163.25,1423.4 1808.16,2107.09 -708.27,-604.42 -1318.28,-1315.26 -1808.16,-2107.09z"/> <path class="fil4" d="M4589.03 4548.16c397.18,822.4 839.52,1635.37 1327.03,2438.91 -566.06,-739.29 -1013.75,-1562.08 -1327.03,-2438.91z"/> <path class="fil3" d="M5200.29 3842.99c202.52,890.55 451.17,1782.04 745.95,2674.48 -385.74,-847.45 -637.4,-1749.71 -745.95,-2674.48z"/> <path class="fil4" d="M3634.95 5844.49c701.62,584.65 1440.46,1142.05 2216.53,1672.19 -821.03,-439.17 -1568.81,-1003.3 -2216.53,-1672.19z"/> <path class="fil5" d="M4082.3 4892.66c563.69,718.57 1169.49,1418.28 1817.4,2099.13 -710.92,-601.3 -1324.04,-1309.46 -1817.4,-2099.13z"/> <path class="fil5" d="M4661.3 4029.06c388.09,826.73 821.44,1644.53 1300.06,2453.39 -557.87,-745.48 -996.46,-1573.16 -1300.06,-2453.39z"/> <path class="fil3" d="M4999.25 4542.4c240.67,692.77 518.24,1382.2 832.71,2068.3 -383.07,-642.12 -664,-1339.88 -832.71,-2068.3z"/> <path class="fil4" d="M5576.98 4185.08c90.32,727.81 217.42,1460.07 381.3,2196.79 -240.17,-708.08 -368.81,-1449.19 -381.3,-2196.79z"/> <path class="fil3" d="M6223.5 3806.13c-75.29,729.51 -115.73,1471.62 -121.33,2226.33 -75.17,-743.91 -34.24,-1494.99 121.33,-2226.33z"/> <path class="fil4" d="M4517.47 4925.4c383.11,625.37 801.54,1239.59 1255.32,1842.67 -511.4,-545.46 -934.9,-1167.1 -1255.32,-1842.67z"/> <path class="fil5" d="M5102.84 4316.63c243.71,691.71 524.3,1379.91 841.78,2064.62 -385.89,-640.43 -669.87,-1336.95 -841.78,-2064.62z"/> <path class="fil5" d="M5765.62 3808.86c82.3,728.76 201.32,1462.38 357.07,2200.86 -232.36,-710.68 -352.82,-1453.16 -357.07,-2200.86z"/> <path class="fil3" d="M5361.92 4203.02c146.39,718.63 329.81,1438.86 550.23,2160.68 -294.27,-687.36 -479.9,-1416.29 -550.23,-2160.68z"/> <path class="fil4" d="M5982.03 3925.72c-7.28,733.35 21.31,1476.01 85.76,2227.98 -143.87,-733.73 -172.81,-1485.36 -85.76,-2227.98z"/> <path class="fil3" d="M6673.21 3636.12c-171.64,713.02 -310.42,1443.16 -416.34,2190.42 24.43,-747.31 164.88,-1486.27 416.34,-2190.42z"/> <path class="fil4" d="M4833.48 4518.55c296.53,670.76 629.56,1335.18 999.09,1993.26 -434.31,-608.64 -771.37,-1281.08 -999.09,-1993.26z"/> <path class="fil5" d="M5494.61 3993.03c149.55,717.98 336.12,1437.39 559.72,2158.24 -297.29,-686.06 -486.12,-1414.16 -559.72,-2158.24z"/> <path class="fil5" d="M6219.04 3577.93c-15.36,733.23 5.03,1476.16 61.18,2228.8 -135.77,-735.28 -156.41,-1487.18 -61.18,-2228.8z"/> </g> </g> </g> </g> </svg>