<?xml version="1.0" encoding="utf-8"?>
<!-- Generator: Adobe Illustrator 24.0.2, SVG Export Plug-In . SVG Version: 6.00 Build 0)  -->
<svg version="1.1" id="Layer_1" xmlns="http://www.w3.org/2000/svg" xmlns:xlink="http://www.w3.org/1999/xlink" x="0px" y="0px"
	 viewBox="0 0 297.4 327" style="enable-background:new 0 0 297.4 327;" xml:space="preserve">
<style type="text/css">
	.st0{fill-rule:evenodd;clip-rule:evenodd;fill:#FFCCAA;stroke:#E1A781;stroke-width:16;}
	.st1{opacity:0.238;fill:#803300;enable-background:new    ;}
	.st2{fill-rule:evenodd;clip-rule:evenodd;fill:#803300;stroke:#C85000;stroke-width:16;}
	.st3{fill:#903900;}
	.st4{fill-rule:evenodd;clip-rule:evenodd;fill:#E8B08B;stroke:#000000;}
</style>
<g transform="matrix(-.20805 -1.1166 .67116 -.20409 -3993.3 758.5)">
	<path class="st0" d="M-678,5925.5c-1.6-0.3-1.7,3.6-2.2,4.6l3.8,4.7l-5.1,1.5l2.7,5.5l-3.9,1.7l3.3,4l1.9,2.7l-5,1.6l2.5,8.4
		l-4.1,4.1l5.1,4.1l-5.8,1.7l-1.5,5.4l5.6,3c-0.1,0.6-4.9,1.9-4.4,2.1c20.1,8.4,40.7,15.9,61.9,21.6
		c59.2,16.1,114.5,38.1,169.2,60.3c0.5,0.2-3.6-4.3-3.5-5l5.8,1.1l-0.1-5.9l-4.9-5.5l5.7-0.3l-2.7-6.5l4.4-5.9l-4.1-4.8l2.4-1.2
		l4-1.4l-3.1-4.2l3.8-3.2l-4.3-4.8l4.6-1.7c-0.2-1.3,0.7-4.9-0.9-5.7c-53.2-18.9-100.6-39.2-159.9-56.7
		C-634.7,5941.5-656.6,5933.5-678,5925.5L-678,5925.5z"/>
	<path class="st1" d="M-515.4,5984.8c0,0-33.4-0.4-39.9-2.7c-6.5-2.3-59.2-33.2-123.9-44.7c-0.9,1.8,25.6,18.4,44.8,23
		c19.2,4.7,70.9,27.3,84.6,32.1S-515.4,5984.8-515.4,5984.8L-515.4,5984.8z M-453.4,6020.6c0,0-4.4-3.5-9.6-1.7s-36.8-0.1-44.7-3.7
		c-7.9-3.7-26.3-1.6-26.3-1.6c12.5-0.4,36.9,12.2,46.1,12.5C-478.7,6026.5-453.4,6020.6-453.4,6020.6L-453.4,6020.6z M-503.6,6006.5
		c0,0-8.8-1-14.3-0.1c-5.6,0.9-37.4-6.1-45-11c-7.6-4.8-26.5-5.8-26.5-5.8c12.7,1.7,35.9,17.8,45.2,19.6
		C-534.9,6011.2-503.6,6006.5-503.6,6006.5L-503.6,6006.5z M-628.7,5963.6c-10.6-3.6-32.3-5.1-43.2-11.6c0,0,17.6,12,25.7,12.7
		c8.1,0.7,38.9,15.9,43.7,20.5c4.9,4.6,13.1,9.6,13.1,9.6s-27.4-25.5-36.4-30.1C-626.6,5964.4-627.6,5964-628.7,5963.6
		L-628.7,5963.6z M-667.1,5967.8c-0.4,2.7-8.6,8.4-6,9.3c2.6,0.9,99.5,32.4,99.5,32.4l62.4,13.5l-88.7-31.5
		C-626,5982.4-648.6,5978-667.1,5967.8L-667.1,5967.8z M-459.4,6042.9c-1.3-0.5-51.2-16.3-51.2-16.3l-32.2-5.7l45.6,16.2
		c13.4,4.8,25.1,6.5,34.6,12.3C-462.5,6047.5-458.1,6043.3-459.4,6042.9L-459.4,6042.9z"/>
</g>
<g transform="matrix(-.99318 .24162 -.18554 -.76266 -3696.4 2613.9)">
	<path class="st2" d="M-4352,1892.7c-1.6-0.1-1.9,3.5-2.4,4.6l3.8,4.3l-5.3,1.7l2.6,5.2l-4.1,1.9l3.3,3.7l1.9,2.5l-5.2,1.9l2.4,8
		l-4.4,4.2l5.2,3.7l-6.1,2l-1.7,5.3l5.7,2.5c-0.1,0.6-5.2,2.2-4.6,2.3c20.5,7,41.6,12.9,63.4,17.2c60.7,12,117.4,30,173.3,48.3
		c0.5,0.1-3.6-4-3.5-4.6l6,0.7l0.1-5.8l-4.9-5.1l5.9-0.6l-2.7-6.2l4.7-6l-4.2-4.4l2.5-1.3l4.2-1.6l-3.1-3.9l4-3.4l-4.3-4.4l4.8-1.9
		c-0.1-1.3,0.8-4.7-0.7-5.5c-54.5-15.1-103-31.9-163.8-45.3C-4307.7,1905.6-4330,1899.2-4352,1892.7L-4352,1892.7z"/>
	<path class="st3" d="M-4185.5,1940.4c0,0-34.5,1.6-41.2-0.2c-6.7-1.9-60.3-28.6-126.9-35.8c-1,1.8,26,16.3,45.7,19.6
		c19.7,3.4,72.5,22.2,86.6,26.1C-4207.3,1953.9-4185.5,1940.4-4185.5,1940.4L-4185.5,1940.4L-4185.5,1940.4z M-4122.3,1971.3
		c0,0-4.5-3.1-9.9-1.1c-5.5,2.1-38,2.1-46.1-0.9c-8.1-3.1-27.1,0.1-27.1,0.1c12.9-1.1,37.9,9.6,47.3,9.4
		C-4148.6,1978.5-4122.3,1971.3-4122.3,1971.3L-4122.3,1971.3z M-4173.8,1960.7c0,0-9-0.4-14.8,0.8s-38.5-3.7-46.2-7.9
		c-7.7-4.2-27.3-4.1-27.3-4.1c13.1,0.8,36.7,15,46.2,16.3C-4206.3,1967.1-4173.8,1960.7-4173.8,1960.7L-4173.8,1960.7z
		 M-4302,1926.6c-10.9-2.9-33.2-3-44.3-8.6c0,0,17.8,10.5,26.2,10.7c8.3,0.2,39.8,13.1,44.7,17.3c4.9,4.1,13.3,8.6,13.3,8.6
		s-27.7-23-36.8-27C-4299.9,1927.3-4300.9,1926.9-4302,1926.6L-4302,1926.6z M-4341.8,1933.1c-0.4,2.7-9.1,8.7-6.4,9.4
		c2.7,0.7,102,25.4,102,25.4l64.1,9.4l-90.9-25.2C-4299.7,1944.7-4323,1941.8-4341.8,1933.1L-4341.8,1933.1z M-4129.1,1993.3
		c-1.4-0.4-52.5-12.7-52.5-12.7l-33.2-3.6l46.7,12.9c13.8,3.8,25.8,4.8,35.4,9.8C-4132.4,1997.9-4127.7,1993.7-4129.1,1993.3
		L-4129.1,1993.3z"/>
	<g>
		<path class="st4" d="M-4343.6,1917.2l5.7,3.3l5.1-3.2l-0.6-6.4l-5.7-3.3l-5.1,3.2L-4343.6,1917.2L-4343.6,1917.2z"/>
		<path class="st4" d="M-4346.2,1933.2l6.2,0l3.7,5.6l-2.6,5.5l-6.2,0l-3.7-5.6L-4346.2,1933.2L-4346.2,1933.2z"/>
		<path class="st4" d="M-4145.3,1988.5l6.2,0l3.7,5.6l-2.6,5.5l-6.2,0l-3.7-5.6L-4145.3,1988.5z"/>
		<path class="st4" d="M-4141.6,1972.4l5.7,3.3l5.1-3.2l-0.6-6.4l-5.7-3.3l-5.1,3.2L-4141.6,1972.4L-4141.6,1972.4z"/>
	</g>
</g>
<g transform="matrix(-.99318 .24162 -.18554 -.76266 -3591.4 2971.5)">
	<path class="st2" d="M-4323.3,2280.1c-1.6-0.1-1.9,3.5-2.4,4.6l3.8,4.3l-5.3,1.7l2.6,5.2l-4.1,1.9l3.3,3.7l1.9,2.5l-5.2,1.9l2.4,8
		l-4.4,4.2l5.2,3.7l-6.1,2l-1.7,5.3l5.7,2.5c-0.1,0.6-5.2,2.2-4.6,2.3c20.5,7,41.6,12.9,63.4,17.2c60.7,12,117.4,30,173.3,48.3
		c0.5,0.1-3.6-4-3.5-4.6l6,0.7l0.1-5.8l-4.9-5.1l5.9-0.6l-2.7-6.2l4.7-6l-4.2-4.4l2.5-1.3l4.2-1.6l-3.1-3.9l4-3.4l-4.3-4.4l4.8-1.9
		c-0.1-1.3,0.8-4.7-0.7-5.5c-54.5-15.1-103-31.9-163.8-45.4C-4278.9,2293-4301.3,2286.5-4323.3,2280.1L-4323.3,2280.1z"/>
	<path class="st3" d="M-4156.7,2327.7c0,0-34.5,1.6-41.2-0.2c-6.7-1.9-60.3-28.6-126.9-35.8c-1,1.8,26,16.3,45.7,19.6
		c19.7,3.4,72.5,22.2,86.6,26.1C-4178.5,2341.2-4156.7,2327.7-4156.7,2327.7L-4156.7,2327.7L-4156.7,2327.7z M-4093.5,2358.7
		c0,0-4.5-3.1-9.9-1.1c-5.5,2.1-38,2.1-46.1-0.9c-8.1-3.1-27.1,0.1-27.1,0.1c12.9-1.1,37.9,9.6,47.3,9.4
		C-4119.9,2365.9-4093.5,2358.7-4093.5,2358.7L-4093.5,2358.7z M-4145,2348.1c0,0-9-0.4-14.8,0.8c-5.8,1.2-38.5-3.7-46.2-7.9
		c-7.7-4.2-27.3-4.1-27.3-4.1c13.1,0.8,36.7,15,46.2,16.3C-4177.5,2354.4-4145,2348.1-4145,2348.1L-4145,2348.1z M-4273.2,2314
		c-10.9-2.9-33.2-3-44.3-8.6c0,0,17.8,10.5,26.2,10.7c8.3,0.2,39.8,13.1,44.7,17.3c4.9,4.1,13.3,8.6,13.3,8.6s-27.7-23-36.8-26.9
		C-4271.1,2314.6-4272.1,2314.3-4273.2,2314L-4273.2,2314z M-4313.1,2320.4c-0.4,2.7-9.1,8.7-6.4,9.4c2.7,0.7,102,25.4,102,25.4
		l64.1,9.4l-90.9-25.2C-4271,2332.1-4294.2,2329.1-4313.1,2320.4L-4313.1,2320.4z M-4100.4,2380.6c-1.4-0.4-52.5-12.7-52.5-12.7
		l-33.2-3.6l46.7,12.9c13.8,3.8,25.8,4.8,35.4,9.8C-4103.6,2385.3-4099,2381-4100.4,2380.6L-4100.4,2380.6z"/>
	<g>
		<path class="st4" d="M-4314.8,2304.6l5.7,3.3l5.1-3.2l-0.6-6.4l-5.7-3.3l-5.1,3.2L-4314.8,2304.6L-4314.8,2304.6z"/>
		<path class="st4" d="M-4317.4,2320.6l6.2,0l3.7,5.6l-2.6,5.5l-6.2,0l-3.7-5.6L-4317.4,2320.6L-4317.4,2320.6z"/>
		<path class="st4" d="M-4116.5,2375.8l6.2,0l3.7,5.6l-2.6,5.5l-6.2,0l-3.7-5.6L-4116.5,2375.8z"/>
		<path class="st4" d="M-4112.9,2359.8l5.7,3.3l5.1-3.2l-0.6-6.4l-5.7-3.3l-5.1,3.2L-4112.9,2359.8L-4112.9,2359.8z"/>
	</g>
</g>
<g transform="matrix(.99318 -.24162 .18554 .76266 -2367.8 -1177.2)">
	<path class="st2" d="M1992.3,2194.7c-1.7-0.1-1.9,3.5-2.4,4.6l3.8,4.3l-5.3,1.7l2.6,5.2l-4.1,1.9l3.3,3.7l1.9,2.5l-5.2,1.9l2.4,8
		l-4.4,4.2l5.2,3.7l-6.1,2l-1.7,5.3l5.7,2.5c-0.1,0.6-5.2,2.2-4.6,2.3c20.5,7,41.6,12.9,63.4,17.2c60.7,12,117.4,30,173.3,48.3
		c0.5,0.1-3.6-4-3.5-4.6l6,0.7l0.1-5.8l-4.9-5.1l5.9-0.6l-2.7-6.2l4.7-6l-4.2-4.4l2.5-1.3l4.2-1.6l-3.1-3.9l4-3.4l-4.3-4.4l4.8-1.9
		c-0.1-1.3,0.8-4.7-0.7-5.5c-54.5-15.1-103-31.9-163.8-45.3C2036.6,2207.5,2014.3,2201.1,1992.3,2194.7L1992.3,2194.7z"/>
	<path class="st3" d="M2158.8,2242.3c0,0-34.5,1.6-41.2-0.2c-6.7-1.9-60.3-28.6-126.9-35.8c-1,1.8,26,16.3,45.7,19.6
		c19.7,3.4,72.5,22.2,86.6,26.1C2137,2255.8,2158.8,2242.3,2158.8,2242.3L2158.8,2242.3z M2222,2273.2c0,0-4.5-3.1-9.9-1.1
		c-5.5,2.1-38,2.1-46.1-0.9c-8.1-3.1-27.1,0.1-27.1,0.1c12.9-1.1,37.9,9.6,47.3,9.4C2195.7,2280.5,2222,2273.2,2222,2273.2
		L2222,2273.2z M2170.5,2262.6c0,0-9-0.4-14.8,0.8c-5.8,1.2-38.5-3.7-46.2-7.9c-7.7-4.2-27.3-4.1-27.3-4.1
		c13.1,0.8,36.7,15,46.2,16.3C2138,2269,2170.5,2262.6,2170.5,2262.6L2170.5,2262.6z M2042.3,2228.6c-10.9-2.9-33.2-3-44.3-8.6
		c0,0,17.8,10.5,26.2,10.7c8.3,0.2,39.8,13.1,44.7,17.3c4.9,4.1,13.3,8.6,13.3,8.6s-27.7-23-36.8-27
		C2044.4,2229.2,2043.4,2228.9,2042.3,2228.6L2042.3,2228.6z M2002.5,2235c-0.4,2.7-9.1,8.7-6.4,9.4c2.7,0.7,102,25.4,102,25.4
		l64.1,9.4l-90.9-25.2C2044.6,2246.7,2021.3,2243.7,2002.5,2235z M2215.2,2295.2c-1.4-0.4-52.5-12.7-52.5-12.7l-33.2-3.6l46.7,12.9
		c13.8,3.8,25.8,4.8,35.4,9.8C2211.9,2299.9,2216.6,2295.6,2215.2,2295.2L2215.2,2295.2z"/>
	<g>
		<path class="st4" d="M2000.7,2219.2l5.7,3.3l5.1-3.2l-0.6-6.4l-5.7-3.3l-5.1,3.2L2000.7,2219.2L2000.7,2219.2z"/>
		<path class="st4" d="M1998.1,2235.1l6.2,0l3.7,5.6l-2.6,5.5l-6.2,0l-3.7-5.6L1998.1,2235.1L1998.1,2235.1z"/>
		<path class="st4" d="M2199,2290.4l6.2,0l3.7,5.6l-2.6,5.5l-6.2,0l-3.7-5.6L2199,2290.4L2199,2290.4z"/>
		<path class="st4" d="M2202.7,2274.4l5.7,3.3l5.1-3.2l-0.6-6.4l-5.7-3.3l-5.1,3.2L2202.7,2274.4L2202.7,2274.4z"/>
	</g>
</g>
</svg>
